<?xml version="1.0" standalone="no"?>
<!DOCTYPE svg PUBLIC "-//W3C//DTD SVG 1.1//EN" "http://www.w3.org/Graphics/SVG/1.1/DTD/svg11.dtd" >
<svg xmlns="http://www.w3.org/2000/svg" xmlns:xlink="http://www.w3.org/1999/xlink" version="1.1">
<metadata>
Created by FontForge 20170731 at Mon May 22 16:22:12 2017
 By Aleksey,,,
Copyright 2002, 2007 International Typeface Corporation. All rights reserved.
</metadata>
<defs>
<font id="StoneInformalITCW03-SmBdIt" horiz-adv-x="584" >
  <font-face 
    font-family="StoneInformalITCW03-SmBdIt"
    font-weight="600"
    font-style="italic"
    font-stretch="normal"
    units-per-em="1000"
    panose-1="2 0 7 3 7 0 0 2 0 4"
    ascent="800"
    descent="-200"
    x-height="500"
    cap-height="700"
    bbox="-180 -299 1296 974"
    underline-thickness="50"
    underline-position="-175"
    slope="-12"
    unicode-range="U+0020-FE6A"
  />
<missing-glyph horiz-adv-x="500" 
d="M12 0v665h475v-665h-475zM250 375l161 243h-323zM278 333l162 -243v485zM221 333l-161 242v-484zM88 48h323l-161 242z" />
    <glyph glyph-name="IJ" unicode="IJ" horiz-adv-x="716" 
d="M-5 9l2 7l10 17q2 3 6 7.5t20 8.5q21 5 32.5 16t21.5 65l83 446q6 36 6 41q0 11 -4.5 18.5t-33.5 15.5q-19 5 -19 10l3 10l11 19q1 2 5 6t20 4h212q15 0 22 -1t7 -8l-2 -7l-10 -17q-2 -3 -6 -7.5t-19 -8.5q-21 -5 -33 -15.5t-23 -65.5l-84 -446q-5 -25 -5 -42
q0 -11 5 -18t33 -14q19 -4 19 -11l-3 -11l-11 -18q-6 -10 -25 -10h-211q-14 0 -21.5 1t-7.5 8zM442 91l90 485q6 30 6 41q0 21 -17 28l-32 9q-8 3 -8 8l3 9l11 19q6 10 25 10h212q14 0 21 -1t7 -8l-2 -7l-10 -17q-2 -3 -5.5 -7.5t-19.5 -8.5q-21 -5 -33.5 -16t-22.5 -65
l-89 -481q-24 -132 -88 -204.5t-162 -74.5l11 61q40 21 61.5 66.5t41.5 153.5z" />
    <glyph glyph-name="ij" unicode="ij" horiz-adv-x="573" 
d="M201 574q-29 0 -48.5 19.5t-19.5 48.5q0 16 8 35.5t29 33t46 13.5q29 0 48 -18.5t19 -46.5q0 -35 -24 -60t-58 -25zM47 24l4 35l56 301q7 40 7 52q0 25 -26 34l-14 5q-3 1 -8 3.5t-5 7.5l2 7l5 20q2 11 22 11h150q20 0 20 -11l-2 -17l-56 -302q-9 -50 -9 -59t4.5 -15.5
t11.5 -6.5l15 2l16 3l10 1q10 0 11 -12l1 -9l1 -13q0 -10 -17 -16l-167 -57q-18 5 -25 13.5t-7 22.5zM477 574q-30 0 -49.5 19.5t-19.5 49.5q0 35 24.5 58.5t59.5 23.5q29 0 48 -18.5t19 -46.5q0 -36 -24 -61t-58 -25zM319 0l66 360q8 42 8 54q0 11 -7 19.5t-20 12.5l-14 5
q-12 4 -12 11l1 7l6 20q3 11 23 11h148q5 0 12.5 -1t7.5 -11l-3 -25l-81 -434q-23 -123 -82 -194.5t-152 -83.5l10 56q36 25 54.5 64.5t34.5 128.5z" />
    <glyph glyph-name="napostrophe" unicode="&#x27;n" horiz-adv-x="731" 
d="M169 0l67 360q7 36 7 53q0 24 -26 33l-14 5q-12 4 -12 11l1 7l6 20q1 3 4 7t18 4h145q24 0 24 -11l-2 -15l-16 -88q18 25 34.5 44.5t39.5 37.5q25 18 58 31t66 13q48 0 76 -29t28 -78q0 -17 -1.5 -31t-9.5 -56l-27 -148q-9 -49 -9 -58q0 -10 4 -16.5t11 -6.5l19 2l9 2
l14 2q10 0 11 -12l1 -9l1 -12q0 -3 -1.5 -7.5t-15.5 -9.5l-166 -57q-13 5 -22.5 13t-9.5 26q0 14 3 29l43 234q11 56 11 82q0 27 -11.5 43t-31.5 16q-51 0 -104 -84q-18 -29 -33 -68.5t-37 -158.5l-22 -120h-130zM27 400q-7 0 -17 10t-10 17q0 5 17 26q28 33 48.5 71
t25.5 99q2 20 4.5 31t13.5 21q15 12 36.5 24t30.5 12q5 0 15 -9.5t19 -29t9 -34.5q0 -10 -6.5 -21t-17.5 -25.5t-33.5 -43t-30.5 -38.5q-5 -6 -18.5 -23t-43 -52t-42.5 -35z" />
    <glyph glyph-name="uniFB00" unicode="ff" horiz-adv-x="665" 
d="M52 0l84 450h-91l9 50h91q12 43 28 81t48 70q41 41 99 61t138 20q50 0 83 -8t42 -22q25 14 59.5 22t69.5 8q50 0 79.5 -10t30.5 -27l-1 -11l-14 -55q-1 -4 -3 -10t-10 -8l-13 -3l-7 -1q-6 0 -14 14q-35 55 -73 55t-61.5 -39t-43.5 -137h147l-6 -30l-22 -20h-128l-83 -450
h-130l83 450h-177l-84 -450h-130zM275 500h177q14 62 43 112q-16 34 -37 49t-51 15q-61 0 -95 -64q-17 -33 -37 -112z" />
    <glyph glyph-name="uniFB01" unicode="fi" horiz-adv-x="602" 
d="M52 0l84 450h-91l9 50h91q12 43 28 81t48 70q41 41 99 61t138 20q60 0 94.5 -11t34.5 -30q0 -7 -5 -22l-17 -48q-6 -16 -9 -21t-10 -8l-20 -8l-9 -3q-2 0 -6 2.5t-15 26.5q-16 35 -37 50.5t-52 15.5q-61 0 -95 -64q-17 -33 -37 -112h284q20 0 20 -11l-2 -17l-56 -302
q-9 -49 -9 -59q0 -9 4.5 -15.5t11.5 -6.5l17 2l14 3l10 1q10 0 11 -12l1 -10l1 -12q0 -10 -17 -16l-167 -57q-32 9 -32 36q0 16 4 35l56 301q7 40 7 56q0 34 -48 34h-119l-84 -450h-130z" />
    <glyph glyph-name="uniFB02" unicode="fl" horiz-adv-x="639" 
d="M52 0l84 450h-91l9 50h91q35 150 130 201q21 11 42 18.5t51 10t107 2.5h142q23 0 23 -16l-1 -15l-99 -531q-9 -52 -9 -59q0 -9 5 -15.5t12 -6.5l16 2l14 3l9 1q10 0 11 -12l1 -9l1 -13q0 -2 -1.5 -6.5t-15.5 -9.5l-165 -57q-33 10 -33 35q0 19 4 38l107 573
q-67 42 -113 42q-45 0 -67 -43.5t-41 -132.5h148l-5 -30l-23 -20h-129l-84 -450h-130z" />
    <glyph glyph-name="uniFB03" unicode="ffi" horiz-adv-x="908" 
d="M52 0l84 450h-91l9 50h91q12 43 28 81t48 70q41 41 99 61t138 20q56 0 90 -9.5t38 -27.5q70 37 178 37q60 0 94.5 -11t34.5 -30q0 -7 -5 -22l-17 -48q-6 -16 -9 -21t-10 -8l-20 -8l-9 -3q-2 0 -6 2.5t-15 26.5q-16 35 -37 50.5t-52 15.5q-61 0 -95 -64q-17 -33 -37 -112
h284q20 0 20 -11l-2 -17l-56 -302q-9 -49 -9 -59q0 -9 4.5 -15.5t11.5 -6.5l17 2l14 3l10 1q10 0 11 -12l1 -10l1 -12q0 -10 -17 -16l-167 -57q-32 9 -32 36q0 16 4 35l56 301q7 40 7 56q0 34 -48 34h-119l-84 -450h-130l84 450h-176l-84 -450h-130zM275 500h176
q21 74 44 111q-16 35 -37 50t-51 15q-61 0 -95 -64q-17 -33 -37 -112z" />
    <glyph glyph-name="uniFB04" unicode="ffl" horiz-adv-x="944" 
d="M52 0l84 450h-91l9 50h91q12 43 28 81t48 70q41 41 99 61t138 20q50 0 82.5 -8t42.5 -21q31 16 59.5 22.5t137.5 6.5h142q23 0 23 -16l-1 -15l-99 -531q-9 -52 -9 -59q0 -9 5 -15.5t12 -6.5l16 2l14 3l9 1q10 0 11 -12l1 -9l1 -13q0 -2 -1.5 -6.5t-15.5 -9.5l-165 -57
q-33 10 -33 35q0 19 4 38l107 573q-67 42 -113 42q-45 0 -67 -43.5t-41 -132.5h148l-5 -30l-23 -20h-129l-84 -450h-130l84 450h-175l-84 -450h-130zM275 500h175q17 71 43 116q-15 32 -35.5 46t-50.5 14q-61 0 -95 -64q-17 -33 -37 -112z" />
    <glyph glyph-name=".notdef" horiz-adv-x="500" 
d="M12 0v665h475v-665h-475zM250 375l161 243h-323zM278 333l162 -243v485zM221 333l-161 242v-484zM88 48h323l-161 242z" />
    <glyph glyph-name=".null" horiz-adv-x="0" 
 />
    <glyph glyph-name="nonmarkingreturn" horiz-adv-x="333" 
 />
    <glyph glyph-name="space" unicode=" " horiz-adv-x="262" 
 />
    <glyph glyph-name="exclam" unicode="!" horiz-adv-x="396" 
d="M150 202q20 119 40.5 272.5t22.5 210.5q1 14 3 22t10 14q20 12 76 12q69 0 69 -21q0 -2 -1 -5t-14 -33q-34 -77 -77 -213t-72 -259h-57zM74 53q0 37 26.5 62t64.5 25q28 0 46 -18t18 -47q0 -38 -26 -63.5t-64 -25.5q-29 0 -47 18.5t-18 48.5z" />
    <glyph glyph-name="quotedbl" unicode="&#x22;" horiz-adv-x="470" 
d="M319 418l19 271q1 11 13 11h82q9 0 9 -5l-3 -11l-79 -266h-41zM169 418l19 271q1 11 13 11h82q9 0 9 -5l-3 -11l-79 -266h-41z" />
    <glyph glyph-name="numbersign" unicode="#" horiz-adv-x="583" 
d="M68 0l67 213h-102l14 76h114l40 132h-102l14 75h114l64 204h67l-64 -204h128l64 204h67l-65 -204h100l-14 -75h-111l-40 -132h99l-14 -76h-111l-68 -213h-67l68 213h-128l-67 -213h-67zM228 289h128l40 132h-128z" />
    <glyph glyph-name="dollar" unicode="$" 
d="M64 61l3 33l11 81q1 8 3 16t9 9l13 2l7 1q2 0 5.5 -1.5t10.5 -27.5q10 -36 20.5 -58.5t39.5 -33.5l77 246l-65 85q-45 62 -45 117q0 42 27.5 78.5t81 55.5t114.5 19h27l21 63h46l-21 -68q42 -8 59 -17.5t17 -24.5l-1 -13l-12 -63l-4 -16t-5 -7l-11 -9q-4 -3 -9 -3
q-9 0 -12 12q-15 60 -42 80l-65 -210q59 -68 85 -118.5t26 -95.5q0 -39 -17.5 -73t-49 -58t-76 -37t-95.5 -13h-27l-24 -75h-47l25 79q-44 9 -72 18.5t-28 26.5zM325 438l61 193l-16 1q-18 0 -40 -9.5t-37.5 -33.5t-15.5 -53q0 -17 6.5 -35t41.5 -63zM230 71q45 1 73 22
q20 15 33 42.5t13 55.5q0 20 -7.5 44t-40.5 65z" />
    <glyph glyph-name="percent" unicode="%" horiz-adv-x="923" 
d="M208 272q-66 0 -104 45.5t-38 123.5q0 52 18.5 101t50.5 86t74.5 58t87.5 21q58 0 97 -42t39 -106q0 -57 -24.5 -119.5t-62.5 -104.5q-57 -63 -138 -63zM184 0l509 700h81l-510 -700h-80zM214 317q19 0 37.5 17t30.5 48q17 41 30 97.5t13 100.5q0 40 -11 60.5t-31 20.5
t-38.5 -15.5t-31.5 -44.5q-19 -41 -31 -95.5t-12 -100.5q0 -88 44 -88zM529 161q0 52 18.5 101t50.5 86.5t74.5 58.5t88.5 21q58 0 96.5 -43t38.5 -107q0 -42 -13.5 -88.5t-33.5 -80.5t-38 -53q-57 -63 -140 -63q-66 0 -104 45t-38 123zM634 126q0 -87 46 -87q19 0 37 16.5
t30 47.5q17 41 29.5 97t12.5 101q0 81 -41 81q-20 0 -38.5 -16t-31.5 -45q-19 -41 -31.5 -95.5t-12.5 -99.5z" />
    <glyph glyph-name="ampersand" unicode="&#x26;" horiz-adv-x="735" 
d="M37 180q0 150 199 207q-44 60 -58.5 92t-14.5 68q0 27 10.5 55.5t36 53t68.5 40.5t103 16q25 0 55.5 -5t53 -17t22.5 -26l-2 -14l-9 -50q-1 -5 -2.5 -12t-8.5 -11l-17 -9l-8 -2q-8 0 -11 12q-8 25 -12.5 38.5t-13.5 22.5q-10 11 -25 17t-32 6q-36 0 -60 -24.5t-24 -62.5
q0 -44 37 -100l84 -114l107 -146q38 80 38 134q0 39 -16 79h-63q-24 0 -24 9l5 11l18 24q3 4 9 9.5t30 5.5h236q12 0 19 -1.5t7 -7.5q0 -3 -6 -11l-20 -26q-3 -3 -9 -8t-31 -5h-98q5 -27 5 -52q0 -104 -65 -207l42 -54q29 -37 56 -66q13 -14 13 -24v-5l-4 -20h-92
q-20 0 -31.5 4t-35.5 36l-30 41q-50 -48 -103 -70.5t-115 -22.5q-47 0 -86.5 14t-68 39.5t-43.5 61t-15 77.5zM166 191q0 -61 35.5 -100.5t92.5 -39.5q38 0 73 17t70 53l-171 225q-100 -47 -100 -155z" />
    <glyph glyph-name="quotesingle" unicode="'" horiz-adv-x="263" 
d="M136 418l19 271q1 11 13 11h82q9 0 9 -5l-3 -11l-79 -266h-41z" />
    <glyph glyph-name="parenleft" unicode="(" horiz-adv-x="395" 
d="M55 149q0 147 68 282.5t188 227.5q35 27 74.5 50t51.5 23q4 0 8 -4.5t4 -9.5q0 -6 -8 -10q-93 -61 -150 -153q-32 -51 -59 -126t-46.5 -169.5t-19.5 -175.5q0 -79 21 -144.5t58 -102.5q10 -10 10 -14q0 -6 -8 -13t-14 -7q-10 0 -38 22t-49 46q-44 51 -67.5 122.5
t-23.5 155.5z" />
    <glyph glyph-name="parenright" unicode=")" horiz-adv-x="395" 
d="M110 -20q52 83 88.5 221.5t36.5 249.5q0 79 -21.5 144t-59.5 103q-9 9 -9 14q0 6 8.5 13t14.5 7q10 0 37.5 -21.5t48.5 -46.5q44 -52 67.5 -123t23.5 -155q0 -148 -68 -283.5t-188 -227.5q-36 -27 -75 -50t-51 -23q-4 0 -8 4.5t-4 9.5q0 6 8 10q41 26 82 67.5t69 86.5z
" />
    <glyph glyph-name="asterisk" unicode="*" horiz-adv-x="583" 
d="M253 365l-71 48l107 101l-122 33l31 77l120 -59l-5 134h93l-31 -134l126 54l23 -72l-144 -33l93 -101l-79 -48l-63 119z" />
    <glyph glyph-name="plus" unicode="+" 
d="M33 221v77h216v218h82v-218h216v-77h-216v-221h-82v221h-216z" />
    <glyph glyph-name="comma" unicode="," horiz-adv-x="282" 
d="M55 54q2 22 4 33.5t13 20.5q6 5 23.5 16.5t30 16t16.5 4.5q5 0 15 -9.5t19.5 -30t9.5 -35.5q0 -11 -6 -23.5t-53 -69.5l-48 -58q-4 -5 -15.5 -19t-37.5 -44.5t-37 -30.5q-8 0 -18.5 10t-10.5 18q0 5 18 26q29 34 50.5 73t26.5 102z" />
    <glyph glyph-name="hyphen" unicode="-" horiz-adv-x="338" 
d="M24 214l15 79h274l-14 -79h-275z" />
    <glyph glyph-name="period" unicode="." horiz-adv-x="282" 
d="M27 52q0 28 15 49.5t36.5 30t39.5 8.5q28 0 46 -18t18 -47q0 -38 -26 -63.5t-64 -25.5q-29 0 -47 18.5t-18 47.5z" />
    <glyph glyph-name="slash" unicode="/" horiz-adv-x="376" 
d="M27 -108h-76l395 839h77z" />
    <glyph glyph-name="zero" unicode="0" 
d="M244 -12q-97 0 -152.5 72t-55.5 198q0 66 19 141t64 144t98.5 107t97.5 50t77 12q42 0 78.5 -18t63 -50.5t40.5 -77.5t14 -97q0 -93 -38 -200t-96 -176q-87 -105 -210 -105zM253 50q35 0 66.5 29.5t54.5 83.5q33 79 55 178t22 172q0 31 -6.5 63.5t-25 52.5t-46.5 20
q-36 0 -69 -27.5t-57 -78.5q-34 -71 -55.5 -168.5t-21.5 -176.5q0 -148 83 -148z" />
    <glyph glyph-name="one" unicode="1" 
d="M78 9l2 7l11 20q2 3 6.5 8.5t24.5 6.5q40 3 59 11.5t27 27.5t12 43l71 382q6 30 6 39q0 13 -8 21t-20 8q-15 0 -36 -7l-40 -14l-13 -3q-7 0 -10 16l-3 17l-2 17q0 11 20 17l277 85l-108 -584l-5 -29q0 -13 7.5 -23.5t18.5 -14.5q4 -1 9.5 -3t53.5 -9q5 -1 11.5 -2t6.5 -7
l-2 -8l-12 -21q-6 -10 -25 -10h-310q-14 0 -21.5 1t-7.5 8z" />
    <glyph glyph-name="two" unicode="2" 
d="M-7 0l15 80q110 92 181.5 159.5t126.5 134.5q81 101 81 177q0 38 -19.5 59t-54.5 21q-34 0 -58 -17t-50 -59l-25 -41q-8 -12 -15 -12q-3 0 -12 4l-22 10q-3 2 -6 6.5t-3 9.5l1 13l11 59q1 5 5.5 16.5t23.5 25.5q89 66 191 66q81 0 133 -43t52 -109q0 -82 -84 -173
q-23 -25 -67.5 -63t-84.5 -74l-164 -147h151q48 0 67 10.5t53 54.5l21 27q3 4 7.5 9.5t10.5 5.5t11 -4l23 -13q10 -6 10 -13q0 -5 -9 -22l-57 -112q-16 -32 -27.5 -39t-49.5 -7h-367z" />
    <glyph glyph-name="three" unicode="3" 
d="M42 37l-10 68l-3 27q0 9 11 17l27 17q8 5 15 5q11 0 18 -16l20 -42q16 -32 39 -47t57 -15q39 0 71.5 24t45.5 57t13 60q0 118 -166 134l10 57q96 17 149 62.5t53 113.5q0 36 -21 58t-56 22q-31 0 -55.5 -16t-45.5 -51l-16 -26q-10 -15 -15 -15q-4 0 -16 6l-16 8
q-11 6 -11 14l3 19l7 39q4 26 31 44q74 51 171 51q85 0 133.5 -38t48.5 -106q0 -135 -204 -202q31 -5 70 -21t66.5 -52t27.5 -90q0 -45 -21 -85t-58.5 -69t-89.5 -45t-111 -16q-100 0 -172 49z" />
    <glyph glyph-name="four" unicode="4" 
d="M148 8l3 8l12 20q2 4 6.5 9t23.5 6q40 3 58.5 11.5t26.5 27.5t13 43l13 68h-249q-19 0 -30 3t-15 21l-5 21q6 7 22.5 26t135.5 159t234 269h122l-77 -413h63q24 0 24 -12l-5 -12l-32 -62h-65l-15 -74q-4 -17 -4 -30q0 -22 16.5 -32t62.5 -17q11 -2 11 -9l-2 -8l-12 -21
q-6 -10 -26 -10h-281q-17 0 -23 2t-6 6zM126 287h196l56 297q-135 -152 -252 -297z" />
    <glyph glyph-name="five" unicode="5" 
d="M48 43l-23 75l-5 20q0 8 11 17l26 20q8 6 12 6q2 0 5 -1t12 -12l38 -48q24 -30 45 -47.5t61 -17.5q58 0 96.5 44.5t38.5 104.5q0 46 -25 84t-67 59q-52 26 -143 30l151 323h268q30 0 30 -12q0 -8 -8 -21l-42 -73h-213l-51 -121q38 -8 73 -19.5t75 -39.5q46 -33 71 -80
t25 -101q0 -55 -25.5 -103t-71.5 -81q-40 -29 -90.5 -45t-99.5 -16q-50 0 -92 13t-82 42z" />
    <glyph glyph-name="six" unicode="6" 
d="M54 214q0 72 34.5 148t104 152t171.5 133q51 28 105.5 46.5t86.5 18.5q6 0 10.5 -3t4.5 -8t-6 -17l-18 -39q-100 -16 -185 -86t-134 -177q29 23 59 39t75 16q47 0 89 -24t63.5 -70t21.5 -97q0 -54 -19.5 -101.5t-55 -82.5t-84 -54.5t-102.5 -19.5q-35 0 -72.5 11
t-74.5 42t-55.5 78t-18.5 95zM191 189q0 -62 26 -101t67 -39q51 0 82.5 49t31.5 129q0 30 -8 63t-29.5 54.5t-50.5 21.5q-25 0 -47 -13.5t-38.5 -38t-25 -58t-8.5 -67.5z" />
    <glyph glyph-name="seven" unicode="7" 
d="M201 0h-141q28 43 174 255.5t219 340.5h-118q-54 0 -76.5 -8t-42.5 -36l-15 -21q-10 -13 -15 -13l-10 4l-14 8q-8 5 -8 13l3 23l19 99q4 24 11 29.5t31 5.5h386l-15 -63q-45 -63 -65 -94t-60 -98z" />
    <glyph glyph-name="eight" unicode="8" 
d="M50 162q0 33 14.5 69t37.5 62q22 25 47.5 42.5t72.5 41.5q-52 46 -70 76t-18 72q0 30 11.5 62t39.5 59.5t73.5 46.5t107.5 19q87 0 138 -39t51 -106q0 -55 -34 -97.5t-117 -83.5q68 -51 94 -90.5t26 -91.5q0 -33 -13 -69.5t-49 -73t-90 -55t-108 -18.5q-94 0 -154 49
t-60 125zM349 428q52 28 76.5 60t24.5 72q0 39 -24.5 64t-62.5 25q-20 0 -44.5 -9.5t-41.5 -34.5t-17 -56q0 -33 19 -59t70 -62zM172 170q0 -39 17 -68t42 -40t48 -11q22 0 49.5 12t47.5 43.5t20 68.5q0 28 -14 55.5t-37 49.5q-15 14 -63 50q-110 -59 -110 -160z" />
    <glyph glyph-name="nine" unicode="9" 
d="M46 -1q0 5 5 15l22 45q33 4 74 19.5t90.5 51t89 86t62.5 99.5q-35 -29 -64.5 -40.5t-66.5 -11.5t-65 12.5t-49.5 32.5t-39 58t-17.5 91q0 38 13.5 80.5t50 86t90.5 66t106 22.5q100 0 159.5 -60.5t59.5 -162.5q0 -42 -14.5 -95t-49.5 -111.5t-93 -118t-136 -104.5
q-47 -27 -114 -49.5t-99 -22.5q-14 0 -14 11zM313 334q30 0 57 21.5t45.5 63t18.5 90.5q0 62 -27.5 102t-69.5 40q-32 0 -57.5 -19.5t-42.5 -59t-17 -96.5q0 -64 25.5 -103t67.5 -39z" />
    <glyph glyph-name="colon" unicode=":" horiz-adv-x="282" 
d="M157 336q-29 0 -47 18t-18 48q0 38 26 63t64 25q28 0 46 -18t18 -46q0 -38 -25.5 -64t-63.5 -26zM27 52q0 28 15 49.5t36.5 30t39.5 8.5q28 0 46 -18t18 -47q0 -38 -26 -63.5t-64 -25.5q-29 0 -47 18.5t-18 47.5z" />
    <glyph glyph-name="semicolon" unicode=";" horiz-adv-x="282" 
d="M175 336q-30 0 -48 18.5t-18 48.5q0 38 25.5 63t64.5 25q28 0 46 -18t18 -47q0 -38 -25 -64t-63 -26zM55 54q2 22 4 33.5t13 20.5q6 5 23.5 16.5t30 16t16.5 4.5q5 0 15 -9.5t19.5 -30t9.5 -35.5q0 -11 -6 -23.5t-53 -69.5l-48 -58q-4 -5 -15.5 -19t-37.5 -44.5
t-37 -30.5q-8 0 -18.5 10t-10.5 18q0 5 18 26q29 34 50.5 73t26.5 102z" />
    <glyph glyph-name="less" unicode="&#x3c;" 
d="M107 230v58l403 242v-83l-319 -188l319 -199v-83z" />
    <glyph glyph-name="equal" unicode="=" 
d="M49 313v78h514v-78h-514zM49 129v77h514v-77h-514z" />
    <glyph glyph-name="greater" unicode="&#x3e;" 
d="M119 -24v83l318 201l-318 186v83l402 -240v-58z" />
    <glyph glyph-name="question" unicode="?" horiz-adv-x="471" 
d="M121 208q13 50 32.5 89.5t94.5 123.5q48 53 67.5 94t19.5 88q0 78 -57 78q-19 0 -42 -10t-62 -52q-14 -15 -21 -15q-3 0 -14 8l-18 13q-8 6 -8 13q0 6 6 15l35 57q66 23 143 23q91 0 142 -37.5t51 -103.5q0 -67 -50 -123q-15 -17 -31 -31.5t-84 -60.5q-104 -72 -132 -169
h-72zM58 53q0 38 25.5 62.5t64.5 24.5q28 0 46 -18t18 -47q0 -38 -25 -63.5t-63 -25.5q-30 0 -48 18.5t-18 48.5z" />
    <glyph glyph-name="at" unicode="@" horiz-adv-x="849" 
d="M213 103q38 -37 94.5 -58t118.5 -21q88 0 182 42l7 -46q-59 -22 -106 -31t-102 -9q-81 0 -147.5 21t-113 61t-71 97t-24.5 127q0 122 64.5 224t168.5 156.5t219 54.5q72 0 137.5 -23t113.5 -66q42 -37 64 -88.5t22 -111.5q0 -44 -11 -85.5t-32 -75.5t-55 -63.5
t-78.5 -43.5t-85.5 -14q-18 0 -42.5 2.5t-36.5 5.5q-22 6 -22 26q0 9 4 23l17 64q-72 -113 -142 -113q-19 0 -41.5 11t-38 39.5t-15.5 64.5q0 51 22.5 100t61 87t88.5 60t102 22q22 0 49 -5.5t46 -19t19 -29.5q0 -19 -10 -54l-47 -171q-10 -38 -10 -46t9.5 -13.5t23.5 -5.5
q28 0 55 20t48 54t33 78.5t12 90.5q0 49 -19.5 92.5t-55 76t-83.5 50t-102 17.5q-72 0 -137.5 -30t-115 -83.5t-77 -124.5t-27.5 -149q0 -58 17.5 -106.5t49.5 -80.5zM403 227q19 0 48.5 28.5t58.5 91t29 110.5q0 19 -9.5 31t-25.5 12q-17 0 -38 -12.5t-44 -44.5t-36.5 -76
t-13.5 -84q0 -26 8.5 -41t22.5 -15z" />
    <glyph glyph-name="A" unicode="A" horiz-adv-x="641" 
d="M-44 0q-17 0 -17 8l2 8l10 18q4 8 18 12q24 6 39.5 16.5t44.5 65.5l225 419q23 44 27 52.5t4 18.5q0 26 -48 38q-12 3 -12 10q0 6 3 10l7 12q2 4 5.5 8t19.5 4h144q7 0 15 -1t10 -11l78 -495q14 -89 20.5 -108t18 -25.5t31.5 -11.5q11 -3 11 -10l-3 -9l-12 -18
q-2 -3 -6 -7t-22 -4h-206q-21 0 -21 8l2 6l12 19q1 2 4 5t21 10q27 9 27 43q0 21 -2 35l-9 77h-232l-50 -94q-15 -28 -15 -39q0 -12 22 -24q10 -4 10 -9t-3 -10l-10 -16q-2 -3 -6 -7t-20 -4h-137zM198 267h191l-37 295z" />
    <glyph glyph-name="B" unicode="B" horiz-adv-x="641" 
d="M70 40q0 19 5 43l92 493q3 15 3 29q0 40 -47 49q-10 1 -10 8l3 9l11 19q1 2 5 6t19 4h240q51 0 92.5 -4.5t74.5 -24.5q25 -16 39.5 -44t14.5 -62q0 -74 -60 -128q-8 -7 -29.5 -22t-76.5 -30q26 -6 46 -14t44 -26q52 -41 52 -119q0 -31 -12 -71t-45.5 -77t-80.5 -58
q-34 -15 -87.5 -23.5t-113.5 -8.5q-44 0 -90 5.5t-66 13.5q-23 9 -23 33zM269 403h44q29 0 56.5 4.5t49.5 22.5q24 19 38.5 54.5t14.5 73.5q0 50 -26 71.5t-86 21.5h-45zM217 103q0 -58 76 -58q66 0 103 39q23 25 36.5 60t13.5 72q0 39 -15.5 70.5t-41.5 46.5
q-6 3 -23.5 9.5t-61.5 6.5h-45l-34 -185q-8 -38 -8 -61z" />
    <glyph glyph-name="C" unicode="C" horiz-adv-x="659" 
d="M174 47q-54 39 -85.5 105t-31.5 142q0 83 36.5 165t98.5 139q59 54 140 84t167 30q51 0 103 -11.5t80.5 -25.5t28.5 -26l-2 -13l-13 -72q-1 -5 -3 -13t-12 -11l-21 -7l-10 -2q-4 0 -6.5 3.5t-21.5 44.5q-16 35 -52 55t-84 20t-92 -19.5t-79 -56.5q-47 -50 -75.5 -126
t-28.5 -150q0 -39 9.5 -82t35.5 -84.5t66 -62t81 -20.5q46 0 81 18t70 61q5 7 9.5 12t10.5 5q4 0 15.5 -4t19.5 -9q14 -7 14 -18q0 -3 -4 -10l-37 -66q-5 -8 -11.5 -17t-24.5 -16q-27 -10 -70.5 -15.5t-81.5 -5.5q-137 0 -220 59z" />
    <glyph glyph-name="D" unicode="D" horiz-adv-x="754" 
d="M71 43q0 12 6 46l91 487l3 29q0 20 -11 32t-37 17q-10 1 -10 8l4 9l10 19q1 3 5 6.5t20 3.5h262q57 0 104 -4t91 -23q63 -27 96 -89.5t33 -155.5q0 -45 -11.5 -102.5t-44 -114t-81 -100.5t-111.5 -73t-127 -39.5t-115 -10.5q-48 0 -93.5 5.5t-62.5 14.5q-21 11 -21 35z
M222 118q0 -35 24.5 -54t68.5 -19q57 0 108 28.5t88.5 79.5t58 121t20.5 149q0 157 -84 206q-16 9 -38.5 15.5t-71.5 6.5h-78l-89 -479q-7 -35 -7 -54z" />
    <glyph glyph-name="E" unicode="E" horiz-adv-x="566" 
d="M70 37q0 13 5 40l93 499l3 29q0 19 -11 30.5t-36 17.5q-10 3 -10 8q0 6 3 10l10 19q1 2 5 6t20 4h378q20 0 32.5 -2t12.5 -14l-2 -11l-11 -66q-1 -5 -3 -11t-11 -13l-22 -14l-6 -2q-5 0 -8 3.5t-15 34.5q-5 14 -15.5 24.5t-20.5 13.5q-3 1 -9 2.5t-42 1.5h-93l-44 -236
h201q5 0 12.5 -0.5t7.5 -7.5l-3 -10l-15 -30q-8 -17 -39 -17h-176l-34 -188q-7 -35 -7 -57q0 -29 15.5 -38.5t60.5 -9.5h54q37 0 63.5 18t52.5 61q7 11 15 11l9 -2l19 -6q11 -3 11 -9l-2 -13l-13 -67q-6 -29 -20 -37.5t-59 -8.5h-299q-31 0 -44 8.5t-13 28.5z" />
    <glyph glyph-name="F" unicode="F" horiz-adv-x="509" 
d="M-5 9l2 7l10 17q2 3 6 7.5t20 8.5q21 5 32.5 16t21.5 65l83 446l4 29q0 19 -10.5 30.5t-36.5 17.5q-10 3 -10 9l2 9l10 19q1 2 5 6t20 4h371q20 0 32 -2.5t12 -14.5l-1 -10l-12 -66q-1 -6 -3 -11.5t-12 -12.5l-19 -13l-8 -3q-2 0 -6.5 3t-12.5 26q-8 25 -21 38t-64 13
h-90l-51 -272h188q8 0 16.5 -0.5t8.5 -6.5l-4 -10l-15 -33q-2 -4 -6.5 -10t-30.5 -6h-169l-35 -185q-5 -25 -5 -42q0 -11 5 -18t34 -14q7 -2 13.5 -4t6.5 -7q0 -7 -3 -11l-12 -18q-1 -2 -5 -6t-20 -4h-213q-13 0 -20.5 1t-7.5 8z" />
    <glyph glyph-name="G" unicode="G" horiz-adv-x="716" 
d="M510 29l7 37q-37 -41 -79 -59.5t-96 -18.5q-60 0 -113 23t-92 64.5t-60.5 98t-21.5 120.5q0 102 52 199t135 151q49 32 115 50t135 18q43 0 89 -8.5t82 -23.5q16 -7 27.5 -14t11.5 -18l-2 -21l-13 -66q-1 -4 -3 -11t-8 -9l-26 -8l-8 -2q-7 0 -14 17q-23 57 -58 81.5
t-91 24.5q-101 0 -175 -84q-21 -24 -43.5 -64t-37.5 -96t-15 -109q0 -39 8.5 -81t33 -83t61.5 -61.5t75 -20.5q23 0 48.5 8.5t48.5 28.5t39.5 52t16.5 73q0 17 -7.5 32t-35.5 21q-12 3 -12 10l2 9l9 15q6 11 25 11h139q5 0 14 -1.5t9 -12.5l-2 -12l-47 -254
q-3 -16 -8.5 -25.5t-25.5 -9.5h-70q-21 0 -21 13z" />
    <glyph glyph-name="H" unicode="H" horiz-adv-x="772" 
d="M-5 9l2 7l10 17q2 3 6 7.5t20 8.5q28 7 37 20.5t17 59.5l83 447q6 32 6 41q0 11 -4.5 18.5t-33.5 15.5q-19 5 -19 10l3 10l11 19q1 2 5 6t19 4h214q15 0 22 -1t7 -7l-2 -8l-10 -17q-2 -3 -6 -7.5t-20 -8.5q-33 -8 -41 -26.5t-15 -54.5l-29 -152h279l29 158q5 30 5 41
q0 10 -5 18t-15 11l-30 8q-9 3 -9 7q0 5 4 10l12 19q1 2 5 6t20 4h212q14 0 21.5 -1t7.5 -8l-2 -7l-9 -17q-2 -3 -6 -7.5t-21 -8.5q-21 -5 -30.5 -13.5t-14.5 -26t-10 -41.5l-82 -446q-6 -32 -6 -42q0 -11 5 -18t32 -14q5 -1 12.5 -3.5t7.5 -7.5q0 -6 -3 -11l-11 -18
q-6 -10 -26 -10h-211q-14 0 -21.5 1t-7.5 8l2 7l10 17q2 3 5.5 7.5t20.5 8.5q28 7 38 21t18 59l40 223h-278l-43 -228q-5 -24 -5 -42q0 -10 5 -17t33 -15q19 -6 19 -11l-4 -12l-9 -17q-5 -10 -25 -10h-213q-14 0 -21 1t-7 8z" />
    <glyph glyph-name="I" unicode="I" horiz-adv-x="358" 
d="M-5 9l2 7l10 17q2 3 6 7.5t20 8.5q21 5 32.5 16t21.5 65l83 446q6 36 6 41q0 11 -4.5 18.5t-33.5 15.5q-19 5 -19 10l3 10l11 19q1 2 5 6t20 4h212q15 0 22 -1t7 -8l-2 -7l-10 -17q-2 -3 -6 -7.5t-19 -8.5q-21 -5 -33 -15.5t-23 -65.5l-84 -446q-5 -25 -5 -42
q0 -11 5 -18t33 -14q19 -4 19 -11l-3 -11l-11 -18q-6 -10 -25 -10h-211q-14 0 -21.5 1t-7.5 8z" />
    <glyph glyph-name="J" unicode="J" horiz-adv-x="358" 
d="M84 91l90 485q6 30 6 41q0 21 -17 28l-32 9q-8 3 -8 8l3 9l11 19q6 10 25 10h212q14 0 21 -1t7 -8l-2 -7l-10 -17q-2 -3 -5.5 -7.5t-19.5 -8.5q-21 -5 -33.5 -16t-22.5 -65l-89 -481q-24 -132 -88 -204.5t-162 -74.5l11 61q40 21 61.5 66.5t41.5 153.5z" />
    <glyph glyph-name="K" unicode="K" horiz-adv-x="641" 
d="M-5 8l2 8l10 17q2 3 6 7.5t20 8.5q21 5 32.5 16t21.5 65l83 446q6 30 6 42q0 11 -4.5 18t-33.5 15q-5 1 -12 3.5t-7 7.5l3 9l11 19q1 2 5 6t20 4h213q15 0 22 -1t7 -8l-2 -7l-10 -17q-2 -3 -6 -7.5t-20 -8.5q-33 -8 -41 -26.5t-15 -54.5l-37 -193l299 323h116l-9 -36
q-2 -8 -8.5 -16t-36.5 -25q-75 -42 -140 -113l-105 -115l153 -263q17 -30 29 -48t36 -42l-8 -42h-83q-31 0 -45.5 6.5t-26 24t-27.5 48.5l-147 281l-44 -236q-5 -26 -5 -42q0 -11 5 -18t33 -14q7 -2 13.5 -4t6.5 -7l-3 -11l-11 -18q-6 -10 -26 -10h-212q-14 0 -21 1t-7 7z
" />
    <glyph glyph-name="L" unicode="L" horiz-adv-x="528" 
d="M-5 9l2 7l10 17q2 3 5.5 7.5t20.5 8.5q21 5 32.5 16t21.5 65l83 446q6 31 6 41q0 11 -5 19t-32 15q-20 5 -20 11l3 9l11 19q1 2 5 6t20 4h213q15 0 22 -1t7 -7l-2 -8l-10 -17q-2 -3 -5.5 -7.5t-19.5 -8.5q-22 -5 -34.5 -16t-22.5 -65l-75 -406q-9 -48 -9 -63
q0 -27 13 -37.5t47 -10.5h66q35 0 60 17.5t50 58.5q8 14 17 14l8 -1l20 -7q2 -1 7.5 -3.5t5.5 -7.5l-4 -22l-10 -57q-5 -28 -21 -36.5t-64 -8.5h-394q-13 0 -20.5 1.5t-7.5 7.5z" />
    <glyph glyph-name="M" unicode="M" horiz-adv-x="885" 
d="M-4 9l2 7l10 17q2 3 6 7.5t20 8.5q28 7 36.5 20.5t17.5 60.5l88 472q-8 15 -23.5 28.5t-33.5 21.5q-12 6 -14.5 7.5t-2.5 4.5l3 9l10 16q2 3 5.5 7t21.5 4h113q33 0 48 -5.5t26 -57.5l99 -447l269 453q19 32 29 42.5t24 12.5t35 2h111q14 0 21 -1t7 -8l-2 -7l-9 -17
q-1 -3 -5 -7t-24 -9q-21 -5 -30.5 -13.5t-14.5 -26t-10 -41.5l-82 -446q-5 -30 -5 -42q0 -11 4.5 -18t31.5 -14q7 -2 13 -4t6 -7q0 -8 -3 -11l-10 -18q-6 -10 -25 -10h-204q-14 0 -21.5 1t-7.5 7l2 8l9 17q2 3 6 7.5t21 8.5q21 5 33 16t22 65l71 388l-297 -494
q-7 -12 -12 -18t-14 -6h-17q-11 0 -16 24l-108 488l-72 -388q-6 -30 -6 -42q0 -10 5 -17t33 -15q7 -2 13 -4t6 -7q0 -8 -3 -11l-11 -18q-1 -2 -5 -6t-19 -4h-143q-14 0 -21 1t-7 8z" />
    <glyph glyph-name="N" unicode="N" horiz-adv-x="735" 
d="M569 0h-56q-12 0 -23 6t-23 31l-246 519l-80 -432q-5 -26 -5 -42q0 -10 5 -17t33 -15q7 -2 13 -4t6 -8q0 -5 -3 -10l-11 -18q-6 -10 -26 -10h-142q-14 0 -21 1t-7 7l2 8l10 17q2 3 5.5 7.5t19.5 8.5q21 5 33 16t22 65l88 472q-23 38 -61 50q-14 4 -14 11l2 11l9 13
q2 3 6.5 8t19.5 5h148q17 0 29 -6t27 -38l233 -498l77 418q6 32 6 42q0 11 -4.5 18t-33.5 15q-7 2 -13.5 4t-6.5 6l3 10l11 19q6 10 26 10h140q15 0 22 -1t7 -8l-2 -7l-10 -17q-2 -3 -5.5 -7.5t-19.5 -8.5q-28 -7 -37 -20.5t-18 -60.5l-98 -528q-4 -22 -9 -32t-28 -10z" />
    <glyph glyph-name="O" unicode="O" horiz-adv-x="754" 
d="M54 279q0 89 31.5 168.5t80 131.5t101.5 81.5t104.5 40.5t91.5 11q129 0 202 -77t73 -212q0 -111 -50 -211t-144.5 -162t-207.5 -62q-64 0 -116.5 20.5t-89.5 58.5t-56.5 92t-19.5 120zM205 267q0 -105 37.5 -162.5t106.5 -57.5q45 0 85.5 24.5t70.5 71.5q35 55 58.5 143
t23.5 165q0 99 -36.5 150.5t-107.5 51.5q-50 0 -89.5 -24t-72.5 -75q-34 -53 -55 -132.5t-21 -154.5z" />
    <glyph glyph-name="P" unicode="P" horiz-adv-x="602" 
d="M-5 9l2 7l10 17q2 3 6 7.5t20 8.5q21 5 32.5 16t21.5 65l83 446l4 29q0 14 -8 27t-40 21q-10 3 -10 8q0 3 4 10l10 19q1 2 5 6t20 4h222q56 0 101.5 -4.5t82.5 -25.5q33 -18 51.5 -54.5t18.5 -83.5q0 -52 -23 -96.5t-65 -76t-100.5 -49t-127.5 -17.5l-3 15l-2 15
q0 11 19 14q70 11 112 61t42 123q0 129 -117 129h-46l-98 -526q-5 -27 -5 -42q0 -10 4.5 -17t32.5 -15q5 -2 12 -4t7 -7l-3 -11l-10 -18q-6 -10 -25 -10h-212q-14 0 -21 1t-7 8z" />
    <glyph glyph-name="Q" unicode="Q" horiz-adv-x="754" 
d="M185 23q-63 35 -97 101.5t-34 154.5q0 112 46.5 204.5t133.5 155.5q104 73 223 73q128 0 202.5 -76t74.5 -208q0 -71 -20 -139t-51.5 -114.5t-60.5 -73.5t-61 -47.5t-79 -39.5q46 -29 136 -69t130 -49l3 -29l-80 -28q-18 -7 -34 -7q-17 0 -55 24l-207 132q-43 1 -86 6.5
t-84 28.5zM204 262q0 -103 37 -159t106 -56q46 0 87.5 26.5t71.5 75.5q32 52 55 142t23 162q0 97 -37 148.5t-107 51.5q-45 0 -81.5 -20t-67.5 -63q-38 -52 -62.5 -138.5t-24.5 -169.5z" />
    <glyph glyph-name="R" unicode="R" horiz-adv-x="641" 
d="M-5 8l2 8l10 17q2 3 6 8t20 9q21 4 32.5 15t21.5 65l83 446l4 29q0 19 -10.5 30.5t-37.5 18.5q-10 3 -10 9l3 8l11 19q1 2 5 6t20 4h263q102 0 150 -38t48 -119q0 -153 -166 -219l46 -98q5 -11 18 -38.5t37 -76.5t51 -78v-33h-111q-22 0 -34.5 5t-24.5 39l-97 266h-78
l-35 -186q-5 -25 -5 -41q0 -11 5.5 -19t32.5 -14q19 -5 19 -12l-4 -10l-11 -18q-1 -2 -5 -6t-19 -4h-212q-13 0 -20.5 1t-7.5 7zM267 364h37q69 0 109 33q28 24 45.5 62.5t17.5 77.5q0 35 -13 62t-35 40q-21 12 -68 12h-40z" />
    <glyph glyph-name="S" unicode="S" horiz-adv-x="528" 
d="M37 15q-27 10 -27 28l1 10l15 115q1 5 2.5 12t9.5 10l19 6l9 1q8 0 12 -12q21 -80 48.5 -107t77.5 -27q38 0 67.5 18.5t40.5 45.5t11 51q0 46 -31 96q-13 21 -23.5 35.5t-75.5 87.5q-45 51 -64 89.5t-19 77.5q0 72 68.5 116t181.5 44q70 0 121 -15t51 -35l-2 -12l-12 -69
q-1 -5 -3 -12.5t-13 -13.5l-17 -10q-6 -4 -10 -4q-2 0 -6 2t-17 36q-16 43 -38.5 61t-59.5 18q-20 0 -43.5 -8.5t-39 -31t-15.5 -52.5q0 -38 24 -72q6 -10 9.5 -14.5t79.5 -96.5q55 -67 78 -113.5t23 -92.5q0 -31 -12.5 -64t-43 -60.5t-82 -46t-124.5 -18.5q-42 0 -90.5 7
t-80.5 20z" />
    <glyph glyph-name="T" unicode="T" horiz-adv-x="546" 
d="M88 8q0 6 3 10l10 15q2 3 5.5 7.5t19.5 8.5q21 5 33 16t22 65l94 508h-181q-35 0 -35 11q0 5 5 12l39 61q1 2 3.5 5.5t6.5 3.5q6 0 14 -7q15 -11 30 -16t40 -6.5t59 -1.5h363q8 0 15 -0.5t7 -7.5q0 -5 -3 -8l-21 -30q-4 -6 -10 -11t-38 -5h-157l-96 -514q-5 -25 -5 -42
q0 -11 4.5 -18t32.5 -14q21 -5 21 -11q0 -4 -4 -11l-11 -18q-6 -10 -26 -10h-211q-13 0 -21 1t-8 7z" />
    <glyph glyph-name="U" unicode="U" horiz-adv-x="697" 
d="M101 192q0 45 14 120l49 264q6 33 6 42q0 11 -4.5 18t-33.5 15q-7 2 -13.5 4t-6.5 7l4 9l10 19q5 10 25 10h214q15 0 22 -1t7 -8l-3 -7l-9 -17q-2 -3 -5.5 -7.5t-21.5 -8.5q-33 -8 -41 -26.5t-15 -54.5l-49 -265q-14 -76 -14 -114q0 -58 32 -90.5t90 -32.5q82 0 130 69
q13 19 26 53.5t28 113.5l50 272q5 27 5 41q0 12 -4.5 19.5t-32.5 14.5q-8 2 -14.5 4.5t-6.5 5.5q0 5 4 10l12 19q1 2 5 6t20 4h144q14 0 21.5 -1t7.5 -8l-2 -7l-9 -17q-2 -3 -5.5 -8t-21.5 -8q-21 -4 -33 -15t-22 -66l-49 -269q-18 -101 -42 -156t-65 -93q-34 -31 -83 -47.5
t-105 -16.5q-104 0 -159.5 52.5t-55.5 151.5z" />
    <glyph glyph-name="V" unicode="V" horiz-adv-x="641" 
d="M222 33l-81 530q-6 38 -13.5 58.5t-41.5 30.5q-3 1 -5.5 3t-2.5 4q0 5 3 9l10 19q2 4 5.5 8.5t21.5 4.5h206q21 0 21 -8q0 -5 -3 -10l-9 -17q-1 -3 -4.5 -7t-13.5 -8q-35 -14 -35 -40l2 -30l56 -414l218 415q10 19 14 28t4 17t-4.5 13t-24.5 16q-3 1 -5.5 3.5t-2.5 4.5
l3 11l10 14q2 3 6 7.5t18 4.5h138q5 0 12 -0.5t7 -7.5l-4 -9l-9 -17q-1 -3 -4.5 -7.5t-15.5 -8.5q-30 -11 -45.5 -33.5t-43.5 -74.5l-270 -503q-10 -20 -18 -29.5t-26 -9.5h-47q-9 0 -15.5 5t-10.5 28z" />
    <glyph glyph-name="W" unicode="W" horiz-adv-x="998" 
d="M212 43l-56 511q-6 54 -14 71.5t-33 26.5q-8 4 -8 9q0 7 4 12l9 15q2 3 6 7.5t22 4.5h188q18 0 18 -8l-2 -8l-9 -17q-3 -7 -12 -12l-20 -10q-9 -5 -15 -16.5t-6 -26.5l2 -34l36 -399l240 499q7 15 13.5 23.5t23.5 8.5h30q5 0 13.5 -2.5t10.5 -21.5l43 -507l199 415
q16 32 16 45q0 9 -4.5 13.5t-22.5 12.5q-7 3 -7 9q0 7 4 12l8 14q2 3 5 6.5t20 3.5h136q5 0 13.5 -0.5t8.5 -6.5l-4 -8l-9 -17q-4 -8 -13 -12l-19 -7q-24 -9 -36 -27t-30 -55l-265 -536q-7 -13 -15.5 -22t-25.5 -9h-37q-12 0 -20 5.5t-12 38.5l-43 450l-219 -458
q-10 -21 -20.5 -28.5t-24.5 -7.5h-35q-11 0 -19.5 6.5t-12.5 36.5z" />
    <glyph glyph-name="X" unicode="X" horiz-adv-x="622" 
d="M581 27l-9 -16q-1 -3 -6 -7t-28 -4h-220q-18 0 -18 10l2 7l8 14q2 3 6 8.5t21 10.5q31 10 31 34q0 18 -10 45l-68 168l-161 -199q-20 -24 -20 -38q0 -11 19 -19q6 -3 6 -7l-2 -9l-9 -14q-2 -3 -7 -7t-26 -4h-130q-12 0 -12 8l2 8l10 15q4 7 10 12l18 7q15 5 25.5 12
t57.5 64l193 228l-91 217q-10 23 -19 41.5t-21.5 25.5t-27.5 13q-11 5 -11 10l4 9l11 19q2 3 5.5 7t21.5 4h218q7 0 15 -0.5t8 -6.5q0 -4 -3 -9l-9 -16q-5 -9 -15 -12l-25 -9q-26 -9 -26 -28q0 -11 12 -42l51 -130l116 141q26 32 26 47q0 13 -19 21q-10 4 -10 9l4 12l9 13
q2 3 5 6.5t16 3.5h139q15 0 15 -6l-3 -8l-9 -17q-1 -3 -4 -7t-14 -8q-22 -8 -34.5 -16.5t-55.5 -60.5l-157 -188l110 -263q17 -40 31.5 -56t42.5 -23q14 -4 14 -10q0 -5 -3 -10z" />
    <glyph glyph-name="Y" unicode="Y" 
d="M101 9l2 7l10 17q2 3 5.5 7.5t19.5 8.5q21 5 33 16t22 65l27 149l-65 292q-10 44 -18.5 58.5t-31.5 24.5q-6 3 -6 8l4 12l9 16q2 3 5 6.5t20 3.5h193q20 0 20 -8l-3 -8l-9 -17q-6 -9 -12 -12l-11 -5q-28 -13 -28 -35q0 -15 5 -38l41 -238l166 247q18 27 18 40
q0 16 -26 28q-9 5 -9 11l2 6l10 18q2 3 5.5 7t21.5 4h139q4 0 10.5 -0.5t6.5 -6.5l-3 -8l-8 -14q-7 -12 -16 -16l-15 -7q-20 -10 -34.5 -23.5t-42.5 -54.5l-172 -251q-19 -28 -28.5 -45.5t-17.5 -58.5l-16 -90q-6 -34 -6 -43q0 -11 5 -18t33 -14q8 -2 14.5 -4.5t6.5 -7.5
l-4 -10l-11 -18q-6 -10 -26 -10h-207q-14 0 -21 1t-7 8z" />
    <glyph glyph-name="Z" unicode="Z" 
d="M-4 0l-17 44l478 599h-151q-51 0 -77 -16.5t-53 -67.5q-7 -14 -14 -14l-10 5l-13 10q-5 5 -5 11l2 12l14 81q3 18 9 27t34 9h439l-7 -39l-483 -602h234q26 0 44 2.5t37 15.5q13 9 27.5 25.5t23.5 32.5q8 15 16 15l5 -1l17 -8q7 -4 7 -11l-1 -10l-17 -87
q-3 -16 -9.5 -24.5t-38.5 -8.5h-491z" />
    <glyph glyph-name="bracketleft" unicode="[" horiz-adv-x="413" 
d="M276 -195h-248l172 924h248l-6 -32h-51q-49 0 -65 -5.5t-25 -18.5t-17 -56l-128 -691q-8 -46 -8 -51q0 -23 17.5 -31t68.5 -8h48z" />
    <glyph glyph-name="backslash" unicode="\" horiz-adv-x="467" 
d="M332 -108l-223 839h70l223 -839h-70z" />
    <glyph glyph-name="bracketright" unicode="]" horiz-adv-x="413" 
d="M134 -82l128 690q8 46 8 50q0 23 -17 31t-68 8h-49l6 32h248l-172 -924h-247l6 32h50q41 0 60 4.5t29 19t18 57.5z" />
    <glyph glyph-name="asciicircum" unicode="^" 
d="M20 309l254 403h58l241 -403h-83l-187 319l-200 -319h-83z" />
    <glyph glyph-name="underscore" unicode="_" horiz-adv-x="524" 
d="M28 -95h503v-75h-503v75z" />
    <glyph glyph-name="grave" unicode="`" horiz-adv-x="524" 
d="M359 548l-173 108q-18 11 -25.5 16.5t-7.5 13.5t10 15l45 32q12 9 20 9q13 0 30 -20l149 -174h-48z" />
    <glyph glyph-name="a" unicode="a" horiz-adv-x="583" 
d="M169 -12q-62 0 -103 52t-41 132q0 67 27 129t75 109.5t111 74.5t130 27q33 0 68.5 -8.5t60.5 -21.5q16 -9 25 -23t9 -28q0 -15 -9 -67l-36 -194q-10 -52 -10 -59q0 -9 4.5 -15.5t12.5 -6.5l17 2l13 3l10 1q11 0 12 -12l1 -11l1 -11q0 -2 -1.5 -6.5t-16.5 -9.5l-161 -57
q-37 8 -37 40l3 27l16 87q-84 -154 -181 -154zM222 74q26 0 56 28.5t56 75.5t42 101t16 101q0 79 -58 79q-23 0 -46 -13t-43 -36.5t-36 -55t-28 -75t-12 -94.5q0 -52 14 -81.5t39 -29.5z" />
    <glyph glyph-name="b" unicode="b" horiz-adv-x="583" 
d="M55 71q0 13 6 49l87 472q7 42 7 54q0 11 -6.5 20t-18.5 13l-14 5q-12 5 -12 11l1 8l5 18q1 3 4 7t19 4h134q27 0 27 -15l-3 -25l-52 -282q87 102 179 102q63 0 101 -48t38 -128q0 -69 -26 -133t-72.5 -112.5t-108 -75.5t-127.5 -27q-34 0 -70.5 7.5t-61.5 20.5
q-14 7 -25 19t-11 36zM189 125q0 -38 16.5 -58t48.5 -20q30 0 59 21.5t51.5 59t35.5 86t13 98.5q0 27 -5.5 55.5t-22 47t-39.5 18.5q-29 0 -55.5 -23.5t-48.5 -66.5t-37.5 -107.5t-15.5 -110.5z" />
    <glyph glyph-name="c" unicode="c" horiz-adv-x="451" 
d="M27 190q0 63 27 122t74 104t108.5 70.5t126.5 25.5q105 0 105 -34l-2 -19l-10 -60q-2 -14 -10 -19l-13 -7l-6 -1q-2 0 -5.5 1.5t-12.5 19.5q-13 26 -27 42t-46 16t-62.5 -19t-53.5 -53t-36 -78.5t-13 -91.5q0 -68 26.5 -106.5t73.5 -38.5q24 0 51 10t43 25q11 11 15 11
l7 -3l5 -4q7 -6 7 -11l-2 -11l-5 -20q-5 -23 -24 -33q-34 -18 -74.5 -29t-74.5 -11q-85 0 -138.5 56t-53.5 146z" />
    <glyph glyph-name="d" unicode="d" horiz-adv-x="583" 
d="M170 -12q-62 0 -103.5 53t-41.5 132q0 65 26 126.5t71.5 109t104.5 74.5t122 27q10 0 23.5 -1.5t43.5 -11.5l17 95q8 48 8 54q0 11 -6.5 20t-18.5 13l-15 5q-3 1 -8 3.5t-5 8.5l2 10l5 15q1 3 4 7t19 4h139q12 0 20 -2.5t8 -12.5l-3 -23l-105 -559l-3 -24q0 -9 5 -15.5
t12 -6.5l17 2l14 3l10 1q11 0 12 -12l1 -9l1 -13q0 -9 -18 -16l-157 -57q-14 3 -25 10.5t-11 25.5l3 26l19 96q-85 -158 -187 -158zM223 74q34 0 76.5 48t69.5 124t27 138q0 74 -62 74q-56 0 -103 -66q-29 -40 -46 -97.5t-17 -111.5q0 -23 4.5 -49t18 -43t32.5 -17z" />
    <glyph glyph-name="e" unicode="e" horiz-adv-x="470" 
d="M30 201q0 62 23.5 119t65.5 100t97.5 67.5t115.5 24.5q30 0 63.5 -10t55 -37.5t21.5 -64.5q0 -46 -32.5 -82t-102.5 -58.5t-163 -25.5l-2 -31q0 -62 29 -100.5t77 -38.5q25 0 54 10t50 25q9 7 13 7l8 -4l6 -5q4 -3 4 -8l-2 -13l-6 -20l-5 -12.5t-12 -13.5
q-33 -19 -77 -30.5t-85 -11.5q-90 0 -143 57t-53 156zM182 293q85 0 136 29.5t51 77.5q0 24 -15 39.5t-37 15.5q-32 0 -60 -23.5t-46 -62t-29 -76.5z" />
    <glyph glyph-name="f" unicode="f" horiz-adv-x="358" 
d="M53 0l83 450h-91l9 50h91q55 232 260 232q50 0 79.5 -10t30.5 -27l-1 -11l-14 -55q-1 -4 -3 -10t-10 -8l-13 -3l-7 -1q-6 0 -14 14q-35 55 -73 55t-61.5 -39t-43.5 -137h147l-6 -30l-22 -20h-128l-83 -450h-130z" />
    <glyph glyph-name="g" unicode="g" horiz-adv-x="564" 
d="M28 -104q2 0 5 -1t24 -16q23 -18 56 -30.5t61 -12.5q60 0 95.5 44.5t53.5 141.5l22 120q-15 -32 -31.5 -58t-44.5 -51q-22 -19 -48.5 -32t-51.5 -13q-29 0 -61.5 17.5t-56 63.5t-23.5 104q0 65 27 127t74.5 110t109 75t125.5 27q32 0 70 -8.5t62 -23.5q14 -8 21.5 -21.5
t7.5 -27.5q0 -17 -6 -46l-45 -243q-22 -120 -47 -193t-75 -124q-72 -73 -176 -73q-36 0 -77 11.5t-76 30.5q-30 17 -30 31l2 11l18 45q5 15 15 15zM222 74q25 0 54.5 29t55 76.5t41 102t15.5 100.5q0 38 -15 57.5t-43 19.5q-29 0 -57.5 -23.5t-51 -63.5t-35.5 -91t-13 -103
q0 -49 13 -76.5t36 -27.5z" />
    <glyph glyph-name="h" unicode="h" horiz-adv-x="602" 
d="M40 0l109 592q8 41 8 54q0 11 -6.5 20t-18.5 13l-14 5q-13 5 -13 12l2 7l5 18q1 3 4 7t18 4h144q25 0 25 -14l-1 -11l-60 -323q45 66 92 97t102 31q52 0 80.5 -28.5t28.5 -80.5q0 -19 -10 -74l-29 -159q-9 -51 -9 -59q0 -9 4.5 -15.5t11.5 -6.5l18 2l10 2l13 2
q10 0 11 -12l1 -8l1 -14q0 -2 -1.5 -6.5t-15.5 -9.5l-167 -57q-31 9 -31 36q0 14 5 44l36 193q14 75 14 110q0 60 -43 60q-23 0 -50.5 -21t-50.5 -58q-22 -34 -36 -78t-28 -121l-28 -153h-131z" />
    <glyph glyph-name="i" unicode="i" horiz-adv-x="283" 
d="M201 574q-29 0 -48.5 19.5t-19.5 48.5q0 16 8 35.5t29 33t46 13.5q29 0 48 -18.5t19 -46.5q0 -35 -24 -60t-58 -25zM47 24l4 35l56 301q7 40 7 52q0 25 -26 34l-14 5q-3 1 -8 3.5t-5 7.5l2 7l5 20q2 11 22 11h150q20 0 20 -11l-2 -17l-56 -302q-9 -50 -9 -59t4.5 -15.5
t11.5 -6.5l15 2l16 3l10 1q10 0 11 -12l1 -9l1 -13q0 -10 -17 -16l-167 -57q-18 5 -25 13.5t-7 22.5z" />
    <glyph glyph-name="j" unicode="j" horiz-adv-x="301" 
d="M205 574q-30 0 -49.5 19.5t-19.5 49.5q0 35 24.5 58.5t59.5 23.5q29 0 48 -18.5t19 -46.5q0 -36 -24 -61t-58 -25zM47 0l66 360q8 42 8 54q0 11 -7 19.5t-20 12.5l-14 5q-12 4 -12 11l1 7l6 20q3 11 23 11h148q5 0 12.5 -1t7.5 -11l-3 -25l-81 -434q-23 -123 -82 -194.5
t-152 -83.5l10 56q36 25 54.5 64.5t34.5 128.5z" />
    <glyph glyph-name="k" unicode="k" horiz-adv-x="526" 
d="M337 312l69 -120q4 -8 15.5 -27.5t36 -60.5t49.5 -71l-16 -33h-76q-19 0 -32.5 3.5t-27.5 25t-54 97.5l-79 153l-52 -279h-130l109 592q8 43 8 55q0 10 -6.5 19t-18.5 13l-14 5q-3 1 -8 3t-5 8l2 9l5 17q1 3 4 7t18 4h148q21 0 21 -16l-3 -16l-72 -391q37 29 91.5 86.5
t89.5 104.5h132l-8 -42q-25 -9 -46.5 -21.5t-72.5 -57.5z" />
    <glyph glyph-name="l" unicode="l" horiz-adv-x="301" 
d="M47 23q0 19 4 38l98 531q8 44 8 54q0 11 -6.5 20t-18.5 13l-14 5q-3 1 -8 3.5t-5 7.5l1 7l6 19q1 3 4 7t18 4h144q25 0 25 -16l-2 -15l-99 -531q-9 -49 -9 -58q0 -10 4.5 -16.5t11.5 -6.5l12 1l15 3l13 2q10 0 11 -12l1 -9l1 -13q0 -3 -1 -7t-16 -9l-166 -57
q-32 10 -32 35z" />
    <glyph glyph-name="m" unicode="m" horiz-adv-x="884" 
d="M40 0l66 358q8 43 8 53q0 21 -26 32l-14 6q-3 1 -7.5 3.5t-4.5 8.5l1 8l6 20q3 11 22 11h148q21 0 21 -12l-2 -16l-16 -85q45 67 88 96t97 29q53 0 80.5 -31t28.5 -92q41 63 86 93t99 30q48 0 77 -29t29 -78q0 -27 -18 -123l-21 -112q-9 -47 -9 -59q0 -9 4.5 -15.5
t11.5 -6.5l18 2l13 3l10 1q10 0 11 -12l1 -9l1 -13q0 -2 -1.5 -6.5t-15.5 -9.5l-166 -57q-13 4 -22.5 11.5t-9.5 27.5q0 15 3 28l40 214q15 83 15 112q0 50 -44 50q-55 0 -99 -87q-16 -31 -29.5 -73t-38.5 -169l-20 -102h-127l51 272q15 82 15 107q0 52 -43 52
q-53 0 -97 -82q-16 -30 -32 -77t-40 -177l-18 -95h-130z" />
    <glyph glyph-name="n" unicode="n" horiz-adv-x="602" 
d="M40 0l67 360q7 36 7 53q0 24 -26 33l-14 5q-12 4 -12 11l1 7l6 20q1 3 4 7t18 4h145q24 0 24 -11l-2 -15l-16 -88q18 25 34.5 44.5t39.5 37.5q25 18 58 31t66 13q48 0 76 -29t28 -78q0 -17 -1.5 -31t-9.5 -56l-27 -148q-9 -49 -9 -58q0 -10 4 -16.5t11 -6.5l19 2l9 2
l14 2q10 0 11 -12l1 -9l1 -12q0 -3 -1.5 -7.5t-15.5 -9.5l-166 -57q-13 5 -22.5 13t-9.5 26q0 14 3 29l43 234q11 56 11 82q0 27 -11.5 43t-31.5 16q-51 0 -104 -84q-18 -29 -33 -68.5t-37 -158.5l-22 -120h-130z" />
    <glyph glyph-name="o" unicode="o" horiz-adv-x="565" 
d="M30 200q0 51 18.5 103t47 88.5t53.5 56.5q79 64 183 64q91 0 146.5 -57.5t55.5 -151.5q0 -63 -23 -121t-64 -101.5t-96 -68t-114 -24.5q-92 0 -149.5 59t-57.5 153zM172 191q0 -32 7 -66t27 -55.5t48 -21.5q33 0 60.5 26.5t46.5 74.5q15 37 24 88t9 91q0 44 -11.5 74
t-30 40.5t-36.5 10.5q-61 0 -104 -85q-20 -41 -30 -88.5t-10 -88.5z" />
    <glyph glyph-name="p" unicode="p" horiz-adv-x="583" 
d="M167 12l-23 -121q-8 -41 -8 -54q0 -20 26 -31l14 -6q3 -2 8 -4t5 -7l-2 -9l-5 -18q-2 -11 -23 -11h-132q-17 0 -22.5 4.5t-5.5 14.5l2 17l106 573q8 42 8 53q0 24 -26 33l-14 5q-3 1 -8 3.5t-5 7.5l3 13l4 14q1 3 4 7t18 4h140q13 0 17.5 -3.5t4.5 -11.5l-2 -18l-12 -64
q96 109 187 109q60 0 96.5 -48.5t36.5 -126.5q0 -65 -25 -128.5t-68 -112.5t-98.5 -77t-112.5 -28q-9 0 -28.5 2t-59.5 19zM194 126q0 -78 64 -78q22 0 47.5 15t50 49.5t42.5 87.5t18 116q0 54 -18.5 85.5t-49.5 31.5q-29 0 -58 -26.5t-48 -70.5q-21 -47 -34.5 -106.5
t-13.5 -103.5z" />
    <glyph glyph-name="q" unicode="q" horiz-adv-x="565" 
d="M169 -12q-45 0 -80 30.5t-48.5 73.5t-13.5 83q0 63 28.5 124.5t77.5 109.5t112 75.5t128 27.5q33 0 70.5 -10t63.5 -27q23 -16 23 -44q0 -14 -7 -50l-90 -490q-8 -45 -8 -54q0 -21 25 -31l14 -6q3 -2 8 -4t5 -7l-1 -7l-6 -20q-3 -11 -20 -11h-135q-28 0 -28 19l4 21
l65 352q-19 -35 -47.5 -72.5t-65.5 -60t-74 -22.5zM227 74q30 0 61.5 31.5t59.5 88.5q22 47 35.5 96.5t13.5 88.5t-15 59.5t-43 20.5q-31 0 -62 -22.5t-54.5 -61t-37.5 -87.5t-14 -100q0 -53 15 -83.5t41 -30.5z" />
    <glyph glyph-name="r" unicode="r" horiz-adv-x="413" 
d="M40 0l67 360q7 38 7 52q0 25 -26 34l-14 5q-12 4 -12 11l1 7l6 20q3 11 22 11h148q20 0 20 -12l-2 -12l-16 -88q37 57 78 90.5t75 33.5q13 0 22.5 -6.5t14.5 -25.5l10 -34q5 -15 5 -19q0 -8 -9 -17l-28 -28q-7 -7 -11 -7q-6 0 -18 7q-23 13 -50 13q-25 0 -47 -14t-35 -38
t-22.5 -56.5t-21.5 -100.5l-34 -186h-130z" />
    <glyph glyph-name="s" unicode="s" horiz-adv-x="433" 
d="M16 18l-11 66l-2 20q0 7 9 13l28 17q11 6 13 6q5 0 11 -10l23 -39q7 -12 18.5 -24t27 -19t32.5 -7q34 0 57 23.5t23 56.5q0 19 -10.5 40.5t-59.5 65.5q-44 38 -64.5 62.5t-26 44t-5.5 37.5q0 39 23.5 69.5t71 51t116.5 20.5q26 0 59 -4t52 -11q21 -7 21 -20l-2 -13
l-17 -63q-1 -4 -4 -10.5t-14 -6.5h-21q-14 0 -17 14q-13 66 -72 66q-29 0 -48 -16.5t-19 -42.5q0 -25 25 -50q16 -16 58 -54q87 -78 87 -153q0 -33 -15.5 -64t-41.5 -49q-29 -21 -74.5 -34t-90.5 -13q-69 0 -140 30z" />
    <glyph glyph-name="t" unicode="t" horiz-adv-x="358" 
d="M69 88q0 6 0.5 19t11.5 72l50 271h-73l9 50h73l18 100l65 30q42 19 56 19q7 0 11.5 -4.5t4.5 -11.5q0 -10 -7 -45l-17 -88h125l-5 -29l-22 -21h-107l-51 -273q-9 -46 -9 -62q0 -47 44 -47q26 0 58 14l9 2q7 0 9 -7l7 -20l1 -8q0 -7 -22.5 -20.5t-69 -27t-77.5 -13.5
q-43 0 -67.5 26.5t-24.5 73.5z" />
    <glyph glyph-name="u" unicode="u" horiz-adv-x="602" 
d="M60 107q0 14 1.5 30t14.5 85l26 138q7 35 7 53q0 22 -26 33l-13 5q-3 1 -8 3.5t-5 7.5l1 7l6 20q3 11 22 11h146q22 0 22 -15l-2 -18l-44 -237q-11 -60 -11 -90q0 -26 12 -40.5t33 -14.5q23 0 49.5 21.5t48.5 58.5q42 68 69 208l25 127h130l-61 -330q-9 -46 -9 -59
q0 -9 4.5 -15.5t11.5 -6.5l16 2l10 2l15 2q10 0 11 -12l1 -9l1 -13q0 -2 -1.5 -6.5t-15.5 -9.5l-165 -57q-35 9 -35 36q0 7 6 37l13 72q-17 -28 -34 -50.5t-46 -45.5q-28 -23 -61 -36t-64 -13q-21 0 -45 10.5t-40 39.5t-16 69z" />
    <glyph glyph-name="v" unicode="v" horiz-adv-x="472" 
d="M139 0l-47 324q-9 66 -17.5 86t-34.5 32q-12 6 -12 12l3 10l14 23q3 5 6.5 9t21.5 4h135l39 -364l102 163q43 67 43 114l-4 50v15q0 18 16 22l38 8l12 2q9 0 14 -10l17 -39q8 -18 8 -25q0 -31 -50 -107l-215 -329h-89z" />
    <glyph glyph-name="w" unicode="w" horiz-adv-x="715" 
d="M130 0l-31 333q-6 61 -15.5 80.5t-40.5 31.5q-3 1 -5.5 4t-2.5 5l3 10l13 23q2 4 6 8.5t21 4.5h136l18 -333q71 131 106.5 205t53.5 128h92l32 -333l82 145q16 28 26.5 53t10.5 55l-3 56v9q0 3 1.5 7.5t14.5 7.5l31 8l12 2q9 0 15 -13l16 -35q6 -13 6 -23
q0 -12 -10.5 -37t-56.5 -104l-176 -298h-74l-28 335l-177 -335h-76z" />
    <glyph glyph-name="x" unicode="x" horiz-adv-x="470" 
d="M17 0h-44q-15 0 -15 12l3 19l4 21q1 5 5 11t10 7l18 4q21 5 35.5 14t29.5 25.5t34 39.5l81 97l-35 127q-10 38 -19.5 49.5t-40.5 22.5q-14 6 -14 12l3 9l10 19q1 3 5 7t19 4h147l38 -175l37 48q35 46 39.5 54t7 18t4.5 26t5 21.5t11 7.5l38 10l9 2q9 0 14 -12l14 -31
q4 -8 4 -13q0 -11 -13 -25l-153 -169l29 -116q9 -37 20.5 -59t47.5 -32q5 -1 13 -4t8 -9l-2 -7l-8 -22q-5 -13 -23 -13h-157l-40 185l-89 -116q-11 -14 -29 -33.5t-28 -26.5q-12 -9 -33 -9z" />
    <glyph glyph-name="y" unicode="y" horiz-adv-x="470" 
d="M83 -98l63 100l-57 336q-10 58 -18 75t-35 30q-12 6 -12 11q0 6 3 10l14 23q2 4 6 8.5t21 4.5h142l39 -364l97 158q19 30 33 60.5t14 59.5l-3 60v6q0 4 2 10.5t16 9.5l35 8l13 2q8 0 14 -12l18 -38q7 -14 7 -25q0 -12 -6.5 -28t-54.5 -89l-315 -481q-36 -55 -54 -70.5
t-45 -15.5h-49q-12 0 -18 3t-8 11l-8 32l-2 11q0 9 17 13l41 9q24 5 43 16.5t47 55.5z" />
    <glyph glyph-name="z" unicode="z" horiz-adv-x="451" 
d="M-15 0l-6 39l335 408h-79q-34 0 -58.5 -8.5t-70.5 -66.5q-6 -9 -13 -9q-6 1 -8 4l-8 9q-4 4 -4 10l4 23l12 64q2 12 7 19.5t24 7.5h346l-8 -48l-322 -393h116q58 0 84 20.5t45 50.5q8 12 14 12l7 -2l10 -5q7 -3 7 -8l-1 -11l-17 -83q-4 -18 -16.5 -25.5t-39.5 -7.5h-360z
" />
    <glyph glyph-name="braceleft" unicode="{" horiz-adv-x="358" 
d="M60 -13l26 138q9 45 9 70q0 15 -5.5 31t-13.5 23q-10 9 -37 18q41 15 56.5 30.5t24.5 39.5t23 96l27 143q17 91 59.5 122.5t152.5 34.5l-6 -30q-35 -1 -53 -10.5t-29.5 -35t-23.5 -94.5l-25 -138q-14 -79 -37 -111t-77 -47q35 -10 50 -27.5t15 -47.5q0 -34 -12 -97
l-27 -139q-8 -43 -8 -71t14.5 -39t51.5 -11l-6 -31q-39 1 -63 2.5t-43 8.5q-53 19 -53 76q0 46 10 96z" />
    <glyph glyph-name="bar" unicode="|" horiz-adv-x="390" 
d="M178 -251v963h82v-963h-82z" />
    <glyph glyph-name="braceright" unicode="}" horiz-adv-x="358" 
d="M92 -24l26 138q12 62 27 92t38 43.5t49 20.5q-36 13 -50 30.5t-14 51.5q0 36 11 91l26 139q7 39 7 71q0 28 -13.5 38.5t-51.5 11.5l6 30q37 0 62.5 -1.5t44.5 -8.5q53 -19 53 -74q0 -42 -10 -97l-27 -139q-8 -43 -8 -70q0 -17 5.5 -31.5t13.5 -21.5q8 -8 37 -20
q-42 -15 -57.5 -30t-25 -39t-22.5 -96l-26 -143q-16 -91 -59 -123t-153 -35l6 31q35 1 52.5 10.5t28.5 35t24 95.5z" />
    <glyph glyph-name="asciitilde" unicode="~" 
d="M109 189l-51 35q40 60 73 83t68 23q36 0 104 -34q57 -29 70 -32.5t21 -3.5q18 0 35.5 13t46.5 56l56 -35q-20 -34 -43.5 -59.5t-47.5 -36t-43 -10.5q-14 0 -35.5 5t-66.5 29q-66 35 -99 35q-44 0 -88 -68z" />
    <glyph glyph-name="uni00A0" unicode="&#xa0;" horiz-adv-x="262" 
 />
    <glyph glyph-name="exclamdown" unicode="&#xa1;" horiz-adv-x="396" 
d="M228 362q-29 0 -47 18t-18 47q0 38 25.5 63.5t63.5 25.5q29 0 47 -18.5t18 -48.5q0 -37 -25.5 -62t-63.5 -25zM38 -173q33 75 76 213t72 259h57q-21 -123 -40.5 -269t-22.5 -214q-1 -14 -2.5 -22.5t-9.5 -13.5q-19 -13 -77 -13q-68 0 -68 22q0 2 1 5.5t6 14.5t8 18z" />
    <glyph glyph-name="cent" unicode="&#xa2;" 
d="M196 -16l45 118q-71 21 -106 67.5t-35 120.5q0 82 45.5 156.5t123.5 118.5q29 17 67.5 30t98.5 15l31 82h49l-31 -82q29 -3 48 -9t19 -23l-3 -23l-10 -50q-3 -15 -12 -19l-11 -8l-10 -3q-7 0 -10 11q-7 19 -13.5 31.5t-24.5 22.5l-141 -371q19 -6 36 -6q20 0 42 7.5
t40 20.5q16 12 22 12l6 -1l7 -3q4 -2 4 -6l-2 -21l-2 -10q-6 -26 -38 -42q-27 -13 -61 -21t-64 -8l-20 1l-41 -108h-49zM276 192l135 358q-85 -9 -136 -103q-16 -30 -26 -70t-10 -73q0 -27 6.5 -55.5t30.5 -56.5z" />
    <glyph glyph-name="sterling" unicode="&#xa3;" 
d="M-23 0l6 30q57 29 92 86.5t76 194.5l10 33h-99l10 55h105l13 44q37 127 117.5 198t187.5 71q28 0 59.5 -6.5t48.5 -17.5t18 -37l2 -36l1 -21q0 -12 -17 -13l-18 -2l-19 -2q-10 0 -17 15q-13 30 -29 51.5t-43 21.5q-79 0 -128 -170l-28 -96h138l-10 -55h-147l-10 -35
q-22 -75 -54 -123.5t-91 -98.5q28 8 53 13.5t60 5.5q29 0 106 -14q47 -9 66 -9q25 0 39.5 13.5t14.5 36.5l-1 12l-3 19l-2 18q0 10 13 16l30 14q12 6 15 6q8 0 13 -15l13 -38q4 -11 4 -23q0 -20 -60 -79q-37 -36 -66.5 -55.5t-46.5 -19.5q-9 0 -76 11q-99 17 -187 17
q-22 0 -56 -1.5t-103 -14.5z" />
    <glyph glyph-name="currency" unicode="&#xa4;" horiz-adv-x="655" 
d="M136 112l-62 63l69 66q-16 26 -25 57t-9 56q0 26 8.5 57t25.5 56l-69 67l62 63l69 -68q25 17 56.5 25.5t58.5 8.5t59.5 -9t55.5 -25q24 22 69 68l62 -63l-70 -67q19 -28 27 -58.5t8 -54.5q0 -25 -9 -55.5t-26 -57.5q24 -21 70 -66l-62 -63l-69 68q-24 -16 -55.5 -25
t-59.5 -9q-26 0 -57 8t-58 26zM320 233q23 0 51.5 12t49.5 43t21 67q0 26 -13.5 53.5t-44 47t-64.5 19.5q-37 0 -68 -20.5t-43 -48.5t-12 -51q0 -24 12 -52t43 -49t68 -21z" />
    <glyph glyph-name="yen" unicode="&#xa5;" 
d="M91 9l2 7l9 17q2 3 5.5 7.5t20.5 8.5q21 5 33 15.5t22 65.5l24 130h-169l8 46h159l-14 71h-132l9 46h114l-28 148q-6 31 -15 51t-37 32q-6 3 -6 9l3 7l10 20q1 3 4.5 6.5t21.5 3.5h191q23 0 23 -7q0 -4 -3 -9l-11 -18q-3 -5 -10 -12l-14 -6q-27 -12 -27 -36l5 -41
l32 -241l160 256q10 16 14 24t4 18q0 3 -2.5 9.5t-23.5 17.5q-10 5 -10 10l2 6l10 18q2 3 5.5 7t21.5 4h139q4 0 10.5 -0.5t6.5 -6.5l-2 -7l-9 -17q-3 -6 -7 -11t-23 -11q-15 -5 -32 -18t-46 -59l-93 -147h107l-9 -46h-128l-46 -71h160l-8 -46h-179q-9 -23 -13 -45l-17 -91
q-5 -24 -5 -42q0 -10 5 -17t34 -15q5 -2 12 -4t7 -7l-3 -11l-11 -18q-6 -10 -27 -10h-206q-14 0 -21 1t-7 8z" />
    <glyph glyph-name="brokenbar" unicode="&#xa6;" horiz-adv-x="390" 
d="M166 362v370h82v-370h-82zM166 178h82v-370h-82v370z" />
    <glyph glyph-name="section" unicode="&#xa7;" 
d="M42 -31l31 13l13 4q2 0 5.5 -1.5t32.5 -37.5q45 -58 94 -58q34 0 57 19.5t23 48.5q0 6 -1.5 17.5t-14.5 33t-143 154.5q-39 39 -54 67.5t-15 62.5q0 62 43 98t119 36l51 -3q-57 45 -80.5 79t-23.5 72q0 30 14 57t38 42q29 19 68.5 29t73.5 10q60 0 127 -27l23 -66
q4 -11 4 -16q0 -4 -3.5 -8t-7.5 -5l-29 -11q-7 -3 -14 -3q-9 0 -17 12q-11 16 -21 30t-27 31q-21 21 -48 21q-24 0 -41.5 -18.5t-17.5 -44.5q0 -13 6.5 -30.5t17.5 -30.5q9 -12 18.5 -22.5t76.5 -80.5q50 -52 76.5 -88.5t26.5 -81.5q0 -60 -48 -96.5t-125 -36.5l-35 1
q60 -47 83 -78.5t23 -68.5q0 -64 -61.5 -105.5t-157.5 -41.5q-68 0 -141 24l-25 65q-6 14 -6 16q0 4 4 10t8 7zM246 227q19 -20 38.5 -34.5t44.5 -14.5q30 0 51 20.5t21 50.5q0 15 -6.5 30.5t-40.5 54.5q-26 30 -45.5 41.5t-43.5 11.5q-32 0 -52.5 -19.5t-20.5 -48.5
q0 -15 8.5 -33.5t45.5 -58.5z" />
    <glyph glyph-name="dieresis" unicode="&#xa8;" horiz-adv-x="524" 
d="M422 573q-21 0 -35 14t-14 35q0 27 20.5 48.5t47.5 21.5q22 0 36.5 -14t14.5 -35q0 -28 -21 -49t-49 -21zM219 572q-21 0 -35.5 14t-14.5 35q0 26 22 48t49 22q21 0 34.5 -13.5t13.5 -35.5q0 -29 -20.5 -49.5t-48.5 -20.5z" />
    <glyph glyph-name="copyright" unicode="&#xa9;" horiz-adv-x="796" 
d="M53 348q0 74 28.5 141.5t79 118t118.5 78.5t143 28q71 0 136 -28.5t114.5 -79.5t77.5 -118t28 -139q0 -73 -28 -139.5t-78 -117t-116.5 -78.5t-138.5 -28t-139 28.5t-117.5 78.5t-79 116.5t-28.5 138.5zM99 348q0 -64 25 -123.5t69 -104t102.5 -69.5t121.5 -25t121 25
t101.5 69.5t68 104t24.5 124.5q0 31 -8 71t-30 82t-54 75.5t-72 56.5t-78.5 31.5t-68.5 8.5q-65 0 -124.5 -25t-103.5 -70t-65.5 -96.5t-25 -86.5t-3.5 -48zM209 349q0 34 10 66t29 58t45 46t64.5 34.5t87.5 14.5q32 0 69 -8t61 -20q15 -7 15 -21v-32q0 -3 -0.5 -8t-7.5 -10
l-11 -8l-6 -3q-6 0 -19 18q-14 19 -36.5 33.5t-65.5 14.5q-64 0 -100.5 -43t-36.5 -119q0 -81 42.5 -130.5t111.5 -49.5q21 0 44.5 6t57.5 33q8 7 14 7t11 -5t5 -10q0 -3 -5 -13l-18 -37q-6 -14 -20 -19q-33 -11 -90 -11q-112 0 -181.5 60t-69.5 156z" />
    <glyph glyph-name="ordfeminine" unicode="&#xaa;" horiz-adv-x="376" 
d="M149 396q-21 0 -44.5 12t-38.5 40.5t-15 61.5q0 43 19 81t51 65t73 41.5t83 14.5q23 0 52 -6t45 -18.5t16 -27.5q0 -8 -5 -38l-21 -115q-6 -30 -6 -34q0 -5 2 -7.5t9 -2.5l22 4q7 0 10 -8t3 -16q0 -9 -15 -13l-107 -34q-13 2 -21 9t-8 20q0 7 8 47q-55 -76 -112 -76z
M184 454q16 0 33.5 16t34 46.5t23.5 53.5q10 32 10 59q0 46 -34 46q-29 0 -50.5 -23.5t-35.5 -61.5t-14 -71q0 -31 9.5 -48t23.5 -17z" />
    <glyph glyph-name="guillemotleft" unicode="&#xab;" horiz-adv-x="470" 
d="M218 238l203 159q8 6 19 12.5t14 6.5q4 0 7 -3t3 -7q0 -11 -43.5 -68.5t-83.5 -99.5q20 -44 38 -96t18 -67q0 -6 -3.5 -10.5t-9.5 -4.5q-10 0 -25 18zM168 78l-138 160l203 159q8 7 19 13t15 6q3 0 6 -3t3 -7q0 -11 -44 -69t-83 -99q20 -44 38.5 -96.5t18.5 -66.5
q0 -6 -4 -10.5t-9 -4.5q-10 0 -25 18z" />
    <glyph glyph-name="logicalnot" unicode="&#xac;" 
d="M49 313v78h514v-286h-82v208h-432z" />
    <glyph glyph-name="uni00AD" unicode="&#xad;" horiz-adv-x="338" 
d="M24 214l15 79h274l-14 -79h-275z" />
    <glyph glyph-name="registered" unicode="&#xae;" horiz-adv-x="427" 
d="M307 411q-37 0 -71 14.5t-59 40t-39.5 59.5t-14.5 71q0 48 24.5 92.5t69.5 68.5t93 24q27 0 57 -9.5t60.5 -36t46.5 -64.5t16 -75t-12.5 -67t-32.5 -54t-56 -44t-82 -20zM307 442q60 0 103.5 45t43.5 108q0 65 -43.5 110.5t-105.5 45.5q-36 0 -71.5 -20.5t-55 -58
t-19.5 -75.5q0 -23 8 -49t26.5 -49.5t47.5 -40t66 -16.5zM234 500v200h71q20 0 33 -1.5t25 -9.5q11 -7 17.5 -19.5t6.5 -25.5q0 -17 -8.5 -32.5t-26.5 -23.5l41 -83l-50 -9l-36 82h-25v-78h-48zM282 615h20q14 0 22.5 7t8.5 22q0 22 -31 22h-20v-51z" />
    <glyph glyph-name="macron" unicode="&#xaf;" horiz-adv-x="524" 
d="M167 597l10 68h320l-10 -68h-320z" />
    <glyph glyph-name="degree" unicode="&#xb0;" horiz-adv-x="373" 
d="M234 445q-61 0 -104.5 43t-43.5 103q0 37 20.5 72.5t57.5 55t74 19.5q44 0 78 -25t48.5 -58.5t14.5 -63.5q0 -36 -15.5 -65t-37.5 -47t-46.5 -26t-45.5 -8zM234 507q34 0 57 24.5t23 59.5q0 15 -7.5 35t-27 35t-43.5 15q-34 0 -59.5 -25.5t-25.5 -59.5t24.5 -59t58.5 -25
z" />
    <glyph glyph-name="plusminus" unicode="&#xb1;" 
d="M269 100v216h-215v77h215v218h82v-218h216v-77h-216v-216h-82zM54 -16v79h513v-79h-513z" />
    <glyph glyph-name="uni00B2" unicode="&#xb2;" horiz-adv-x="398" 
d="M60 444l11 53q81 63 125.5 102.5t76.5 75.5q51 57 51 104q0 20 -10.5 32t-28.5 12q-17 0 -31.5 -10.5t-30.5 -33.5l-17 -25q-6 -9 -17 -9l-12 3l-14 6q-11 6 -11 13l2 15l6 29q2 14 22 28q56 40 130 40q56 0 92.5 -27t36.5 -68q0 -49 -58 -107q-13 -13 -44 -37l-55 -45
l-97 -81h83q21 0 33 3.5t38 33.5l14 16q11 11 18 11q6 0 12 -3l18 -9q8 -3 8 -10q0 -4 -7 -15l-37 -67q-9 -17 -16 -23.5t-42 -6.5h-249z" />
    <glyph glyph-name="uni00B3" unicode="&#xb3;" horiz-adv-x="398" 
d="M93 469l-6 41l-2 17q0 8 11 13l21 11q10 5 16 5q9 0 15 -13l13 -25q8 -16 22.5 -25.5t31.5 -9.5q31 0 53.5 23.5t22.5 56.5q0 68 -109 78l7 40q62 10 97 37t35 65q0 20 -11.5 32t-29.5 12q-31 0 -58 -38l-11 -15q-7 -11 -17 -11q-8 0 -14 3l-10 5q-13 6 -13 12l2 15l4 21
q3 15 25 29q23 14 54.5 22.5t61.5 8.5q44 0 74.5 -13.5t41.5 -35t11 -41.5q0 -23 -13 -46t-42.5 -42t-67.5 -32q29 -8 53 -24t34 -36.5t10 -38.5q0 -57 -54.5 -95t-136.5 -38q-69 0 -121 32z" />
    <glyph glyph-name="acute" unicode="&#xb4;" horiz-adv-x="524" 
d="M205 548l196 174q22 20 35 20q9 0 18 -9l36 -32q5 -5 5 -11q0 -8 -7.5 -14.5t-31.5 -19.5l-203 -108h-48z" />
    <glyph glyph-name="mu" unicode="&#xb5;" horiz-adv-x="602" 
d="M103 14q-11 -82 -14.5 -112.5t-5.5 -67.5q-1 -21 -10.5 -32t-67.5 -11q-60 0 -60 19q0 2 0.5 3.5t12.5 30.5q33 77 70.5 199.5t48.5 178.5l26 138q7 34 7 53q0 24 -26 33l-14 5q-3 1 -7.5 3t-4.5 8l1 7l5 20q3 11 22 11h147q22 0 22 -15l-2 -18l-44 -237q-11 -61 -11 -90
q0 -26 12 -40.5t33 -14.5q23 0 49.5 21.5t48.5 58.5q43 71 69 208l24 127h131l-62 -330q-8 -44 -8 -59q0 -9 4.5 -15.5t11.5 -6.5l16 2l14 3l10 1q10 0 11 -12l1 -9l1 -13q0 -3 -1.5 -7t-15.5 -9l-165 -57q-34 9 -34 36q0 14 5 37l13 72q-35 -61 -79 -96q-62 -49 -126 -49
q-40 0 -58 26z" />
    <glyph glyph-name="paragraph" unicode="&#xb6;" horiz-adv-x="596" 
d="M83 -137q48 0 68 12.5t26 36.5l95 389h-32q-27 0 -55.5 9.5t-50 29t-33.5 47.5t-12 62q0 62 22 110.5t62 79.5t94 46.5t116 15.5h262l-9 -33q-39 -3 -57 -21.5t-30 -70.5l-162 -670l-3 -19q0 -16 14 -19l52 -5l-8 -32h-150q141 545 202 827h-59l-202 -827h-158zM261 346
h22l77 313h-15q-46 0 -79 -29.5t-50.5 -79.5t-17.5 -102q0 -31 8.5 -56t23.5 -35.5t31 -10.5z" />
    <glyph glyph-name="periodcentered" unicode="&#xb7;" horiz-adv-x="282" 
d="M129 183q-29 0 -47 18.5t-18 48.5q0 37 26 62t64 25q28 0 46 -18t18 -47q0 -38 -25.5 -63.5t-63.5 -25.5z" />
    <glyph glyph-name="cedilla" unicode="&#xb8;" horiz-adv-x="524" 
d="M188 -106l60 106h44l-37 -69q12 2 28 2q37 0 58.5 -16t21.5 -44q0 -32 -27 -57.5t-61.5 -36t-62.5 -10.5q-13 0 -32 3t-35.5 9.5t-16.5 11.5l2 6l10 16q4 6 8 6l5 -1q30 -9 51 -9q30 0 47.5 13.5t17.5 36.5q0 32 -40 32l-34 -4z" />
    <glyph glyph-name="uni00B9" unicode="&#xb9;" horiz-adv-x="398" 
d="M376 462l-6 -10q-4 -8 -24 -8h-201q-13 0 -20.5 1.5t-7.5 7.5l2 7l7 12q1 2 5 5.5t22 5.5q21 2 35.5 9.5t20.5 36.5l46 228l4 23q0 2 -1.5 8t-7.5 6q-10 0 -21 -4l-26 -9l-11 -2q-15 0 -16 13l-1 7l-2 14q0 9 19 15l194 55l-72 -360l-3 -16q0 -16 11 -19l40 -7
q18 -2 18 -10z" />
    <glyph glyph-name="ordmasculine" unicode="&#xba;" horiz-adv-x="358" 
d="M196 396q-61 0 -100 36.5t-39 93.5q0 38 15 72t42 59.5t63 40t76 14.5q61 0 99.5 -35.5t38.5 -92.5q0 -78 -57 -133t-138 -55zM208 441q33 0 57 46t24 110q0 34 -12 52.5t-34 18.5q-34 0 -59.5 -43.5t-25.5 -101.5q0 -39 13.5 -60.5t36.5 -21.5z" />
    <glyph glyph-name="guillemotright" unicode="&#xbb;" horiz-adv-x="470" 
d="M188 69q0 11 44 69.5t83 99.5q-22 48 -39.5 98t-17.5 65q0 6 4 10.5t9 4.5q10 0 26 -19l137 -159l-202 -160q-8 -6 -19 -12t-15 -6t-7 2.5t-3 6.5zM9 60q-4 0 -6.5 2.5t-2.5 6.5q0 11 43.5 69t83.5 100q-23 52 -40 100t-17 62q0 6 3.5 11t9.5 5q10 0 26 -19l137 -159
l-202 -160q-9 -6 -20 -12t-15 -6z" />
    <glyph glyph-name="onequarter" unicode="&#xbc;" horiz-adv-x="921" 
d="M97 272q-13 0 -20.5 1.5t-7.5 7.5l2 7l7 12q1 2 5 5.5t22 5.5q21 2 35.5 9.5t20.5 36.5l46 228l4 23q0 2 -1.5 8t-7.5 6q-10 0 -21 -4l-26 -9l-11 -2q-15 0 -16 13l-1 7l-2 14q0 9 19 15l194 55l-72 -360l-3 -16q0 -16 11 -19l40 -7q18 -2 18 -10l-4 -9l-6 -10
q-4 -8 -24 -8h-201zM174 0l508 699h80l-508 -699h-80zM506 148l246 272h88l-46 -244h36q20 0 20 -9q0 -6 -4 -11l-21 -37h-41l-8 -41l-2 -16q0 -20 37 -25q8 -1 14.5 -2.5t6.5 -8.5l-1 -6l-8 -12q-4 -8 -20 -8h-183q-23 0 -23 8l2 7l7 11q7 10 25 11q26 2 39.5 7t19.5 38
l7 37h-153q-16 0 -24 3.5t-10 11.5zM597 176h110l30 156q-64 -66 -140 -156z" />
    <glyph glyph-name="onehalf" unicode="&#xbd;" horiz-adv-x="921" 
d="M97 272q-13 0 -20.5 1.5t-7.5 7.5l2 7l7 12q1 2 5 5.5t22 5.5q21 2 35.5 9.5t20.5 36.5l46 228l4 23q0 2 -1.5 8t-7.5 6q-10 0 -21 -4l-26 -9l-11 -2q-15 0 -16 13l-1 7l-2 14q0 9 19 15l194 55l-72 -360l-3 -16q0 -16 11 -19l40 -7q18 -2 18 -10l-4 -9l-6 -10
q-4 -8 -24 -8h-201zM168 0l508 699h81l-509 -699h-80zM495 0l10 52q118 93 179.5 157.5t61.5 116.5q0 20 -11 32t-29 12t-33 -10t-30 -32l-16 -24q-6 -9 -14 -9l-11 3l-13 6q-9 5 -9 12l1 7l6 37q4 24 51.5 45.5t95.5 21.5q26 0 55.5 -9t50 -32.5t20.5 -53.5q0 -19 -9.5 -44
t-43.5 -59l-10.5 -10.5t-88.5 -71.5l-99 -80h90q24 0 37 3.5t36 34.5l12 16q7 10 17 10q4 0 9 -3l15 -8q8 -4 8 -10l-4 -12l-37 -70q-8 -15 -15.5 -21.5t-38.5 -6.5h-243z" />
    <glyph glyph-name="threequarters" unicode="&#xbe;" horiz-adv-x="921" 
d="M76 303l-8 47l-1 11q0 9 9 13l18 10q5 3 12 3q9 0 15 -9l13 -25q18 -35 60 -35q30 0 51.5 22t21.5 54q0 35 -26.5 54.5t-78.5 23.5l7 39q60 10 92.5 36t32.5 64q0 20 -12 32t-32 12q-16 0 -32 -8.5t-27 -27.5l-10 -17q-2 -3 -6.5 -6t-7.5 -3l-10 2l-13 5q-10 4 -10 12
l1 9l5 25q2 11 17 25t48 24.5t69 10.5q42 0 72.5 -13.5t41.5 -34.5t11 -41q0 -39 -31.5 -70t-88.5 -47q47 -9 72.5 -34.5t25.5 -63.5q0 -35 -21 -63.5t-62.5 -47.5t-100.5 -19q-65 0 -117 31zM192 0l508 699h80l-508 -699h-80zM518 148l246 272h87l-44 -244h35q20 0 20 -9
l-4 -11l-22 -37h-41l-7 -41l-2 -16q0 -8 6 -14.5t31 -10.5q8 -1 14.5 -2.5t6.5 -8.5l-2 -6l-7 -12q-5 -8 -20 -8h-183q-23 0 -23 8l3 7l6 11q7 10 25 11q33 2 43 9.5t15 35.5l7 37h-153q-16 0 -23.5 3.5t-9.5 11.5zM610 176h109l29 156q-48 -49 -138 -156z" />
    <glyph glyph-name="questiondown" unicode="&#xbf;" horiz-adv-x="471" 
d="M318 362q-28 0 -46 18t-18 47q0 38 25 63.5t63 25.5q30 0 48 -18t18 -48q0 -38 -26 -63t-64 -25zM28 31q16 18 32 33t82 60q53 37 85 77t47 91h72q-18 -65 -41.5 -104t-85.5 -107q-48 -52 -67.5 -94t-19.5 -89q0 -78 57 -78q20 0 43 9.5t63 51.5q14 14 20 14q4 0 14 -6
l17 -13q10 -7 10 -13q0 -4 -8 -16l-35 -56q-69 -24 -142 -24q-89 0 -140.5 38t-51.5 104q0 69 49 122z" />
    <glyph glyph-name="Agrave" unicode="&#xc0;" horiz-adv-x="641" 
d="M-44 0q-17 0 -17 8l2 8l10 18q4 8 18 12q24 6 39.5 16.5t44.5 65.5l225 419q23 44 27 52.5t4 18.5q0 26 -48 38q-12 3 -12 10q0 6 3 10l7 12q2 4 5.5 8t19.5 4h144q7 0 15 -1t10 -11l78 -495q14 -89 20.5 -108t18 -25.5t31.5 -11.5q11 -3 11 -10l-3 -9l-12 -18
q-2 -3 -6 -7t-22 -4h-206q-21 0 -21 8l2 6l12 19q1 2 4 5t21 10q27 9 27 43q0 21 -2 35l-9 77h-232l-50 -94q-15 -28 -15 -39q0 -12 22 -24q10 -4 10 -9t-3 -10l-10 -16q-2 -3 -6 -7t-20 -4h-137zM198 267h191l-37 295zM416 748l-173 108q-18 11 -25.5 16.5t-7.5 13.5t10 15
l45 32q12 9 20 9q13 0 30 -20l149 -174h-48z" />
    <glyph glyph-name="Aacute" unicode="&#xc1;" horiz-adv-x="641" 
d="M-44 0q-17 0 -17 8l2 8l10 18q4 8 18 12q24 6 39.5 16.5t44.5 65.5l225 419q23 44 27 52.5t4 18.5q0 26 -48 38q-12 3 -12 10q0 6 3 10l7 12q2 4 5.5 8t19.5 4h144q7 0 15 -1t10 -11l78 -495q14 -89 20.5 -108t18 -25.5t31.5 -11.5q11 -3 11 -10l-3 -9l-12 -18
q-2 -3 -6 -7t-22 -4h-206q-21 0 -21 8l2 6l12 19q1 2 4 5t21 10q27 9 27 43q0 21 -2 35l-9 77h-232l-50 -94q-15 -28 -15 -39q0 -12 22 -24q10 -4 10 -9t-3 -10l-10 -16q-2 -3 -6 -7t-20 -4h-137zM198 267h191l-37 295zM262 748l196 174q22 20 35 20q9 0 18 -9l36 -32
q5 -5 5 -11q0 -8 -7.5 -14.5t-31.5 -19.5l-203 -108h-48z" />
    <glyph glyph-name="Acircumflex" unicode="&#xc2;" horiz-adv-x="641" 
d="M-44 0q-17 0 -17 8l2 8l10 18q4 8 18 12q24 6 39.5 16.5t44.5 65.5l225 419q23 44 27 52.5t4 18.5q0 26 -48 38q-12 3 -12 10q0 6 3 10l7 12q2 4 5.5 8t19.5 4h144q7 0 15 -1t10 -11l78 -495q14 -89 20.5 -108t18 -25.5t31.5 -11.5q11 -3 11 -10l-3 -9l-12 -18
q-2 -3 -6 -7t-22 -4h-206q-21 0 -21 8l2 6l12 19q1 2 4 5t21 10q27 9 27 43q0 21 -2 35l-9 77h-232l-50 -94q-15 -28 -15 -39q0 -12 22 -24q10 -4 10 -9t-3 -10l-10 -16q-2 -3 -6 -7t-20 -4h-137zM198 267h191l-37 295zM184 758l176 172h76l131 -172h-49l-131 97l-155 -97
h-48z" />
    <glyph glyph-name="Atilde" unicode="&#xc3;" horiz-adv-x="641" 
d="M-44 0q-17 0 -17 8l2 8l10 18q4 8 18 12q24 6 39.5 16.5t44.5 65.5l225 419q23 44 27 52.5t4 18.5q0 26 -48 38q-12 3 -12 10q0 6 3 10l7 12q2 4 5.5 8t19.5 4h144q7 0 15 -1t10 -11l78 -495q14 -89 20.5 -108t18 -25.5t31.5 -11.5q11 -3 11 -10l-3 -9l-12 -18
q-2 -3 -6 -7t-22 -4h-206q-21 0 -21 8l2 6l12 19q1 2 4 5t21 10q27 9 27 43q0 21 -2 35l-9 77h-232l-50 -94q-15 -28 -15 -39q0 -12 22 -24q10 -4 10 -9t-3 -10l-10 -16q-2 -3 -6 -7t-20 -4h-137zM198 267h191l-37 295zM575 893h11q10 0 10 -5q0 -6 -9 -24q-21 -43 -57 -67
t-81 -24q-11 0 -26.5 2t-57.5 20q-44 19 -72 19q-48 0 -82 -38q-3 -3 -9 -3h-12q-8 0 -8 6q0 3 10 22q46 86 130 86q7 0 22.5 -2t53.5 -18q24 -10 41.5 -15.5t38.5 -5.5q52 0 87 43q3 4 10 4z" />
    <glyph glyph-name="Adieresis" unicode="&#xc4;" horiz-adv-x="641" 
d="M-44 0q-17 0 -17 8l2 8l10 18q4 8 18 12q24 6 39.5 16.5t44.5 65.5l225 419q23 44 27 52.5t4 18.5q0 26 -48 38q-12 3 -12 10q0 6 3 10l7 12q2 4 5.5 8t19.5 4h144q7 0 15 -1t10 -11l78 -495q14 -89 20.5 -108t18 -25.5t31.5 -11.5q11 -3 11 -10l-3 -9l-12 -18
q-2 -3 -6 -7t-22 -4h-206q-21 0 -21 8l2 6l12 19q1 2 4 5t21 10q27 9 27 43q0 21 -2 35l-9 77h-232l-50 -94q-15 -28 -15 -39q0 -12 22 -24q10 -4 10 -9t-3 -10l-10 -16q-2 -3 -6 -7t-20 -4h-137zM198 267h191l-37 295zM479 773q-21 0 -35 14t-14 35q0 27 20.5 48.5
t47.5 21.5q22 0 36.5 -14t14.5 -35q0 -28 -21 -49t-49 -21zM276 772q-21 0 -35.5 14t-14.5 35q0 26 22 48t49 22q21 0 34.5 -13.5t13.5 -35.5q0 -29 -20.5 -49.5t-48.5 -20.5z" />
    <glyph glyph-name="Aring" unicode="&#xc5;" horiz-adv-x="641" 
d="M-44 0q-17 0 -17 8l2 8l10 18q4 8 18 12q24 6 39.5 16.5t44.5 65.5l225 419q23 44 27 52.5t4 18.5q0 26 -48 38q-12 3 -12 10q0 6 3 10l7 12q2 4 5.5 8t19.5 4h144q7 0 15 -1t10 -11l78 -495q14 -89 20.5 -108t18 -25.5t31.5 -11.5q11 -3 11 -10l-3 -9l-12 -18
q-2 -3 -6 -7t-22 -4h-206q-21 0 -21 8l2 6l12 19q1 2 4 5t21 10q27 9 27 43q0 21 -2 35l-9 77h-232l-50 -94q-15 -28 -15 -39q0 -12 22 -24q10 -4 10 -9t-3 -10l-10 -16q-2 -3 -6 -7t-20 -4h-137zM198 267h191l-37 295zM377 737q-18 0 -40 8.5t-37.5 30.5t-15.5 50
q0 22 12 48.5t42 47t65 20.5q40 0 66.5 -26.5t26.5 -65.5q0 -47 -35 -80t-84 -33zM384 785q22 0 38.5 18t16.5 43q0 20 -12.5 33.5t-30.5 13.5q-23 0 -39.5 -17.5t-16.5 -42.5q0 -21 12.5 -34.5t31.5 -13.5z" />
    <glyph glyph-name="AE" unicode="&#xc6;" horiz-adv-x="854" 
d="M-60 0q-15 0 -15 9q0 5 3 9l9 16q4 7 10 9l17 6q14 5 30 17.5t51 61.5l299 417q23 32 32.5 49.5t9.5 29.5q0 8 -6.5 15t-32.5 14q-12 3 -18.5 6t-6.5 8l2 8l8 13q2 3 6.5 7.5t23.5 4.5h463q18 0 28 -2t10 -14l-1 -10l-12 -68q-1 -5 -3 -11t-12 -13l-19 -12l-7 -3
q-10 0 -15 15q-14 34 -24 47t-26 15.5t-38 2.5h-99l-43 -236h194q12 0 18 -1t6 -7q0 -5 -3 -10l-14 -28q-3 -5 -8 -12t-33 -7h-172l-32 -169q-9 -48 -9 -80q0 -24 13.5 -34t46.5 -10h62q68 0 111 74q9 16 17 16l7 -1l21 -7q13 -5 13 -11l-1 -7l-15 -75q-5 -27 -20 -34.5
t-62 -7.5h-293q-20 0 -34.5 6.5t-14.5 31.5q0 16 5 43l22 121h-221l-65 -93q-20 -28 -20 -40q0 -11 23 -23q3 -2 6 -4.5t3 -4.5q0 -7 -4 -12l-9 -14q-2 -3 -6 -7t-22 -4h-134zM213 267h187l68 364z" />
    <glyph glyph-name="Ccedilla" unicode="&#xc7;" horiz-adv-x="659" 
d="M200 29q-68 40 -105.5 109.5t-37.5 154.5q0 108 55 204t159 155.5t229 59.5q50 0 102 -11.5t80.5 -25.5t28.5 -26l-3 -20l-12 -65q-1 -5 -3 -12.5t-12 -11.5l-14 -5l-17 -4q-8 0 -12 11q-25 62 -59.5 87.5t-92.5 25.5q-48 0 -92.5 -20t-78.5 -57q-47 -50 -75.5 -126
t-28.5 -150q0 -53 14 -99.5t40 -79.5t61.5 -51.5t76.5 -18.5q46 0 80 18t70 61q8 9 12 13t9 4q4 0 16 -4t19 -9q14 -8 14 -18q0 -5 -4 -10l-37 -66q-6 -19 -35 -31.5t-73 -17t-86 -4.5l-33 -60q20 3 31 3q37 0 58.5 -16.5t21.5 -45.5q0 -21 -15.5 -45t-55 -43t-84.5 -19
q-28 0 -58 8.5t-30 15.5l3 6l11 16q4 7 8 7l5 -1q33 -9 54 -9q31 0 49 14t18 38q0 33 -44 33q-10 0 -34 -6l-8 6l56 98q-51 9 -80 15.5t-61 24.5z" />
    <glyph glyph-name="Egrave" unicode="&#xc8;" horiz-adv-x="566" 
d="M70 37q0 13 5 40l93 499l3 29q0 19 -11 30.5t-36 17.5q-10 3 -10 8q0 6 3 10l10 19q1 2 5 6t20 4h378q20 0 32.5 -2t12.5 -14l-2 -11l-11 -66q-1 -5 -3 -11t-11 -13l-22 -14l-6 -2q-5 0 -8 3.5t-15 34.5q-5 14 -15.5 24.5t-20.5 13.5q-3 1 -9 2.5t-42 1.5h-93l-44 -236
h201q5 0 12.5 -0.5t7.5 -7.5l-3 -10l-15 -30q-8 -17 -39 -17h-176l-34 -188q-7 -35 -7 -57q0 -29 15.5 -38.5t60.5 -9.5h54q37 0 63.5 18t52.5 61q7 11 15 11l9 -2l19 -6q11 -3 11 -9l-2 -13l-13 -67q-6 -29 -20 -37.5t-59 -8.5h-299q-31 0 -44 8.5t-13 28.5zM419 748
l-173 108q-18 11 -25.5 16.5t-7.5 13.5t10 15l45 32q12 9 20 9q13 0 30 -20l149 -174h-48z" />
    <glyph glyph-name="Eacute" unicode="&#xc9;" horiz-adv-x="566" 
d="M70 37q0 13 5 40l93 499l3 29q0 19 -11 30.5t-36 17.5q-10 3 -10 8q0 6 3 10l10 19q1 2 5 6t20 4h378q20 0 32.5 -2t12.5 -14l-2 -11l-11 -66q-1 -5 -3 -11t-11 -13l-22 -14l-6 -2q-5 0 -8 3.5t-15 34.5q-5 14 -15.5 24.5t-20.5 13.5q-3 1 -9 2.5t-42 1.5h-93l-44 -236
h201q5 0 12.5 -0.5t7.5 -7.5l-3 -10l-15 -30q-8 -17 -39 -17h-176l-34 -188q-7 -35 -7 -57q0 -29 15.5 -38.5t60.5 -9.5h54q37 0 63.5 18t52.5 61q7 11 15 11l9 -2l19 -6q11 -3 11 -9l-2 -13l-13 -67q-6 -29 -20 -37.5t-59 -8.5h-299q-31 0 -44 8.5t-13 28.5zM265 748
l196 174q22 20 35 20q9 0 18 -9l36 -32q5 -5 5 -11q0 -8 -7.5 -14.5t-31.5 -19.5l-203 -108h-48z" />
    <glyph glyph-name="Ecircumflex" unicode="&#xca;" horiz-adv-x="566" 
d="M70 37q0 13 5 40l93 499l3 29q0 19 -11 30.5t-36 17.5q-10 3 -10 8q0 6 3 10l10 19q1 2 5 6t20 4h378q20 0 32.5 -2t12.5 -14l-2 -11l-11 -66q-1 -5 -3 -11t-11 -13l-22 -14l-6 -2q-5 0 -8 3.5t-15 34.5q-5 14 -15.5 24.5t-20.5 13.5q-3 1 -9 2.5t-42 1.5h-93l-44 -236
h201q5 0 12.5 -0.5t7.5 -7.5l-3 -10l-15 -30q-8 -17 -39 -17h-176l-34 -188q-7 -35 -7 -57q0 -29 15.5 -38.5t60.5 -9.5h54q37 0 63.5 18t52.5 61q7 11 15 11l9 -2l19 -6q11 -3 11 -9l-2 -13l-13 -67q-6 -29 -20 -37.5t-59 -8.5h-299q-31 0 -44 8.5t-13 28.5zM187 758
l176 172h76l131 -172h-49l-131 97l-155 -97h-48z" />
    <glyph glyph-name="Edieresis" unicode="&#xcb;" horiz-adv-x="566" 
d="M70 37q0 13 5 40l93 499l3 29q0 19 -11 30.5t-36 17.5q-10 3 -10 8q0 6 3 10l10 19q1 2 5 6t20 4h378q20 0 32.5 -2t12.5 -14l-2 -11l-11 -66q-1 -5 -3 -11t-11 -13l-22 -14l-6 -2q-5 0 -8 3.5t-15 34.5q-5 14 -15.5 24.5t-20.5 13.5q-3 1 -9 2.5t-42 1.5h-93l-44 -236
h201q5 0 12.5 -0.5t7.5 -7.5l-3 -10l-15 -30q-8 -17 -39 -17h-176l-34 -188q-7 -35 -7 -57q0 -29 15.5 -38.5t60.5 -9.5h54q37 0 63.5 18t52.5 61q7 11 15 11l9 -2l19 -6q11 -3 11 -9l-2 -13l-13 -67q-6 -29 -20 -37.5t-59 -8.5h-299q-31 0 -44 8.5t-13 28.5zM482 773
q-21 0 -35 14t-14 35q0 27 20.5 48.5t47.5 21.5q22 0 36.5 -14t14.5 -35q0 -28 -21 -49t-49 -21zM279 772q-21 0 -35.5 14t-14.5 35q0 26 22 48t49 22q21 0 34.5 -13.5t13.5 -35.5q0 -29 -20.5 -49.5t-48.5 -20.5z" />
    <glyph glyph-name="Igrave" unicode="&#xcc;" horiz-adv-x="358" 
d="M-5 9l2 7l10 17q2 3 6 7.5t20 8.5q21 5 32.5 16t21.5 65l83 446q6 36 6 41q0 11 -4.5 18.5t-33.5 15.5q-19 5 -19 10l3 10l11 19q1 2 5 6t20 4h212q15 0 22 -1t7 -8l-2 -7l-10 -17q-2 -3 -6 -7.5t-19 -8.5q-21 -5 -33 -15.5t-23 -65.5l-84 -446q-5 -25 -5 -42
q0 -11 5 -18t33 -14q19 -4 19 -11l-3 -11l-11 -18q-6 -10 -25 -10h-211q-14 0 -21.5 1t-7.5 8zM311 748l-173 108q-18 11 -25.5 16.5t-7.5 13.5t10 15l45 32q12 9 20 9q13 0 30 -20l149 -174h-48z" />
    <glyph glyph-name="Iacute" unicode="&#xcd;" horiz-adv-x="358" 
d="M-5 9l2 7l10 17q2 3 6 7.5t20 8.5q21 5 32.5 16t21.5 65l83 446q6 36 6 41q0 11 -4.5 18.5t-33.5 15.5q-19 5 -19 10l3 10l11 19q1 2 5 6t20 4h212q15 0 22 -1t7 -8l-2 -7l-10 -17q-2 -3 -6 -7.5t-19 -8.5q-21 -5 -33 -15.5t-23 -65.5l-84 -446q-5 -25 -5 -42
q0 -11 5 -18t33 -14q19 -4 19 -11l-3 -11l-11 -18q-6 -10 -25 -10h-211q-14 0 -21.5 1t-7.5 8zM157 748l196 174q22 20 35 20q9 0 18 -9l36 -32q5 -5 5 -11q0 -8 -7.5 -14.5t-31.5 -19.5l-203 -108h-48z" />
    <glyph glyph-name="Icircumflex" unicode="&#xce;" horiz-adv-x="358" 
d="M-5 9l2 7l10 17q2 3 6 7.5t20 8.5q21 5 32.5 16t21.5 65l83 446q6 36 6 41q0 11 -4.5 18.5t-33.5 15.5q-19 5 -19 10l3 10l11 19q1 2 5 6t20 4h212q15 0 22 -1t7 -8l-2 -7l-10 -17q-2 -3 -6 -7.5t-19 -8.5q-21 -5 -33 -15.5t-23 -65.5l-84 -446q-5 -25 -5 -42
q0 -11 5 -18t33 -14q19 -4 19 -11l-3 -11l-11 -18q-6 -10 -25 -10h-211q-14 0 -21.5 1t-7.5 8zM79 758l176 172h76l131 -172h-49l-131 97l-155 -97h-48z" />
    <glyph glyph-name="Idieresis" unicode="&#xcf;" horiz-adv-x="358" 
d="M-5 9l2 7l10 17q2 3 6 7.5t20 8.5q21 5 32.5 16t21.5 65l83 446q6 36 6 41q0 11 -4.5 18.5t-33.5 15.5q-19 5 -19 10l3 10l11 19q1 2 5 6t20 4h212q15 0 22 -1t7 -8l-2 -7l-10 -17q-2 -3 -6 -7.5t-19 -8.5q-21 -5 -33 -15.5t-23 -65.5l-84 -446q-5 -25 -5 -42
q0 -11 5 -18t33 -14q19 -4 19 -11l-3 -11l-11 -18q-6 -10 -25 -10h-211q-14 0 -21.5 1t-7.5 8zM374 773q-21 0 -35 14t-14 35q0 27 20.5 48.5t47.5 21.5q22 0 36.5 -14t14.5 -35q0 -28 -21 -49t-49 -21zM171 772q-21 0 -35.5 14t-14.5 35q0 26 22 48t49 22q21 0 34.5 -13.5
t13.5 -35.5q0 -29 -20.5 -49.5t-48.5 -20.5z" />
    <glyph glyph-name="Eth" unicode="&#xd0;" horiz-adv-x="754" 
d="M70 43q0 10 7 46l48 258h-119l9 51h119l33 179l4 29q0 14 -8 27t-40 21q-10 1 -10 8q1 6 4 9l10 19q1 3 5 6.5t20 3.5h263q57 0 104 -4t91 -23q62 -27 95 -89.5t33 -154.5q0 -133 -65.5 -235.5t-177.5 -154t-247 -51.5q-50 0 -95 5.5t-62 14.5q-21 11 -21 35zM221 119
q0 -35 25.5 -54.5t71.5 -19.5q57 0 107.5 28.5t87 79.5t57 121.5t20.5 149.5q0 156 -82 205q-16 9 -38.5 15.5t-72.5 6.5h-80l-47 -253h136l-9 -51h-136l-32 -175q-8 -46 -8 -53z" />
    <glyph glyph-name="Ntilde" unicode="&#xd1;" horiz-adv-x="735" 
d="M569 0h-56q-12 0 -23 6t-23 31l-246 519l-80 -432q-5 -26 -5 -42q0 -10 5 -17t33 -15q7 -2 13 -4t6 -8q0 -5 -3 -10l-11 -18q-6 -10 -26 -10h-142q-14 0 -21 1t-7 7l2 8l10 17q2 3 5.5 7.5t19.5 8.5q21 5 33 16t22 65l88 472q-23 38 -61 50q-14 4 -14 11l2 11l9 13
q2 3 6.5 8t19.5 5h148q17 0 29 -6t27 -38l233 -498l77 418q6 32 6 42q0 11 -4.5 18t-33.5 15q-7 2 -13.5 4t-6.5 6l3 10l11 19q6 10 26 10h140q15 0 22 -1t7 -8l-2 -7l-10 -17q-2 -3 -5.5 -7.5t-19.5 -8.5q-28 -7 -37 -20.5t-18 -60.5l-98 -528q-4 -22 -9 -32t-28 -10z
M661 893h11q10 0 10 -5q0 -6 -9 -24q-21 -43 -57 -67t-81 -24q-11 0 -26.5 2t-57.5 20q-44 19 -72 19q-48 0 -82 -38q-3 -3 -9 -3h-12q-8 0 -8 6q0 3 10 22q46 86 130 86q7 0 22.5 -2t53.5 -18q24 -10 41.5 -15.5t38.5 -5.5q52 0 87 43q3 4 10 4z" />
    <glyph glyph-name="Ograve" unicode="&#xd2;" horiz-adv-x="754" 
d="M54 279q0 89 31.5 168.5t80 131.5t101.5 81.5t104.5 40.5t91.5 11q129 0 202 -77t73 -212q0 -111 -50 -211t-144.5 -162t-207.5 -62q-64 0 -116.5 20.5t-89.5 58.5t-56.5 92t-19.5 120zM205 267q0 -105 37.5 -162.5t106.5 -57.5q45 0 85.5 24.5t70.5 71.5q35 55 58.5 143
t23.5 165q0 99 -36.5 150.5t-107.5 51.5q-50 0 -89.5 -24t-72.5 -75q-34 -53 -55 -132.5t-21 -154.5zM513 748l-173 108q-18 11 -25.5 16.5t-7.5 13.5t10 15l45 32q12 9 20 9q13 0 30 -20l149 -174h-48z" />
    <glyph glyph-name="Oacute" unicode="&#xd3;" horiz-adv-x="754" 
d="M54 279q0 89 31.5 168.5t80 131.5t101.5 81.5t104.5 40.5t91.5 11q129 0 202 -77t73 -212q0 -111 -50 -211t-144.5 -162t-207.5 -62q-64 0 -116.5 20.5t-89.5 58.5t-56.5 92t-19.5 120zM205 267q0 -105 37.5 -162.5t106.5 -57.5q45 0 85.5 24.5t70.5 71.5q35 55 58.5 143
t23.5 165q0 99 -36.5 150.5t-107.5 51.5q-50 0 -89.5 -24t-72.5 -75q-34 -53 -55 -132.5t-21 -154.5zM359 748l196 174q22 20 35 20q9 0 18 -9l36 -32q5 -5 5 -11q0 -8 -7.5 -14.5t-31.5 -19.5l-203 -108h-48z" />
    <glyph glyph-name="Ocircumflex" unicode="&#xd4;" horiz-adv-x="754" 
d="M54 279q0 89 31.5 168.5t80 131.5t101.5 81.5t104.5 40.5t91.5 11q129 0 202 -77t73 -212q0 -111 -50 -211t-144.5 -162t-207.5 -62q-64 0 -116.5 20.5t-89.5 58.5t-56.5 92t-19.5 120zM205 267q0 -105 37.5 -162.5t106.5 -57.5q45 0 85.5 24.5t70.5 71.5q35 55 58.5 143
t23.5 165q0 99 -36.5 150.5t-107.5 51.5q-50 0 -89.5 -24t-72.5 -75q-34 -53 -55 -132.5t-21 -154.5zM281 758l176 172h76l131 -172h-49l-131 97l-155 -97h-48z" />
    <glyph glyph-name="Otilde" unicode="&#xd5;" horiz-adv-x="754" 
d="M54 279q0 89 31.5 168.5t80 131.5t101.5 81.5t104.5 40.5t91.5 11q129 0 202 -77t73 -212q0 -111 -50 -211t-144.5 -162t-207.5 -62q-64 0 -116.5 20.5t-89.5 58.5t-56.5 92t-19.5 120zM205 267q0 -105 37.5 -162.5t106.5 -57.5q45 0 85.5 24.5t70.5 71.5q35 55 58.5 143
t23.5 165q0 99 -36.5 150.5t-107.5 51.5q-50 0 -89.5 -24t-72.5 -75q-34 -53 -55 -132.5t-21 -154.5zM672 893h11q10 0 10 -5q0 -6 -9 -24q-21 -43 -57 -67t-81 -24q-11 0 -26.5 2t-57.5 20q-44 19 -72 19q-48 0 -82 -38q-3 -3 -9 -3h-12q-8 0 -8 6q0 3 10 22q46 86 130 86
q7 0 22.5 -2t53.5 -18q24 -10 41.5 -15.5t38.5 -5.5q52 0 87 43q3 4 10 4z" />
    <glyph glyph-name="Odieresis" unicode="&#xd6;" horiz-adv-x="754" 
d="M54 279q0 89 31.5 168.5t80 131.5t101.5 81.5t104.5 40.5t91.5 11q129 0 202 -77t73 -212q0 -111 -50 -211t-144.5 -162t-207.5 -62q-64 0 -116.5 20.5t-89.5 58.5t-56.5 92t-19.5 120zM205 267q0 -105 37.5 -162.5t106.5 -57.5q45 0 85.5 24.5t70.5 71.5q35 55 58.5 143
t23.5 165q0 99 -36.5 150.5t-107.5 51.5q-50 0 -89.5 -24t-72.5 -75q-34 -53 -55 -132.5t-21 -154.5zM576 773q-21 0 -35 14t-14 35q0 27 20.5 48.5t47.5 21.5q22 0 36.5 -14t14.5 -35q0 -28 -21 -49t-49 -21zM373 772q-21 0 -35.5 14t-14.5 35q0 26 22 48t49 22
q21 0 34.5 -13.5t13.5 -35.5q0 -29 -20.5 -49.5t-48.5 -20.5z" />
    <glyph glyph-name="multiply" unicode="&#xd7;" 
d="M102 105l156 154l-155 154l56 55l153 -154l154 153l54 -53l-155 -154l156 -154l-55 -55l-155 155l-154 -155z" />
    <glyph glyph-name="Oslash" unicode="&#xd8;" horiz-adv-x="754" 
d="M3 9l97 95q-18 29 -31.5 68t-13.5 107q0 89 31 169t86.5 139t131 92t159.5 33q63 0 107 -16t86 -54l79 76l39 -39l-82 -79q18 -30 31.5 -70t13.5 -108q0 -110 -49.5 -210t-142.5 -162t-203 -62q-60 0 -108.5 17t-98.5 57l-94 -91zM216 197l348 371q-20 45 -49 65t-74 20
q-49 0 -90.5 -25t-70.5 -73q-34 -57 -53 -126.5t-19 -139.5q0 -41 8 -92zM231 141q36 -94 119 -94q68 0 122 55.5t85 159.5q11 38 19 91.5t8 91.5q0 24 -4 68z" />
    <glyph glyph-name="Ugrave" unicode="&#xd9;" horiz-adv-x="697" 
d="M101 192q0 45 14 120l49 264q6 33 6 42q0 11 -4.5 18t-33.5 15q-7 2 -13.5 4t-6.5 7l4 9l10 19q5 10 25 10h214q15 0 22 -1t7 -8l-3 -7l-9 -17q-2 -3 -5.5 -7.5t-21.5 -8.5q-33 -8 -41 -26.5t-15 -54.5l-49 -265q-14 -76 -14 -114q0 -58 32 -90.5t90 -32.5q82 0 130 69
q13 19 26 53.5t28 113.5l50 272q5 27 5 41q0 12 -4.5 19.5t-32.5 14.5q-8 2 -14.5 4.5t-6.5 5.5q0 5 4 10l12 19q1 2 5 6t20 4h144q14 0 21.5 -1t7.5 -8l-2 -7l-9 -17q-2 -3 -5.5 -8t-21.5 -8q-21 -4 -33 -15t-22 -66l-49 -269q-18 -101 -42 -156t-65 -93q-34 -31 -83 -47.5
t-105 -16.5q-104 0 -159.5 52.5t-55.5 151.5zM499 748l-173 108q-18 11 -25.5 16.5t-7.5 13.5t10 15l45 32q12 9 20 9q13 0 30 -20l149 -174h-48z" />
    <glyph glyph-name="Uacute" unicode="&#xda;" horiz-adv-x="697" 
d="M101 192q0 45 14 120l49 264q6 33 6 42q0 11 -4.5 18t-33.5 15q-7 2 -13.5 4t-6.5 7l4 9l10 19q5 10 25 10h214q15 0 22 -1t7 -8l-3 -7l-9 -17q-2 -3 -5.5 -7.5t-21.5 -8.5q-33 -8 -41 -26.5t-15 -54.5l-49 -265q-14 -76 -14 -114q0 -58 32 -90.5t90 -32.5q82 0 130 69
q13 19 26 53.5t28 113.5l50 272q5 27 5 41q0 12 -4.5 19.5t-32.5 14.5q-8 2 -14.5 4.5t-6.5 5.5q0 5 4 10l12 19q1 2 5 6t20 4h144q14 0 21.5 -1t7.5 -8l-2 -7l-9 -17q-2 -3 -5.5 -8t-21.5 -8q-21 -4 -33 -15t-22 -66l-49 -269q-18 -101 -42 -156t-65 -93q-34 -31 -83 -47.5
t-105 -16.5q-104 0 -159.5 52.5t-55.5 151.5zM345 748l196 174q22 20 35 20q9 0 18 -9l36 -32q5 -5 5 -11q0 -8 -7.5 -14.5t-31.5 -19.5l-203 -108h-48z" />
    <glyph glyph-name="Ucircumflex" unicode="&#xdb;" horiz-adv-x="697" 
d="M101 192q0 45 14 120l49 264q6 33 6 42q0 11 -4.5 18t-33.5 15q-7 2 -13.5 4t-6.5 7l4 9l10 19q5 10 25 10h214q15 0 22 -1t7 -8l-3 -7l-9 -17q-2 -3 -5.5 -7.5t-21.5 -8.5q-33 -8 -41 -26.5t-15 -54.5l-49 -265q-14 -76 -14 -114q0 -58 32 -90.5t90 -32.5q82 0 130 69
q13 19 26 53.5t28 113.5l50 272q5 27 5 41q0 12 -4.5 19.5t-32.5 14.5q-8 2 -14.5 4.5t-6.5 5.5q0 5 4 10l12 19q1 2 5 6t20 4h144q14 0 21.5 -1t7.5 -8l-2 -7l-9 -17q-2 -3 -5.5 -8t-21.5 -8q-21 -4 -33 -15t-22 -66l-49 -269q-18 -101 -42 -156t-65 -93q-34 -31 -83 -47.5
t-105 -16.5q-104 0 -159.5 52.5t-55.5 151.5zM267 758l176 172h76l131 -172h-49l-131 97l-155 -97h-48z" />
    <glyph glyph-name="Udieresis" unicode="&#xdc;" horiz-adv-x="697" 
d="M101 192q0 45 14 120l49 264q6 33 6 42q0 11 -4.5 18t-33.5 15q-7 2 -13.5 4t-6.5 7l4 9l10 19q5 10 25 10h214q15 0 22 -1t7 -8l-3 -7l-9 -17q-2 -3 -5.5 -7.5t-21.5 -8.5q-33 -8 -41 -26.5t-15 -54.5l-49 -265q-14 -76 -14 -114q0 -58 32 -90.5t90 -32.5q82 0 130 69
q13 19 26 53.5t28 113.5l50 272q5 27 5 41q0 12 -4.5 19.5t-32.5 14.5q-8 2 -14.5 4.5t-6.5 5.5q0 5 4 10l12 19q1 2 5 6t20 4h144q14 0 21.5 -1t7.5 -8l-2 -7l-9 -17q-2 -3 -5.5 -8t-21.5 -8q-21 -4 -33 -15t-22 -66l-49 -269q-18 -101 -42 -156t-65 -93q-34 -31 -83 -47.5
t-105 -16.5q-104 0 -159.5 52.5t-55.5 151.5zM562 773q-21 0 -35 14t-14 35q0 27 20.5 48.5t47.5 21.5q22 0 36.5 -14t14.5 -35q0 -28 -21 -49t-49 -21zM359 772q-21 0 -35.5 14t-14.5 35q0 26 22 48t49 22q21 0 34.5 -13.5t13.5 -35.5q0 -29 -20.5 -49.5t-48.5 -20.5z" />
    <glyph glyph-name="Yacute" unicode="&#xdd;" 
d="M101 9l2 7l10 17q2 3 5.5 7.5t19.5 8.5q21 5 33 16t22 65l27 149l-65 292q-10 44 -18.5 58.5t-31.5 24.5q-6 3 -6 8l4 12l9 16q2 3 5 6.5t20 3.5h193q20 0 20 -8l-3 -8l-9 -17q-6 -9 -12 -12l-11 -5q-28 -13 -28 -35q0 -15 5 -38l41 -238l166 247q18 27 18 40
q0 16 -26 28q-9 5 -9 11l2 6l10 18q2 3 5.5 7t21.5 4h139q4 0 10.5 -0.5t6.5 -6.5l-3 -8l-8 -14q-7 -12 -16 -16l-15 -7q-20 -10 -34.5 -23.5t-42.5 -54.5l-172 -251q-19 -28 -28.5 -45.5t-17.5 -58.5l-16 -90q-6 -34 -6 -43q0 -11 5 -18t33 -14q8 -2 14.5 -4.5t6.5 -7.5
l-4 -10l-11 -18q-6 -10 -26 -10h-207q-14 0 -21 1t-7 8zM300 748l196 174q22 20 35 20q9 0 18 -9l36 -32q5 -5 5 -11q0 -8 -7.5 -14.5t-31.5 -19.5l-203 -108h-48z" />
    <glyph glyph-name="Thorn" unicode="&#xde;" horiz-adv-x="602" 
d="M-5 9l2 7l10 17q2 3 6 7.5t20 8.5q21 5 32.5 16t21.5 65l83 446l4 29q0 19 -10.5 30t-36.5 18q-10 3 -10 10l2 8l11 19q6 10 25 10h215q15 0 22 -1t7 -8l-2 -7l-10 -17q-2 -3 -6 -7.5t-19 -8.5q-27 -6 -38.5 -23.5t-19.5 -68.5h38q54 0 104 -6.5t85 -31.5
q29 -21 45.5 -54t16.5 -71q0 -49 -28 -93t-74 -68q-76 -40 -201 -40h-54l-14 -71q-5 -27 -5 -41q0 -11 4.5 -18.5t33.5 -14.5q19 -5 19 -12l-3 -10l-11 -18q-6 -10 -25 -10h-212q-13 0 -20.5 1.5t-7.5 7.5zM245 243h15q97 0 144 39t47 120q0 58 -28.5 83.5t-92.5 25.5h-35z
" />
    <glyph glyph-name="germandbls" unicode="&#xdf;" horiz-adv-x="621" 
d="M28 0l87 464q18 95 33 132t30 54t22 23q31 29 76.5 44t98.5 15q78 0 123.5 -36.5t45.5 -97.5q0 -24 -10 -51.5t-51 -77.5q-27 -33 -38.5 -48t-11.5 -29q0 -12 7 -24.5t53 -56.5q51 -48 72.5 -74.5t27 -47.5t5.5 -40q0 -33 -16 -63t-44.5 -52t-68 -34t-83.5 -12
q-29 0 -60.5 5.5t-71.5 26.5l-8 84v7q0 4 0.5 9t6.5 9l13 11q10 6 12 6q6 0 12 -11l21 -36q34 -58 76 -58q23 0 42.5 15t27 36t7.5 38q0 23 -9 43.5t-70 83.5q-27 28 -46 54.5t-19 56.5q0 26 10 46t53 79q44 61 44 105q0 33 -17.5 54t-45.5 21q-25 0 -46.5 -14t-34.5 -39
q-14 -26 -28 -101l-97 -519h-130z" />
    <glyph glyph-name="agrave" unicode="&#xe0;" horiz-adv-x="583" 
d="M169 -12q-62 0 -103 52t-41 132q0 67 27 129t75 109.5t111 74.5t130 27q33 0 68.5 -8.5t60.5 -21.5q16 -9 25 -23t9 -28q0 -15 -9 -67l-36 -194q-10 -52 -10 -59q0 -9 4.5 -15.5t12.5 -6.5l17 2l13 3l10 1q11 0 12 -12l1 -11l1 -11q0 -2 -1.5 -6.5t-16.5 -9.5l-161 -57
q-37 8 -37 40l3 27l16 87q-84 -154 -181 -154zM222 74q26 0 56 28.5t56 75.5t42 101t16 101q0 79 -58 79q-23 0 -46 -13t-43 -36.5t-36 -55t-28 -75t-12 -94.5q0 -52 14 -81.5t39 -29.5zM388 548l-173 108q-18 11 -25.5 16.5t-7.5 13.5t10 15l45 32q12 9 20 9q13 0 30 -20
l149 -174h-48z" />
    <glyph glyph-name="aacute" unicode="&#xe1;" horiz-adv-x="583" 
d="M169 -12q-62 0 -103 52t-41 132q0 67 27 129t75 109.5t111 74.5t130 27q33 0 68.5 -8.5t60.5 -21.5q16 -9 25 -23t9 -28q0 -15 -9 -67l-36 -194q-10 -52 -10 -59q0 -9 4.5 -15.5t12.5 -6.5l17 2l13 3l10 1q11 0 12 -12l1 -11l1 -11q0 -2 -1.5 -6.5t-16.5 -9.5l-161 -57
q-37 8 -37 40l3 27l16 87q-84 -154 -181 -154zM222 74q26 0 56 28.5t56 75.5t42 101t16 101q0 79 -58 79q-23 0 -46 -13t-43 -36.5t-36 -55t-28 -75t-12 -94.5q0 -52 14 -81.5t39 -29.5zM234 548l196 174q22 20 35 20q9 0 18 -9l36 -32q5 -5 5 -11q0 -8 -7.5 -14.5
t-31.5 -19.5l-203 -108h-48z" />
    <glyph glyph-name="acircumflex" unicode="&#xe2;" horiz-adv-x="583" 
d="M169 -12q-62 0 -103 52t-41 132q0 67 27 129t75 109.5t111 74.5t130 27q33 0 68.5 -8.5t60.5 -21.5q16 -9 25 -23t9 -28q0 -15 -9 -67l-36 -194q-10 -52 -10 -59q0 -9 4.5 -15.5t12.5 -6.5l17 2l13 3l10 1q11 0 12 -12l1 -11l1 -11q0 -2 -1.5 -6.5t-16.5 -9.5l-161 -57
q-37 8 -37 40l3 27l16 87q-84 -154 -181 -154zM222 74q26 0 56 28.5t56 75.5t42 101t16 101q0 79 -58 79q-23 0 -46 -13t-43 -36.5t-36 -55t-28 -75t-12 -94.5q0 -52 14 -81.5t39 -29.5zM156 558l176 172h76l131 -172h-49l-131 97l-155 -97h-48z" />
    <glyph glyph-name="atilde" unicode="&#xe3;" horiz-adv-x="583" 
d="M169 -12q-62 0 -103 52t-41 132q0 67 27 129t75 109.5t111 74.5t130 27q33 0 68.5 -8.5t60.5 -21.5q16 -9 25 -23t9 -28q0 -15 -9 -67l-36 -194q-10 -52 -10 -59q0 -9 4.5 -15.5t12.5 -6.5l17 2l13 3l10 1q11 0 12 -12l1 -11l1 -11q0 -2 -1.5 -6.5t-16.5 -9.5l-161 -57
q-37 8 -37 40l3 27l16 87q-84 -154 -181 -154zM222 74q26 0 56 28.5t56 75.5t42 101t16 101q0 79 -58 79q-23 0 -46 -13t-43 -36.5t-36 -55t-28 -75t-12 -94.5q0 -52 14 -81.5t39 -29.5zM547 693h11q10 0 10 -5q0 -6 -9 -24q-21 -43 -57 -67t-81 -24q-11 0 -26.5 2t-57.5 20
q-44 19 -72 19q-48 0 -82 -38q-3 -3 -9 -3h-12q-8 0 -8 6q0 3 10 22q46 86 130 86q7 0 22.5 -2t53.5 -18q24 -10 41.5 -15.5t38.5 -5.5q52 0 87 43q3 4 10 4z" />
    <glyph glyph-name="adieresis" unicode="&#xe4;" horiz-adv-x="583" 
d="M169 -12q-62 0 -103 52t-41 132q0 67 27 129t75 109.5t111 74.5t130 27q33 0 68.5 -8.5t60.5 -21.5q16 -9 25 -23t9 -28q0 -15 -9 -67l-36 -194q-10 -52 -10 -59q0 -9 4.5 -15.5t12.5 -6.5l17 2l13 3l10 1q11 0 12 -12l1 -11l1 -11q0 -2 -1.5 -6.5t-16.5 -9.5l-161 -57
q-37 8 -37 40l3 27l16 87q-84 -154 -181 -154zM222 74q26 0 56 28.5t56 75.5t42 101t16 101q0 79 -58 79q-23 0 -46 -13t-43 -36.5t-36 -55t-28 -75t-12 -94.5q0 -52 14 -81.5t39 -29.5zM451 573q-21 0 -35 14t-14 35q0 27 20.5 48.5t47.5 21.5q22 0 36.5 -14t14.5 -35
q0 -28 -21 -49t-49 -21zM248 572q-21 0 -35.5 14t-14.5 35q0 26 22 48t49 22q21 0 34.5 -13.5t13.5 -35.5q0 -29 -20.5 -49.5t-48.5 -20.5z" />
    <glyph glyph-name="aring" unicode="&#xe5;" horiz-adv-x="583" 
d="M169 -12q-62 0 -103 52t-41 132q0 67 27 129t75 109.5t111 74.5t130 27q33 0 68.5 -8.5t60.5 -21.5q16 -9 25 -23t9 -28q0 -15 -9 -67l-36 -194q-10 -52 -10 -59q0 -9 4.5 -15.5t12.5 -6.5l17 2l13 3l10 1q11 0 12 -12l1 -11l1 -11q0 -2 -1.5 -6.5t-16.5 -9.5l-161 -57
q-37 8 -37 40l3 27l16 87q-84 -154 -181 -154zM222 74q26 0 56 28.5t56 75.5t42 101t16 101q0 79 -58 79q-23 0 -46 -13t-43 -36.5t-36 -55t-28 -75t-12 -94.5q0 -52 14 -81.5t39 -29.5zM349 537q-18 0 -40 8.5t-37.5 30.5t-15.5 50q0 22 12 48.5t42 47t65 20.5
q40 0 66.5 -26.5t26.5 -65.5q0 -47 -35 -80t-84 -33zM356 585q22 0 38.5 18t16.5 43q0 20 -12.5 33.5t-30.5 13.5q-23 0 -39.5 -17.5t-16.5 -42.5q0 -21 12.5 -34.5t31.5 -13.5z" />
    <glyph glyph-name="ae" unicode="&#xe6;" horiz-adv-x="811" 
d="M25 168q0 66 28 129t77.5 111.5t113.5 76t132 27.5q36 0 70.5 -8t50.5 -20q9 -8 18 -27q43 30 77.5 42.5t76.5 12.5q65 0 104.5 -30.5t39.5 -80.5q0 -77 -104 -128q-81 -39 -196 -40l-2 -33q0 -29 10 -61t36.5 -53.5t61.5 -21.5q24 0 53.5 10t49.5 25q9 7 16 7l5 -3l8 -5
q4 -3 4 -9l-2 -10l-6 -24q-4 -16 -21 -27q-32 -19 -78 -29.5t-83 -10.5q-84 0 -135 53q-17 18 -28.5 39.5t-20.5 58.5q-54 -74 -107.5 -112.5t-101.5 -38.5q-37 0 -72.5 24t-55 67.5t-19.5 88.5zM225 74q20 0 47.5 19.5t60 68t51.5 109.5t19 108q0 38 -16.5 59t-47.5 21
q-30 0 -56 -16.5t-50 -51.5q-28 -41 -46 -98.5t-18 -108.5t15 -80.5t41 -29.5zM521 293q85 0 136.5 29t51.5 77q0 24 -15 40t-37 16q-45 0 -80.5 -42.5t-55.5 -119.5z" />
    <glyph glyph-name="ccedilla" unicode="&#xe7;" horiz-adv-x="451" 
d="M117 15q-41 26 -65.5 73t-24.5 102q0 63 27 122t74 104t108.5 70.5t126.5 25.5q105 0 105 -34l-2 -19l-10 -60q-2 -14 -10 -19l-13 -7l-6 -1q-5 1 -8.5 4.5t-9.5 16.5q-12 25 -26.5 41.5t-46.5 16.5t-62.5 -19t-53.5 -53t-36 -78.5t-13 -91.5q0 -67 26.5 -105.5
t73.5 -38.5q24 0 51 9.5t43 24.5q12 11 16 11l5 -2l6 -5q7 -6 7 -10l-2 -11l-5 -21q-2 -8 -6.5 -17.5t-35.5 -24.5q-48 -23 -98 -28l-33 -60q18 3 29 3q37 0 58 -16t21 -44q0 -32 -26.5 -58t-61 -36.5t-62.5 -10.5q-27 0 -56 8.5t-29 15.5l2 6l11 16q4 6 8 6l5 -1
q32 -9 52 -9q30 0 47.5 14t17.5 37q0 32 -42 32q-11 0 -34 -5l-7 5l56 95q-23 2 -45 6.5t-46 19.5z" />
    <glyph glyph-name="egrave" unicode="&#xe8;" horiz-adv-x="470" 
d="M30 201q0 62 23.5 119t65.5 100t97.5 67.5t115.5 24.5q30 0 63.5 -10t55 -37.5t21.5 -64.5q0 -46 -32.5 -82t-102.5 -58.5t-163 -25.5l-2 -31q0 -62 29 -100.5t77 -38.5q25 0 54 10t50 25q9 7 13 7l8 -4l6 -5q4 -3 4 -8l-2 -13l-6 -20l-5 -12.5t-12 -13.5
q-33 -19 -77 -30.5t-85 -11.5q-90 0 -143 57t-53 156zM182 293q85 0 136 29.5t51 77.5q0 24 -15 39.5t-37 15.5q-32 0 -60 -23.5t-46 -62t-29 -76.5zM359 548l-173 108q-18 11 -25.5 16.5t-7.5 13.5t10 15l45 32q12 9 20 9q13 0 30 -20l149 -174h-48z" />
    <glyph glyph-name="eacute" unicode="&#xe9;" horiz-adv-x="470" 
d="M30 201q0 62 23.5 119t65.5 100t97.5 67.5t115.5 24.5q30 0 63.5 -10t55 -37.5t21.5 -64.5q0 -46 -32.5 -82t-102.5 -58.5t-163 -25.5l-2 -31q0 -62 29 -100.5t77 -38.5q25 0 54 10t50 25q9 7 13 7l8 -4l6 -5q4 -3 4 -8l-2 -13l-6 -20l-5 -12.5t-12 -13.5
q-33 -19 -77 -30.5t-85 -11.5q-90 0 -143 57t-53 156zM182 293q85 0 136 29.5t51 77.5q0 24 -15 39.5t-37 15.5q-32 0 -60 -23.5t-46 -62t-29 -76.5zM205 548l196 174q22 20 35 20q9 0 18 -9l36 -32q5 -5 5 -11q0 -8 -7.5 -14.5t-31.5 -19.5l-203 -108h-48z" />
    <glyph glyph-name="ecircumflex" unicode="&#xea;" horiz-adv-x="470" 
d="M30 201q0 62 23.5 119t65.5 100t97.5 67.5t115.5 24.5q30 0 63.5 -10t55 -37.5t21.5 -64.5q0 -46 -32.5 -82t-102.5 -58.5t-163 -25.5l-2 -31q0 -62 29 -100.5t77 -38.5q25 0 54 10t50 25q9 7 13 7l8 -4l6 -5q4 -3 4 -8l-2 -13l-6 -20l-5 -12.5t-12 -13.5
q-33 -19 -77 -30.5t-85 -11.5q-90 0 -143 57t-53 156zM182 293q85 0 136 29.5t51 77.5q0 24 -15 39.5t-37 15.5q-32 0 -60 -23.5t-46 -62t-29 -76.5zM127 558l176 172h76l131 -172h-49l-131 97l-155 -97h-48z" />
    <glyph glyph-name="edieresis" unicode="&#xeb;" horiz-adv-x="470" 
d="M30 201q0 62 23.5 119t65.5 100t97.5 67.5t115.5 24.5q30 0 63.5 -10t55 -37.5t21.5 -64.5q0 -46 -32.5 -82t-102.5 -58.5t-163 -25.5l-2 -31q0 -62 29 -100.5t77 -38.5q25 0 54 10t50 25q9 7 13 7l8 -4l6 -5q4 -3 4 -8l-2 -13l-6 -20l-5 -12.5t-12 -13.5
q-33 -19 -77 -30.5t-85 -11.5q-90 0 -143 57t-53 156zM182 293q85 0 136 29.5t51 77.5q0 24 -15 39.5t-37 15.5q-32 0 -60 -23.5t-46 -62t-29 -76.5zM422 573q-21 0 -35 14t-14 35q0 27 20.5 48.5t47.5 21.5q22 0 36.5 -14t14.5 -35q0 -28 -21 -49t-49 -21zM219 572
q-21 0 -35.5 14t-14.5 35q0 26 22 48t49 22q21 0 34.5 -13.5t13.5 -35.5q0 -29 -20.5 -49.5t-48.5 -20.5z" />
    <glyph glyph-name="igrave" unicode="&#xec;" horiz-adv-x="283" 
d="M47 24l4 35l56 301q7 40 7 52q0 25 -26 34l-14 5q-3 1 -8 3.5t-5 7.5l2 7l5 20q2 11 22 11h150q20 0 20 -11l-2 -17l-56 -302q-9 -50 -9 -59t4.5 -15.5t11.5 -6.5l15 2l16 3l10 1q10 0 11 -12l1 -9l1 -13q0 -10 -17 -16l-167 -57q-18 5 -25 13.5t-7 22.5zM222 548
l-173 108q-18 11 -25.5 16.5t-7.5 13.5t10 15l45 32q12 9 20 9q13 0 30 -20l149 -174h-48z" />
    <glyph glyph-name="iacute" unicode="&#xed;" horiz-adv-x="283" 
d="M47 24l4 35l56 301q7 40 7 52q0 25 -26 34l-14 5q-3 1 -8 3.5t-5 7.5l2 7l5 20q2 11 22 11h150q20 0 20 -11l-2 -17l-56 -302q-9 -50 -9 -59t4.5 -15.5t11.5 -6.5l15 2l16 3l10 1q10 0 11 -12l1 -9l1 -13q0 -10 -17 -16l-167 -57q-18 5 -25 13.5t-7 22.5zM68 548l196 174
q22 20 35 20q9 0 18 -9l36 -32q5 -5 5 -11q0 -8 -7.5 -14.5t-31.5 -19.5l-203 -108h-48z" />
    <glyph glyph-name="icircumflex" unicode="&#xee;" horiz-adv-x="283" 
d="M47 24l4 35l56 301q7 40 7 52q0 25 -26 34l-14 5q-3 1 -8 3.5t-5 7.5l2 7l5 20q2 11 22 11h150q20 0 20 -11l-2 -17l-56 -302q-9 -50 -9 -59t4.5 -15.5t11.5 -6.5l15 2l16 3l10 1q10 0 11 -12l1 -9l1 -13q0 -10 -17 -16l-167 -57q-18 5 -25 13.5t-7 22.5zM-10 558
l176 172h76l131 -172h-49l-131 97l-155 -97h-48z" />
    <glyph glyph-name="idieresis" unicode="&#xef;" horiz-adv-x="283" 
d="M47 24l4 35l56 301q7 40 7 52q0 25 -26 34l-14 5q-3 1 -8 3.5t-5 7.5l2 7l5 20q2 11 22 11h150q20 0 20 -11l-2 -17l-56 -302q-9 -50 -9 -59t4.5 -15.5t11.5 -6.5l15 2l16 3l10 1q10 0 11 -12l1 -9l1 -13q0 -10 -17 -16l-167 -57q-18 5 -25 13.5t-7 22.5zM285 573
q-21 0 -35 14t-14 35q0 27 20.5 48.5t47.5 21.5q22 0 36.5 -14t14.5 -35q0 -28 -21 -49t-49 -21zM82 572q-21 0 -35.5 14t-14.5 35q0 26 22 48t49 22q21 0 34.5 -13.5t13.5 -35.5q0 -29 -20.5 -49.5t-48.5 -20.5z" />
    <glyph glyph-name="eth" unicode="&#xf0;" horiz-adv-x="565" 
d="M26 201q0 59 23 116t63.5 101t92.5 69t106 25q52 0 90 -24q-8 37 -22.5 72t-29.5 58l-116 -62l-24 43l107 57q-33 32 -83 58l-2 15l-2 27q0 8 5.5 14t13.5 6q17 0 62 -25t81 -55l113 60l23 -43l-98 -53q110 -121 110 -300q0 -79 -22.5 -148t-64 -119t-98.5 -77.5
t-122 -27.5q-92 0 -149 59t-57 154zM168 191q0 -67 21.5 -105t60.5 -38q32 0 59.5 26.5t46.5 74.5q14 38 23 88t9 91q0 60 -20 92.5t-57 32.5q-30 0 -57 -22t-47 -63q-20 -40 -29.5 -87.5t-9.5 -89.5z" />
    <glyph glyph-name="ntilde" unicode="&#xf1;" horiz-adv-x="602" 
d="M40 0l67 360q7 36 7 53q0 24 -26 33l-14 5q-12 4 -12 11l1 7l6 20q1 3 4 7t18 4h145q24 0 24 -11l-2 -15l-16 -88q18 25 34.5 44.5t39.5 37.5q25 18 58 31t66 13q48 0 76 -29t28 -78q0 -17 -1.5 -31t-9.5 -56l-27 -148q-9 -49 -9 -58q0 -10 4 -16.5t11 -6.5l19 2l9 2
l14 2q10 0 11 -12l1 -9l1 -12q0 -3 -1.5 -7.5t-15.5 -9.5l-166 -57q-13 5 -22.5 13t-9.5 26q0 14 3 29l43 234q11 56 11 82q0 27 -11.5 43t-31.5 16q-51 0 -104 -84q-18 -29 -33 -68.5t-37 -158.5l-22 -120h-130zM557 693h11q10 0 10 -5q0 -6 -9 -24q-21 -43 -57 -67
t-81 -24q-11 0 -26.5 2t-57.5 20q-44 19 -72 19q-48 0 -82 -38q-3 -3 -9 -3h-12q-8 0 -8 6q0 3 10 22q46 86 130 86q7 0 22.5 -2t53.5 -18q24 -10 41.5 -15.5t38.5 -5.5q52 0 87 43q3 4 10 4z" />
    <glyph glyph-name="ograve" unicode="&#xf2;" horiz-adv-x="565" 
d="M30 200q0 51 18.5 103t47 88.5t53.5 56.5q79 64 183 64q91 0 146.5 -57.5t55.5 -151.5q0 -63 -23 -121t-64 -101.5t-96 -68t-114 -24.5q-92 0 -149.5 59t-57.5 153zM172 191q0 -32 7 -66t27 -55.5t48 -21.5q33 0 60.5 26.5t46.5 74.5q15 37 24 88t9 91q0 44 -11.5 74
t-30 40.5t-36.5 10.5q-61 0 -104 -85q-20 -41 -30 -88.5t-10 -88.5zM371 548l-173 108q-18 11 -25.5 16.5t-7.5 13.5t10 15l45 32q12 9 20 9q13 0 30 -20l149 -174h-48z" />
    <glyph glyph-name="oacute" unicode="&#xf3;" horiz-adv-x="565" 
d="M30 200q0 51 18.5 103t47 88.5t53.5 56.5q79 64 183 64q91 0 146.5 -57.5t55.5 -151.5q0 -63 -23 -121t-64 -101.5t-96 -68t-114 -24.5q-92 0 -149.5 59t-57.5 153zM172 191q0 -32 7 -66t27 -55.5t48 -21.5q33 0 60.5 26.5t46.5 74.5q15 37 24 88t9 91q0 44 -11.5 74
t-30 40.5t-36.5 10.5q-61 0 -104 -85q-20 -41 -30 -88.5t-10 -88.5zM217 548l196 174q22 20 35 20q9 0 18 -9l36 -32q5 -5 5 -11q0 -8 -7.5 -14.5t-31.5 -19.5l-203 -108h-48z" />
    <glyph glyph-name="ocircumflex" unicode="&#xf4;" horiz-adv-x="565" 
d="M30 200q0 51 18.5 103t47 88.5t53.5 56.5q79 64 183 64q91 0 146.5 -57.5t55.5 -151.5q0 -63 -23 -121t-64 -101.5t-96 -68t-114 -24.5q-92 0 -149.5 59t-57.5 153zM172 191q0 -32 7 -66t27 -55.5t48 -21.5q33 0 60.5 26.5t46.5 74.5q15 37 24 88t9 91q0 44 -11.5 74
t-30 40.5t-36.5 10.5q-61 0 -104 -85q-20 -41 -30 -88.5t-10 -88.5zM139 558l176 172h76l131 -172h-49l-131 97l-155 -97h-48z" />
    <glyph glyph-name="otilde" unicode="&#xf5;" horiz-adv-x="565" 
d="M30 200q0 51 18.5 103t47 88.5t53.5 56.5q79 64 183 64q91 0 146.5 -57.5t55.5 -151.5q0 -63 -23 -121t-64 -101.5t-96 -68t-114 -24.5q-92 0 -149.5 59t-57.5 153zM172 191q0 -32 7 -66t27 -55.5t48 -21.5q33 0 60.5 26.5t46.5 74.5q15 37 24 88t9 91q0 44 -11.5 74
t-30 40.5t-36.5 10.5q-61 0 -104 -85q-20 -41 -30 -88.5t-10 -88.5zM530 693h11q10 0 10 -5q0 -6 -9 -24q-21 -43 -57 -67t-81 -24q-11 0 -26.5 2t-57.5 20q-44 19 -72 19q-48 0 -82 -38q-3 -3 -9 -3h-12q-8 0 -8 6q0 3 10 22q46 86 130 86q7 0 22.5 -2t53.5 -18
q24 -10 41.5 -15.5t38.5 -5.5q52 0 87 43q3 4 10 4z" />
    <glyph glyph-name="odieresis" unicode="&#xf6;" horiz-adv-x="565" 
d="M30 200q0 51 18.5 103t47 88.5t53.5 56.5q79 64 183 64q91 0 146.5 -57.5t55.5 -151.5q0 -63 -23 -121t-64 -101.5t-96 -68t-114 -24.5q-92 0 -149.5 59t-57.5 153zM172 191q0 -32 7 -66t27 -55.5t48 -21.5q33 0 60.5 26.5t46.5 74.5q15 37 24 88t9 91q0 44 -11.5 74
t-30 40.5t-36.5 10.5q-61 0 -104 -85q-20 -41 -30 -88.5t-10 -88.5zM434 573q-21 0 -35 14t-14 35q0 27 20.5 48.5t47.5 21.5q22 0 36.5 -14t14.5 -35q0 -28 -21 -49t-49 -21zM231 572q-21 0 -35.5 14t-14.5 35q0 26 22 48t49 22q21 0 34.5 -13.5t13.5 -35.5
q0 -29 -20.5 -49.5t-48.5 -20.5z" />
    <glyph glyph-name="divide" unicode="&#xf7;" 
d="M298 367q-26 0 -45 19t-19 45t19 44.5t45 18.5t45 -18.5t19 -44.5t-19 -45t-45 -19zM41 221v77h513v-77h-513zM233 88q0 26 19.5 44.5t45.5 18.5q27 0 45.5 -18.5t18.5 -44.5t-19 -45.5t-45 -19.5t-45.5 19.5t-19.5 45.5z" />
    <glyph glyph-name="oslash" unicode="&#xf8;" horiz-adv-x="565" 
d="M6 -23l-31 34l81 73q-26 55 -26 114q0 66 30 131.5t81 112.5q17 16 46.5 32.5t68.5 27t72 10.5q47 0 83 -13t66 -41l69 60l31 -34l-70 -63q27 -51 27 -114q0 -65 -23 -123.5t-64 -102.5t-95 -68.5t-113 -24.5q-34 0 -73 10.5t-83 49.5zM170 180l217 207q-8 35 -25 50.5
t-46 15.5q-36 0 -68 -32.5t-54.5 -95t-23.5 -145.5zM178 122q10 -39 28 -56.5t48 -17.5q58 0 95.5 73.5t46.5 206.5z" />
    <glyph glyph-name="ugrave" unicode="&#xf9;" horiz-adv-x="602" 
d="M60 107q0 14 1.5 30t14.5 85l26 138q7 35 7 53q0 22 -26 33l-13 5q-3 1 -8 3.5t-5 7.5l1 7l6 20q3 11 22 11h146q22 0 22 -15l-2 -18l-44 -237q-11 -60 -11 -90q0 -26 12 -40.5t33 -14.5q23 0 49.5 21.5t48.5 58.5q42 68 69 208l25 127h130l-61 -330q-9 -46 -9 -59
q0 -9 4.5 -15.5t11.5 -6.5l16 2l10 2l15 2q10 0 11 -12l1 -9l1 -13q0 -2 -1.5 -6.5t-15.5 -9.5l-165 -57q-35 9 -35 36q0 7 6 37l13 72q-17 -28 -34 -50.5t-46 -45.5q-28 -23 -61 -36t-64 -13q-21 0 -45 10.5t-40 39.5t-16 69zM379 548l-173 108q-18 11 -25.5 16.5
t-7.5 13.5t10 15l45 32q12 9 20 9q13 0 30 -20l149 -174h-48z" />
    <glyph glyph-name="uacute" unicode="&#xfa;" horiz-adv-x="602" 
d="M60 107q0 14 1.5 30t14.5 85l26 138q7 35 7 53q0 22 -26 33l-13 5q-3 1 -8 3.5t-5 7.5l1 7l6 20q3 11 22 11h146q22 0 22 -15l-2 -18l-44 -237q-11 -60 -11 -90q0 -26 12 -40.5t33 -14.5q23 0 49.5 21.5t48.5 58.5q42 68 69 208l25 127h130l-61 -330q-9 -46 -9 -59
q0 -9 4.5 -15.5t11.5 -6.5l16 2l10 2l15 2q10 0 11 -12l1 -9l1 -13q0 -2 -1.5 -6.5t-15.5 -9.5l-165 -57q-35 9 -35 36q0 7 6 37l13 72q-17 -28 -34 -50.5t-46 -45.5q-28 -23 -61 -36t-64 -13q-21 0 -45 10.5t-40 39.5t-16 69zM225 548l196 174q22 20 35 20q9 0 18 -9
l36 -32q5 -5 5 -11q0 -8 -7.5 -14.5t-31.5 -19.5l-203 -108h-48z" />
    <glyph glyph-name="ucircumflex" unicode="&#xfb;" horiz-adv-x="602" 
d="M60 107q0 14 1.5 30t14.5 85l26 138q7 35 7 53q0 22 -26 33l-13 5q-3 1 -8 3.5t-5 7.5l1 7l6 20q3 11 22 11h146q22 0 22 -15l-2 -18l-44 -237q-11 -60 -11 -90q0 -26 12 -40.5t33 -14.5q23 0 49.5 21.5t48.5 58.5q42 68 69 208l25 127h130l-61 -330q-9 -46 -9 -59
q0 -9 4.5 -15.5t11.5 -6.5l16 2l10 2l15 2q10 0 11 -12l1 -9l1 -13q0 -2 -1.5 -6.5t-15.5 -9.5l-165 -57q-35 9 -35 36q0 7 6 37l13 72q-17 -28 -34 -50.5t-46 -45.5q-28 -23 -61 -36t-64 -13q-21 0 -45 10.5t-40 39.5t-16 69zM147 558l176 172h76l131 -172h-49l-131 97
l-155 -97h-48z" />
    <glyph glyph-name="udieresis" unicode="&#xfc;" horiz-adv-x="602" 
d="M60 107q0 14 1.5 30t14.5 85l26 138q7 35 7 53q0 22 -26 33l-13 5q-3 1 -8 3.5t-5 7.5l1 7l6 20q3 11 22 11h146q22 0 22 -15l-2 -18l-44 -237q-11 -60 -11 -90q0 -26 12 -40.5t33 -14.5q23 0 49.5 21.5t48.5 58.5q42 68 69 208l25 127h130l-61 -330q-9 -46 -9 -59
q0 -9 4.5 -15.5t11.5 -6.5l16 2l10 2l15 2q10 0 11 -12l1 -9l1 -13q0 -2 -1.5 -6.5t-15.5 -9.5l-165 -57q-35 9 -35 36q0 7 6 37l13 72q-17 -28 -34 -50.5t-46 -45.5q-28 -23 -61 -36t-64 -13q-21 0 -45 10.5t-40 39.5t-16 69zM442 573q-21 0 -35 14t-14 35q0 27 20.5 48.5
t47.5 21.5q22 0 36.5 -14t14.5 -35q0 -28 -21 -49t-49 -21zM239 572q-21 0 -35.5 14t-14.5 35q0 26 22 48t49 22q21 0 34.5 -13.5t13.5 -35.5q0 -29 -20.5 -49.5t-48.5 -20.5z" />
    <glyph glyph-name="yacute" unicode="&#xfd;" horiz-adv-x="470" 
d="M83 -98l63 100l-57 336q-10 58 -18 75t-35 30q-12 6 -12 11q0 6 3 10l14 23q2 4 6 8.5t21 4.5h142l39 -364l97 158q19 30 33 60.5t14 59.5l-3 60v6q0 4 2 10.5t16 9.5l35 8l13 2q8 0 14 -12l18 -38q7 -14 7 -25q0 -12 -6.5 -28t-54.5 -89l-315 -481q-36 -55 -54 -70.5
t-45 -15.5h-49q-12 0 -18 3t-8 11l-8 32l-2 11q0 9 17 13l41 9q24 5 43 16.5t47 55.5zM189 548l196 174q22 20 35 20q9 0 18 -9l36 -32q5 -5 5 -11q0 -8 -7.5 -14.5t-31.5 -19.5l-203 -108h-48z" />
    <glyph glyph-name="thorn" unicode="&#xfe;" horiz-adv-x="583" 
d="M167 12l-23 -121q-8 -45 -8 -54q0 -20 26 -31l14 -6q3 -1 7.5 -3t4.5 -8l-1 -7l-5 -20q-2 -11 -23 -11h-132q-17 0 -22.5 4.5t-5.5 14.5l2 17l149 805q7 38 7 54q0 11 -6.5 20t-18.5 13l-14 5q-3 1 -7.5 3.5t-4.5 8.5l1 7l5 18q1 3 4 7t19 4h138q5 0 14 -1.5t9 -12.5
l-2 -18l-55 -297q50 56 95 82.5t91 26.5q60 0 97 -49t37 -127q0 -31 -8.5 -74t-32.5 -90t-58 -82q-41 -43 -99.5 -71.5t-106.5 -28.5q-8 0 -26 2t-61 20zM193 126q0 -78 65 -78q30 0 59.5 22t52.5 60t36.5 86.5t13.5 98.5q0 54 -19.5 86t-51.5 32q-30 0 -59 -26t-49 -71
q-21 -46 -34.5 -105t-13.5 -105z" />
    <glyph glyph-name="ydieresis" unicode="&#xff;" horiz-adv-x="470" 
d="M83 -98l63 100l-57 336q-10 58 -18 75t-35 30q-12 6 -12 11q0 6 3 10l14 23q2 4 6 8.5t21 4.5h142l39 -364l97 158q19 30 33 60.5t14 59.5l-3 60v6q0 4 2 10.5t16 9.5l35 8l13 2q8 0 14 -12l18 -38q7 -14 7 -25q0 -12 -6.5 -28t-54.5 -89l-315 -481q-36 -55 -54 -70.5
t-45 -15.5h-49q-12 0 -18 3t-8 11l-8 32l-2 11q0 9 17 13l41 9q24 5 43 16.5t47 55.5zM406 573q-21 0 -35 14t-14 35q0 27 20.5 48.5t47.5 21.5q22 0 36.5 -14t14.5 -35q0 -28 -21 -49t-49 -21zM203 572q-21 0 -35.5 14t-14.5 35q0 26 22 48t49 22q21 0 34.5 -13.5
t13.5 -35.5q0 -29 -20.5 -49.5t-48.5 -20.5z" />
    <glyph glyph-name="Amacron" unicode="&#x100;" horiz-adv-x="641" 
d="M-44 0q-17 0 -17 8l2 8l10 18q4 8 18 12q24 6 39.5 16.5t44.5 65.5l225 419q23 44 27 52.5t4 18.5q0 26 -48 38q-12 3 -12 10q0 6 3 10l7 12q2 4 5.5 8t19.5 4h144q7 0 15 -1t10 -11l78 -495q14 -89 20.5 -108t18 -25.5t31.5 -11.5q11 -3 11 -10l-3 -9l-12 -18
q-2 -3 -6 -7t-22 -4h-206q-21 0 -21 8l2 6l12 19q1 2 4 5t21 10q27 9 27 43q0 21 -2 35l-9 77h-232l-50 -94q-15 -28 -15 -39q0 -12 22 -24q10 -4 10 -9t-3 -10l-10 -16q-2 -3 -6 -7t-20 -4h-137zM198 267h191l-37 295zM224 797l10 68h320l-10 -68h-320z" />
    <glyph glyph-name="amacron" unicode="&#x101;" horiz-adv-x="583" 
d="M169 -12q-62 0 -103 52t-41 132q0 67 27 129t75 109.5t111 74.5t130 27q33 0 68.5 -8.5t60.5 -21.5q16 -9 25 -23t9 -28q0 -15 -9 -67l-36 -194q-10 -52 -10 -59q0 -9 4.5 -15.5t12.5 -6.5l17 2l13 3l10 1q11 0 12 -12l1 -11l1 -11q0 -2 -1.5 -6.5t-16.5 -9.5l-161 -57
q-37 8 -37 40l3 27l16 87q-84 -154 -181 -154zM222 74q26 0 56 28.5t56 75.5t42 101t16 101q0 79 -58 79q-23 0 -46 -13t-43 -36.5t-36 -55t-28 -75t-12 -94.5q0 -52 14 -81.5t39 -29.5zM196 597l10 68h320l-10 -68h-320z" />
    <glyph glyph-name="Abreve" unicode="&#x102;" horiz-adv-x="641" 
d="M-44 0q-17 0 -17 8l2 8l10 18q4 8 18 12q24 6 39.5 16.5t44.5 65.5l225 419q23 44 27 52.5t4 18.5q0 26 -48 38q-12 3 -12 10q0 6 3 10l7 12q2 4 5.5 8t19.5 4h144q7 0 15 -1t10 -11l78 -495q14 -89 20.5 -108t18 -25.5t31.5 -11.5q11 -3 11 -10l-3 -9l-12 -18
q-2 -3 -6 -7t-22 -4h-206q-21 0 -21 8l2 6l12 19q1 2 4 5t21 10q27 9 27 43q0 21 -2 35l-9 77h-232l-50 -94q-15 -28 -15 -39q0 -12 22 -24q10 -4 10 -9t-3 -10l-10 -16q-2 -3 -6 -7t-20 -4h-137zM198 267h191l-37 295zM382 751q-23 0 -49 8.5t-49 28.5t-39 52t-16 74
q0 3 1 7.5t12 4.5h9q2 0 5.5 -1t7.5 -13q6 -17 21.5 -36t44 -31.5t62.5 -12.5q47 0 89.5 23.5t62.5 60.5q2 3 4 6.5t9 3.5h10q10 0 10 -6t-5.5 -21.5t-11.5 -27.5q-30 -55 -78 -87.5t-100 -32.5z" />
    <glyph glyph-name="abreve" unicode="&#x103;" horiz-adv-x="583" 
d="M169 -12q-62 0 -103 52t-41 132q0 67 27 129t75 109.5t111 74.5t130 27q33 0 68.5 -8.5t60.5 -21.5q16 -9 25 -23t9 -28q0 -15 -9 -67l-36 -194q-10 -52 -10 -59q0 -9 4.5 -15.5t12.5 -6.5l17 2l13 3l10 1q11 0 12 -12l1 -11l1 -11q0 -2 -1.5 -6.5t-16.5 -9.5l-161 -57
q-37 8 -37 40l3 27l16 87q-84 -154 -181 -154zM222 74q26 0 56 28.5t56 75.5t42 101t16 101q0 79 -58 79q-23 0 -46 -13t-43 -36.5t-36 -55t-28 -75t-12 -94.5q0 -52 14 -81.5t39 -29.5zM354 551q-23 0 -49 8.5t-49 28.5t-39 52t-16 74q0 3 1 7.5t12 4.5h9q2 0 5.5 -1
t7.5 -13q6 -17 21.5 -36t44 -31.5t62.5 -12.5q47 0 89.5 23.5t62.5 60.5q2 3 4 6.5t9 3.5h10q10 0 10 -6t-5.5 -21.5t-11.5 -27.5q-30 -55 -78 -87.5t-100 -32.5z" />
    <glyph glyph-name="Aogonek" unicode="&#x104;" horiz-adv-x="641" 
d="M-44 0q-17 0 -17 8l2 8l10 18q4 8 18 12q24 6 39.5 16.5t44.5 65.5l225 419q23 44 27 52.5t4 18.5q0 26 -48 38q-12 3 -12 10q0 6 3 10l7 12q2 4 5.5 8t19.5 4h144q7 0 15 -1t10 -11l78 -495q14 -89 20.5 -108t18 -25.5t31.5 -11.5q11 -3 11 -10l-3 -9l-12 -18
q-2 -3 -6 -7t-22 -4h-56q-37 -21 -57.5 -49.5t-20.5 -58.5q0 -27 16.5 -41t47.5 -14q22 0 49 8l9 2q4 0 7 -10l4 -13l1 -5q0 -5 -16 -12.5t-49 -15t-57 -7.5q-44 0 -71.5 21.5t-27.5 55.5q0 27 14 54.5t39 47.5q15 12 57 37h-95q-21 0 -21 8l2 6l12 19q1 2 4 5t21 10
q27 9 27 43q0 21 -2 35l-9 77h-232l-50 -94q-15 -28 -15 -39q0 -12 22 -24q10 -4 10 -9t-3 -10l-10 -16q-2 -3 -6 -7t-20 -4h-137zM198 267h191l-37 295z" />
    <glyph glyph-name="aogonek" unicode="&#x105;" horiz-adv-x="583" 
d="M529 45q-30 -11 -63 -35.5t-54.5 -59t-21.5 -58.5q0 -27 16.5 -41t47.5 -14q22 0 49 8l9 2q4 0 7 -10l4 -13l1 -5q0 -5 -16 -12.5t-49 -15t-57 -7.5q-44 0 -71.5 21.5t-27.5 55.5q0 20 10.5 45.5t36 51.5t59.5 46q-34 -8 -47 -8t-22 5.5t-9 26.5l3 27l16 87
q-84 -154 -181 -154q-62 0 -103 52t-41 132q0 67 27 129t75 109.5t111 74.5t130 27q33 0 68.5 -8.5t60.5 -21.5q16 -9 25 -23t9 -28q0 -15 -9 -67l-36 -194q-10 -52 -10 -59q0 -9 4.5 -15.5t12.5 -6.5l17 2l13 3l10 1q11 0 12 -12l1 -11l1 -11q0 -2 -1.5 -6.5t-16.5 -9.5z
M222 74q26 0 56 28.5t56 75.5t42 101t16 101q0 79 -58 79q-23 0 -46 -13t-43 -36.5t-36 -55t-28 -75t-12 -94.5q0 -52 14 -81.5t39 -29.5z" />
    <glyph glyph-name="Cacute" unicode="&#x106;" horiz-adv-x="659" 
d="M174 47q-54 39 -85.5 105t-31.5 142q0 83 36.5 165t98.5 139q59 54 140 84t167 30q51 0 103 -11.5t80.5 -25.5t28.5 -26l-2 -13l-13 -72q-1 -5 -3 -13t-12 -11l-21 -7l-10 -2q-4 0 -6.5 3.5t-21.5 44.5q-16 35 -52 55t-84 20t-92 -19.5t-79 -56.5q-47 -50 -75.5 -126
t-28.5 -150q0 -39 9.5 -82t35.5 -84.5t66 -62t81 -20.5q46 0 81 18t70 61q5 7 9.5 12t10.5 5q4 0 15.5 -4t19.5 -9q14 -7 14 -18q0 -3 -4 -10l-37 -66q-5 -8 -11.5 -17t-24.5 -16q-27 -10 -70.5 -15.5t-81.5 -5.5q-137 0 -220 59zM387 748l196 174q22 20 35 20q9 0 18 -9
l36 -32q5 -5 5 -11q0 -8 -7.5 -14.5t-31.5 -19.5l-203 -108h-48z" />
    <glyph glyph-name="cacute" unicode="&#x107;" horiz-adv-x="451" 
d="M27 190q0 63 27 122t74 104t108.5 70.5t126.5 25.5q105 0 105 -34l-2 -19l-10 -60q-2 -14 -10 -19l-13 -7l-6 -1q-2 0 -5.5 1.5t-12.5 19.5q-13 26 -27 42t-46 16t-62.5 -19t-53.5 -53t-36 -78.5t-13 -91.5q0 -68 26.5 -106.5t73.5 -38.5q24 0 51 10t43 25q11 11 15 11
l7 -3l5 -4q7 -6 7 -11l-2 -11l-5 -20q-5 -23 -24 -33q-34 -18 -74.5 -29t-74.5 -11q-85 0 -138.5 56t-53.5 146zM225 548l196 174q22 20 35 20q9 0 18 -9l36 -32q5 -5 5 -11q0 -8 -7.5 -14.5t-31.5 -19.5l-203 -108h-48z" />
    <glyph glyph-name="Ccircumflex" unicode="&#x108;" horiz-adv-x="659" 
d="M174 47q-54 39 -85.5 105t-31.5 142q0 83 36.5 165t98.5 139q59 54 140 84t167 30q51 0 103 -11.5t80.5 -25.5t28.5 -26l-2 -13l-13 -72q-1 -5 -3 -13t-12 -11l-21 -7l-10 -2q-4 0 -6.5 3.5t-21.5 44.5q-16 35 -52 55t-84 20t-92 -19.5t-79 -56.5q-47 -50 -75.5 -126
t-28.5 -150q0 -39 9.5 -82t35.5 -84.5t66 -62t81 -20.5q46 0 81 18t70 61q5 7 9.5 12t10.5 5q4 0 15.5 -4t19.5 -9q14 -7 14 -18q0 -3 -4 -10l-37 -66q-5 -8 -11.5 -17t-24.5 -16q-27 -10 -70.5 -15.5t-81.5 -5.5q-137 0 -220 59zM309 758l176 172h76l131 -172h-49l-131 97
l-155 -97h-48z" />
    <glyph glyph-name="ccircumflex" unicode="&#x109;" horiz-adv-x="451" 
d="M27 190q0 63 27 122t74 104t108.5 70.5t126.5 25.5q105 0 105 -34l-2 -19l-10 -60q-2 -14 -10 -19l-13 -7l-6 -1q-2 0 -5.5 1.5t-12.5 19.5q-13 26 -27 42t-46 16t-62.5 -19t-53.5 -53t-36 -78.5t-13 -91.5q0 -68 26.5 -106.5t73.5 -38.5q24 0 51 10t43 25q11 11 15 11
l7 -3l5 -4q7 -6 7 -11l-2 -11l-5 -20q-5 -23 -24 -33q-34 -18 -74.5 -29t-74.5 -11q-85 0 -138.5 56t-53.5 146zM147 558l176 172h76l131 -172h-49l-131 97l-155 -97h-48z" />
    <glyph glyph-name="Cdotaccent" unicode="&#x10a;" horiz-adv-x="659" 
d="M174 47q-54 39 -85.5 105t-31.5 142q0 83 36.5 165t98.5 139q59 54 140 84t167 30q51 0 103 -11.5t80.5 -25.5t28.5 -26l-2 -13l-13 -72q-1 -5 -3 -13t-12 -11l-21 -7l-10 -2q-4 0 -6.5 3.5t-21.5 44.5q-16 35 -52 55t-84 20t-92 -19.5t-79 -56.5q-47 -50 -75.5 -126
t-28.5 -150q0 -39 9.5 -82t35.5 -84.5t66 -62t81 -20.5q46 0 81 18t70 61q5 7 9.5 12t10.5 5q4 0 15.5 -4t19.5 -9q14 -7 14 -18q0 -3 -4 -10l-37 -66q-5 -8 -11.5 -17t-24.5 -16q-27 -10 -70.5 -15.5t-81.5 -5.5q-137 0 -220 59zM503 774q-21 0 -36 14.5t-15 35.5
q0 27 22.5 49.5t49.5 22.5q21 0 35.5 -14.5t14.5 -35.5q0 -29 -21 -50.5t-50 -21.5z" />
    <glyph glyph-name="cdotaccent" unicode="&#x10b;" horiz-adv-x="451" 
d="M27 190q0 63 27 122t74 104t108.5 70.5t126.5 25.5q105 0 105 -34l-2 -19l-10 -60q-2 -14 -10 -19l-13 -7l-6 -1q-2 0 -5.5 1.5t-12.5 19.5q-13 26 -27 42t-46 16t-62.5 -19t-53.5 -53t-36 -78.5t-13 -91.5q0 -68 26.5 -106.5t73.5 -38.5q24 0 51 10t43 25q11 11 15 11
l7 -3l5 -4q7 -6 7 -11l-2 -11l-5 -20q-5 -23 -24 -33q-34 -18 -74.5 -29t-74.5 -11q-85 0 -138.5 56t-53.5 146zM341 574q-21 0 -36 14.5t-15 35.5q0 27 22.5 49.5t49.5 22.5q21 0 35.5 -14.5t14.5 -35.5q0 -29 -21 -50.5t-50 -21.5z" />
    <glyph glyph-name="Ccaron" unicode="&#x10c;" horiz-adv-x="659" 
d="M174 47q-54 39 -85.5 105t-31.5 142q0 83 36.5 165t98.5 139q59 54 140 84t167 30q51 0 103 -11.5t80.5 -25.5t28.5 -26l-2 -13l-13 -72q-1 -5 -3 -13t-12 -11l-21 -7l-10 -2q-4 0 -6.5 3.5t-21.5 44.5q-16 35 -52 55t-84 20t-92 -19.5t-79 -56.5q-47 -50 -75.5 -126
t-28.5 -150q0 -39 9.5 -82t35.5 -84.5t66 -62t81 -20.5q46 0 81 18t70 61q5 7 9.5 12t10.5 5q4 0 15.5 -4t19.5 -9q14 -7 14 -18q0 -3 -4 -10l-37 -66q-5 -8 -11.5 -17t-24.5 -16q-27 -10 -70.5 -15.5t-81.5 -5.5q-137 0 -220 59zM463 758l-131 172h49l130 -96l157 96h47
l-175 -172h-77z" />
    <glyph glyph-name="ccaron" unicode="&#x10d;" horiz-adv-x="451" 
d="M27 190q0 63 27 122t74 104t108.5 70.5t126.5 25.5q105 0 105 -34l-2 -19l-10 -60q-2 -14 -10 -19l-13 -7l-6 -1q-2 0 -5.5 1.5t-12.5 19.5q-13 26 -27 42t-46 16t-62.5 -19t-53.5 -53t-36 -78.5t-13 -91.5q0 -68 26.5 -106.5t73.5 -38.5q24 0 51 10t43 25q11 11 15 11
l7 -3l5 -4q7 -6 7 -11l-2 -11l-5 -20q-5 -23 -24 -33q-34 -18 -74.5 -29t-74.5 -11q-85 0 -138.5 56t-53.5 146zM301 558l-131 172h49l130 -96l157 96h47l-175 -172h-77z" />
    <glyph glyph-name="Dcaron" unicode="&#x10e;" horiz-adv-x="754" 
d="M71 43q0 12 6 46l91 487l3 29q0 20 -11 32t-37 17q-10 1 -10 8l4 9l10 19q1 3 5 6.5t20 3.5h262q57 0 104 -4t91 -23q63 -27 96 -89.5t33 -155.5q0 -45 -11.5 -102.5t-44 -114t-81 -100.5t-111.5 -73t-127 -39.5t-115 -10.5q-48 0 -93.5 5.5t-62.5 14.5q-21 11 -21 35z
M222 118q0 -35 24.5 -54t68.5 -19q57 0 108 28.5t88.5 79.5t58 121t20.5 149q0 157 -84 206q-16 9 -38.5 15.5t-71.5 6.5h-78l-89 -479q-7 -35 -7 -54zM411 758l-131 172h49l130 -96l157 96h47l-175 -172h-77z" />
    <glyph glyph-name="dcaron" unicode="&#x10f;" horiz-adv-x="583" 
d="M170 -12q-62 0 -103.5 53t-41.5 132q0 65 26 126.5t71.5 109t104.5 74.5t122 27q10 0 23.5 -1.5t43.5 -11.5l17 95q8 48 8 54q0 11 -6.5 20t-18.5 13l-15 5q-3 1 -8 3.5t-5 8.5l2 10l5 15q1 3 4 7t19 4h139q12 0 20 -2.5t8 -12.5l-3 -23l-105 -559l-3 -24q0 -9 5 -15.5
t12 -6.5l17 2l14 3l10 1q11 0 12 -12l1 -9l1 -13q0 -9 -18 -16l-157 -57q-14 3 -25 10.5t-11 25.5l3 26l19 96q-85 -158 -187 -158zM223 74q34 0 76.5 48t69.5 124t27 138q0 74 -62 74q-56 0 -103 -66q-29 -40 -46 -97.5t-17 -111.5q0 -23 4.5 -49t18 -43t32.5 -17zM641 518
l-28 27q51 60 51 87q0 14 -14 27.5t-16 21t-2 11.5q0 24 21.5 41.5t46.5 17.5q12 0 26.5 -8.5t25.5 -27.5t11 -37q0 -21 -30 -62.5t-92 -97.5z" />
    <glyph glyph-name="Dcroat" unicode="&#x110;" horiz-adv-x="754" 
d="M70 43q0 10 7 46l48 258h-119l9 51h119l33 179l4 29q0 14 -8 27t-40 21q-10 1 -10 8q1 6 4 9l10 19q1 3 5 6.5t20 3.5h263q57 0 104 -4t91 -23q62 -27 95 -89.5t33 -154.5q0 -133 -65.5 -235.5t-177.5 -154t-247 -51.5q-50 0 -95 5.5t-62 14.5q-21 11 -21 35zM221 119
q0 -35 25.5 -54.5t71.5 -19.5q57 0 107.5 28.5t87 79.5t57 121.5t20.5 149.5q0 156 -82 205q-16 9 -38.5 15.5t-72.5 6.5h-80l-47 -253h136l-9 -51h-136l-32 -175q-8 -46 -8 -53z" />
    <glyph glyph-name="dcroat" unicode="&#x111;" horiz-adv-x="583" 
d="M170 -12q-62 0 -103.5 53t-41.5 132q0 65 26 126.5t71.5 109t104.5 74.5t122 27q10 0 23.5 -1.5t43.5 -11.5l12 68h-207l11 52h205l4 29q0 11 -6.5 20t-18.5 13l-15 5q-3 1 -8 3.5t-5 8.5l2 10l5 15q1 3 4 7t19 4h139q12 0 20 -2.5t8 -12.5l-3 -23l-15 -77h93l-11 -52
h-91l-81 -430l-3 -24q0 -9 5 -15.5t12 -6.5l17 2l14 3l10 1q11 0 12 -12l1 -9l1 -13q0 -9 -18 -16l-157 -57q-14 3 -25 10.5t-11 25.5l3 26l19 96q-85 -158 -187 -158zM223 74q34 0 76.5 48t69.5 124t27 138q0 74 -62 74q-56 0 -103 -66q-29 -40 -46 -97.5t-17 -111.5
q0 -23 4.5 -49t18 -43t32.5 -17z" />
    <glyph glyph-name="Emacron" unicode="&#x112;" horiz-adv-x="566" 
d="M70 37q0 13 5 40l93 499l3 29q0 19 -11 30.5t-36 17.5q-10 3 -10 8q0 6 3 10l10 19q1 2 5 6t20 4h378q20 0 32.5 -2t12.5 -14l-2 -11l-11 -66q-1 -5 -3 -11t-11 -13l-22 -14l-6 -2q-5 0 -8 3.5t-15 34.5q-5 14 -15.5 24.5t-20.5 13.5q-3 1 -9 2.5t-42 1.5h-93l-44 -236
h201q5 0 12.5 -0.5t7.5 -7.5l-3 -10l-15 -30q-8 -17 -39 -17h-176l-34 -188q-7 -35 -7 -57q0 -29 15.5 -38.5t60.5 -9.5h54q37 0 63.5 18t52.5 61q7 11 15 11l9 -2l19 -6q11 -3 11 -9l-2 -13l-13 -67q-6 -29 -20 -37.5t-59 -8.5h-299q-31 0 -44 8.5t-13 28.5zM227 797l10 68
h320l-10 -68h-320z" />
    <glyph glyph-name="emacron" unicode="&#x113;" horiz-adv-x="470" 
d="M30 201q0 62 23.5 119t65.5 100t97.5 67.5t115.5 24.5q30 0 63.5 -10t55 -37.5t21.5 -64.5q0 -46 -32.5 -82t-102.5 -58.5t-163 -25.5l-2 -31q0 -62 29 -100.5t77 -38.5q25 0 54 10t50 25q9 7 13 7l8 -4l6 -5q4 -3 4 -8l-2 -13l-6 -20l-5 -12.5t-12 -13.5
q-33 -19 -77 -30.5t-85 -11.5q-90 0 -143 57t-53 156zM182 293q85 0 136 29.5t51 77.5q0 24 -15 39.5t-37 15.5q-32 0 -60 -23.5t-46 -62t-29 -76.5zM167 597l10 68h320l-10 -68h-320z" />
    <glyph glyph-name="Ebreve" unicode="&#x114;" horiz-adv-x="566" 
d="M70 37q0 13 5 40l93 499l3 29q0 19 -11 30.5t-36 17.5q-10 3 -10 8q0 6 3 10l10 19q1 2 5 6t20 4h378q20 0 32.5 -2t12.5 -14l-2 -11l-11 -66q-1 -5 -3 -11t-11 -13l-22 -14l-6 -2q-5 0 -8 3.5t-15 34.5q-5 14 -15.5 24.5t-20.5 13.5q-3 1 -9 2.5t-42 1.5h-93l-44 -236
h201q5 0 12.5 -0.5t7.5 -7.5l-3 -10l-15 -30q-8 -17 -39 -17h-176l-34 -188q-7 -35 -7 -57q0 -29 15.5 -38.5t60.5 -9.5h54q37 0 63.5 18t52.5 61q7 11 15 11l9 -2l19 -6q11 -3 11 -9l-2 -13l-13 -67q-6 -29 -20 -37.5t-59 -8.5h-299q-31 0 -44 8.5t-13 28.5zM385 751
q-23 0 -49 8.5t-49 28.5t-39 52t-16 74q0 3 1 7.5t12 4.5h9q2 0 5.5 -1t7.5 -13q6 -17 21.5 -36t44 -31.5t62.5 -12.5q47 0 89.5 23.5t62.5 60.5q2 3 4 6.5t9 3.5h10q10 0 10 -6t-5.5 -21.5t-11.5 -27.5q-30 -55 -78 -87.5t-100 -32.5z" />
    <glyph glyph-name="ebreve" unicode="&#x115;" horiz-adv-x="470" 
d="M30 201q0 62 23.5 119t65.5 100t97.5 67.5t115.5 24.5q30 0 63.5 -10t55 -37.5t21.5 -64.5q0 -46 -32.5 -82t-102.5 -58.5t-163 -25.5l-2 -31q0 -62 29 -100.5t77 -38.5q25 0 54 10t50 25q9 7 13 7l8 -4l6 -5q4 -3 4 -8l-2 -13l-6 -20l-5 -12.5t-12 -13.5
q-33 -19 -77 -30.5t-85 -11.5q-90 0 -143 57t-53 156zM182 293q85 0 136 29.5t51 77.5q0 24 -15 39.5t-37 15.5q-32 0 -60 -23.5t-46 -62t-29 -76.5zM325 551q-23 0 -49 8.5t-49 28.5t-39 52t-16 74q0 3 1 7.5t12 4.5h9q2 0 5.5 -1t7.5 -13q6 -17 21.5 -36t44 -31.5
t62.5 -12.5q47 0 89.5 23.5t62.5 60.5q2 3 4 6.5t9 3.5h10q10 0 10 -6t-5.5 -21.5t-11.5 -27.5q-30 -55 -78 -87.5t-100 -32.5z" />
    <glyph glyph-name="Edotaccent" unicode="&#x116;" horiz-adv-x="566" 
d="M70 37q0 13 5 40l93 499l3 29q0 19 -11 30.5t-36 17.5q-10 3 -10 8q0 6 3 10l10 19q1 2 5 6t20 4h378q20 0 32.5 -2t12.5 -14l-2 -11l-11 -66q-1 -5 -3 -11t-11 -13l-22 -14l-6 -2q-5 0 -8 3.5t-15 34.5q-5 14 -15.5 24.5t-20.5 13.5q-3 1 -9 2.5t-42 1.5h-93l-44 -236
h201q5 0 12.5 -0.5t7.5 -7.5l-3 -10l-15 -30q-8 -17 -39 -17h-176l-34 -188q-7 -35 -7 -57q0 -29 15.5 -38.5t60.5 -9.5h54q37 0 63.5 18t52.5 61q7 11 15 11l9 -2l19 -6q11 -3 11 -9l-2 -13l-13 -67q-6 -29 -20 -37.5t-59 -8.5h-299q-31 0 -44 8.5t-13 28.5zM381 774
q-21 0 -36 14.5t-15 35.5q0 27 22.5 49.5t49.5 22.5q21 0 35.5 -14.5t14.5 -35.5q0 -29 -21 -50.5t-50 -21.5z" />
    <glyph glyph-name="edotaccent" unicode="&#x117;" horiz-adv-x="470" 
d="M30 201q0 62 23.5 119t65.5 100t97.5 67.5t115.5 24.5q30 0 63.5 -10t55 -37.5t21.5 -64.5q0 -46 -32.5 -82t-102.5 -58.5t-163 -25.5l-2 -31q0 -62 29 -100.5t77 -38.5q25 0 54 10t50 25q9 7 13 7l8 -4l6 -5q4 -3 4 -8l-2 -13l-6 -20l-5 -12.5t-12 -13.5
q-33 -19 -77 -30.5t-85 -11.5q-90 0 -143 57t-53 156zM182 293q85 0 136 29.5t51 77.5q0 24 -15 39.5t-37 15.5q-32 0 -60 -23.5t-46 -62t-29 -76.5zM321 574q-21 0 -36 14.5t-15 35.5q0 27 22.5 49.5t49.5 22.5q21 0 35.5 -14.5t14.5 -35.5q0 -29 -21 -50.5t-50 -21.5z" />
    <glyph glyph-name="Eogonek" unicode="&#x118;" horiz-adv-x="566" 
d="M70 37q0 13 5 40l93 499l3 29q0 19 -11 30.5t-36 17.5q-10 3 -10 8q0 6 3 10l10 19q1 2 5 6t20 4h378q20 0 32.5 -2t12.5 -14l-2 -11l-11 -66q-1 -5 -3 -11t-11 -13l-22 -14l-6 -2q-5 0 -8 3.5t-15 34.5q-5 14 -15.5 24.5t-20.5 13.5q-3 1 -9 2.5t-42 1.5h-93l-44 -236
h201q5 0 12.5 -0.5t7.5 -7.5l-3 -10l-15 -30q-8 -17 -39 -17h-176l-34 -188q-7 -35 -7 -57q0 -29 15.5 -38.5t60.5 -9.5h54q37 0 63.5 18t52.5 61q7 11 15 11l9 -2l19 -6q11 -3 11 -9l-2 -13l-13 -67q-6 -29 -20 -37.5t-59 -8.5h-22q-37 -21 -57.5 -49.5t-20.5 -58.5
q0 -27 16.5 -41t47.5 -14q22 0 49 8l9 2q4 0 7 -10l4 -13l1 -5q0 -5 -16 -12.5t-49 -15t-57 -7.5q-44 0 -71.5 21.5t-27.5 55.5q0 27 14 54.5t39 47.5q15 12 57 37h-222q-31 0 -44 8.5t-13 28.5z" />
    <glyph glyph-name="eogonek" unicode="&#x119;" horiz-adv-x="470" 
d="M194 -37q11 9 36 25h-4q-90 0 -143 57t-53 156q0 62 23.5 119t65.5 100t97.5 67.5t115.5 24.5q30 0 63.5 -10t55 -37.5t21.5 -64.5q0 -46 -32.5 -82t-102.5 -58.5t-163 -25.5l-2 -31q0 -62 29 -100.5t77 -38.5q25 0 54 10t50 25q9 7 13 7l8 -4l6 -5q4 -3 4 -8l-2 -13
l-6 -20l-5 -12.5t-12 -13.5q-42 -24 -89 -33q-34 -21 -52.5 -49t-18.5 -56q0 -27 16.5 -41t47.5 -14q24 0 49 8l9 2q4 0 7 -10l4 -13l1 -5q0 -5 -16 -12.5t-49 -15t-57 -7.5q-44 0 -71.5 21.5t-27.5 55.5q0 27 14 54.5t39 47.5zM182 293q85 0 136 29.5t51 77.5
q0 24 -15 39.5t-37 15.5q-32 0 -60 -23.5t-46 -62t-29 -76.5z" />
    <glyph glyph-name="Ecaron" unicode="&#x11a;" horiz-adv-x="566" 
d="M70 37q0 13 5 40l93 499l3 29q0 19 -11 30.5t-36 17.5q-10 3 -10 8q0 6 3 10l10 19q1 2 5 6t20 4h378q20 0 32.5 -2t12.5 -14l-2 -11l-11 -66q-1 -5 -3 -11t-11 -13l-22 -14l-6 -2q-5 0 -8 3.5t-15 34.5q-5 14 -15.5 24.5t-20.5 13.5q-3 1 -9 2.5t-42 1.5h-93l-44 -236
h201q5 0 12.5 -0.5t7.5 -7.5l-3 -10l-15 -30q-8 -17 -39 -17h-176l-34 -188q-7 -35 -7 -57q0 -29 15.5 -38.5t60.5 -9.5h54q37 0 63.5 18t52.5 61q7 11 15 11l9 -2l19 -6q11 -3 11 -9l-2 -13l-13 -67q-6 -29 -20 -37.5t-59 -8.5h-299q-31 0 -44 8.5t-13 28.5zM341 758
l-131 172h49l130 -96l157 96h47l-175 -172h-77z" />
    <glyph glyph-name="ecaron" unicode="&#x11b;" horiz-adv-x="470" 
d="M30 201q0 62 23.5 119t65.5 100t97.5 67.5t115.5 24.5q30 0 63.5 -10t55 -37.5t21.5 -64.5q0 -46 -32.5 -82t-102.5 -58.5t-163 -25.5l-2 -31q0 -62 29 -100.5t77 -38.5q25 0 54 10t50 25q9 7 13 7l8 -4l6 -5q4 -3 4 -8l-2 -13l-6 -20l-5 -12.5t-12 -13.5
q-33 -19 -77 -30.5t-85 -11.5q-90 0 -143 57t-53 156zM182 293q85 0 136 29.5t51 77.5q0 24 -15 39.5t-37 15.5q-32 0 -60 -23.5t-46 -62t-29 -76.5zM281 558l-131 172h49l130 -96l157 96h47l-175 -172h-77z" />
    <glyph glyph-name="Gcircumflex" unicode="&#x11c;" horiz-adv-x="716" 
d="M510 29l7 37q-37 -41 -79 -59.5t-96 -18.5q-60 0 -113 23t-92 64.5t-60.5 98t-21.5 120.5q0 102 52 199t135 151q49 32 115 50t135 18q43 0 89 -8.5t82 -23.5q16 -7 27.5 -14t11.5 -18l-2 -21l-13 -66q-1 -4 -3 -11t-8 -9l-26 -8l-8 -2q-7 0 -14 17q-23 57 -58 81.5
t-91 24.5q-101 0 -175 -84q-21 -24 -43.5 -64t-37.5 -96t-15 -109q0 -39 8.5 -81t33 -83t61.5 -61.5t75 -20.5q23 0 48.5 8.5t48.5 28.5t39.5 52t16.5 73q0 17 -7.5 32t-35.5 21q-12 3 -12 10l2 9l9 15q6 11 25 11h139q5 0 14 -1.5t9 -12.5l-2 -12l-47 -254
q-3 -16 -8.5 -25.5t-25.5 -9.5h-70q-21 0 -21 13zM292 758l176 172h76l131 -172h-49l-131 97l-155 -97h-48z" />
    <glyph glyph-name="gcircumflex" unicode="&#x11d;" horiz-adv-x="564" 
d="M28 -104q2 0 5 -1t24 -16q23 -18 56 -30.5t61 -12.5q60 0 95.5 44.5t53.5 141.5l22 120q-15 -32 -31.5 -58t-44.5 -51q-22 -19 -48.5 -32t-51.5 -13q-29 0 -61.5 17.5t-56 63.5t-23.5 104q0 65 27 127t74.5 110t109 75t125.5 27q32 0 70 -8.5t62 -23.5q14 -8 21.5 -21.5
t7.5 -27.5q0 -17 -6 -46l-45 -243q-22 -120 -47 -193t-75 -124q-72 -73 -176 -73q-36 0 -77 11.5t-76 30.5q-30 17 -30 31l2 11l18 45q5 15 15 15zM222 74q25 0 54.5 29t55 76.5t41 102t15.5 100.5q0 38 -15 57.5t-43 19.5q-29 0 -57.5 -23.5t-51 -63.5t-35.5 -91t-13 -103
q0 -49 13 -76.5t36 -27.5zM160 558l176 172h76l131 -172h-49l-131 97l-155 -97h-48z" />
    <glyph glyph-name="Gbreve" unicode="&#x11e;" horiz-adv-x="716" 
d="M510 29l7 37q-37 -41 -79 -59.5t-96 -18.5q-60 0 -113 23t-92 64.5t-60.5 98t-21.5 120.5q0 102 52 199t135 151q49 32 115 50t135 18q43 0 89 -8.5t82 -23.5q16 -7 27.5 -14t11.5 -18l-2 -21l-13 -66q-1 -4 -3 -11t-8 -9l-26 -8l-8 -2q-7 0 -14 17q-23 57 -58 81.5
t-91 24.5q-101 0 -175 -84q-21 -24 -43.5 -64t-37.5 -96t-15 -109q0 -39 8.5 -81t33 -83t61.5 -61.5t75 -20.5q23 0 48.5 8.5t48.5 28.5t39.5 52t16.5 73q0 17 -7.5 32t-35.5 21q-12 3 -12 10l2 9l9 15q6 11 25 11h139q5 0 14 -1.5t9 -12.5l-2 -12l-47 -254
q-3 -16 -8.5 -25.5t-25.5 -9.5h-70q-21 0 -21 13zM490 751q-23 0 -49 8.5t-49 28.5t-39 52t-16 74q0 3 1 7.5t12 4.5h9q2 0 5.5 -1t7.5 -13q6 -17 21.5 -36t44 -31.5t62.5 -12.5q47 0 89.5 23.5t62.5 60.5q2 3 4 6.5t9 3.5h10q10 0 10 -6t-5.5 -21.5t-11.5 -27.5
q-30 -55 -78 -87.5t-100 -32.5z" />
    <glyph glyph-name="gbreve" unicode="&#x11f;" horiz-adv-x="564" 
d="M28 -104q2 0 5 -1t24 -16q23 -18 56 -30.5t61 -12.5q60 0 95.5 44.5t53.5 141.5l22 120q-15 -32 -31.5 -58t-44.5 -51q-22 -19 -48.5 -32t-51.5 -13q-29 0 -61.5 17.5t-56 63.5t-23.5 104q0 65 27 127t74.5 110t109 75t125.5 27q32 0 70 -8.5t62 -23.5q14 -8 21.5 -21.5
t7.5 -27.5q0 -17 -6 -46l-45 -243q-22 -120 -47 -193t-75 -124q-72 -73 -176 -73q-36 0 -77 11.5t-76 30.5q-30 17 -30 31l2 11l18 45q5 15 15 15zM222 74q25 0 54.5 29t55 76.5t41 102t15.5 100.5q0 38 -15 57.5t-43 19.5q-29 0 -57.5 -23.5t-51 -63.5t-35.5 -91t-13 -103
q0 -49 13 -76.5t36 -27.5zM358 551q-23 0 -49 8.5t-49 28.5t-39 52t-16 74q0 3 1 7.5t12 4.5h9q2 0 5.5 -1t7.5 -13q6 -17 21.5 -36t44 -31.5t62.5 -12.5q47 0 89.5 23.5t62.5 60.5q2 3 4 6.5t9 3.5h10q10 0 10 -6t-5.5 -21.5t-11.5 -27.5q-30 -55 -78 -87.5t-100 -32.5z
" />
    <glyph glyph-name="Gdotaccent" unicode="&#x120;" horiz-adv-x="716" 
d="M510 29l7 37q-37 -41 -79 -59.5t-96 -18.5q-60 0 -113 23t-92 64.5t-60.5 98t-21.5 120.5q0 102 52 199t135 151q49 32 115 50t135 18q43 0 89 -8.5t82 -23.5q16 -7 27.5 -14t11.5 -18l-2 -21l-13 -66q-1 -4 -3 -11t-8 -9l-26 -8l-8 -2q-7 0 -14 17q-23 57 -58 81.5
t-91 24.5q-101 0 -175 -84q-21 -24 -43.5 -64t-37.5 -96t-15 -109q0 -39 8.5 -81t33 -83t61.5 -61.5t75 -20.5q23 0 48.5 8.5t48.5 28.5t39.5 52t16.5 73q0 17 -7.5 32t-35.5 21q-12 3 -12 10l2 9l9 15q6 11 25 11h139q5 0 14 -1.5t9 -12.5l-2 -12l-47 -254
q-3 -16 -8.5 -25.5t-25.5 -9.5h-70q-21 0 -21 13zM486 774q-21 0 -36 14.5t-15 35.5q0 27 22.5 49.5t49.5 22.5q21 0 35.5 -14.5t14.5 -35.5q0 -29 -21 -50.5t-50 -21.5z" />
    <glyph glyph-name="gdotaccent" unicode="&#x121;" horiz-adv-x="564" 
d="M28 -104q2 0 5 -1t24 -16q23 -18 56 -30.5t61 -12.5q60 0 95.5 44.5t53.5 141.5l22 120q-15 -32 -31.5 -58t-44.5 -51q-22 -19 -48.5 -32t-51.5 -13q-29 0 -61.5 17.5t-56 63.5t-23.5 104q0 65 27 127t74.5 110t109 75t125.5 27q32 0 70 -8.5t62 -23.5q14 -8 21.5 -21.5
t7.5 -27.5q0 -17 -6 -46l-45 -243q-22 -120 -47 -193t-75 -124q-72 -73 -176 -73q-36 0 -77 11.5t-76 30.5q-30 17 -30 31l2 11l18 45q5 15 15 15zM222 74q25 0 54.5 29t55 76.5t41 102t15.5 100.5q0 38 -15 57.5t-43 19.5q-29 0 -57.5 -23.5t-51 -63.5t-35.5 -91t-13 -103
q0 -49 13 -76.5t36 -27.5zM354 574q-21 0 -36 14.5t-15 35.5q0 27 22.5 49.5t49.5 22.5q21 0 35.5 -14.5t14.5 -35.5q0 -29 -21 -50.5t-50 -21.5z" />
    <glyph glyph-name="uni0122" unicode="&#x122;" horiz-adv-x="716" 
d="M510 29l7 37q-37 -41 -79 -59.5t-96 -18.5q-60 0 -113 23t-92 64.5t-60.5 98t-21.5 120.5q0 102 52 199t135 151q49 32 115 50t135 18q43 0 89 -8.5t82 -23.5q16 -7 27.5 -14t11.5 -18l-2 -21l-13 -66q-1 -4 -3 -11t-8 -9l-26 -8l-8 -2q-7 0 -14 17q-23 57 -58 81.5
t-91 24.5q-101 0 -175 -84q-21 -24 -43.5 -64t-37.5 -96t-15 -109q0 -39 8.5 -81t33 -83t61.5 -61.5t75 -20.5q23 0 48.5 8.5t48.5 28.5t39.5 52t16.5 73q0 17 -7.5 32t-35.5 21q-12 3 -12 10l2 9l9 15q6 11 25 11h139q5 0 14 -1.5t9 -12.5l-2 -12l-47 -254
q-3 -16 -8.5 -25.5t-25.5 -9.5h-70q-21 0 -21 13zM257 -115q0 24 21.5 41.5t46.5 17.5q12 0 26.5 -8.5t25.5 -27.5t11 -37q0 -17 -16.5 -44.5t-49.5 -62.5t-65 -63l-31 23q36 42 49.5 64.5t13.5 36.5t-14 27.5t-16 21t-2 11.5z" />
    <glyph glyph-name="uni0123" unicode="&#x123;" horiz-adv-x="564" 
d="M28 -104q2 0 5 -1t24 -16q23 -18 56 -30.5t61 -12.5q60 0 95.5 44.5t53.5 141.5l22 120q-15 -32 -31.5 -58t-44.5 -51q-22 -19 -48.5 -32t-51.5 -13q-29 0 -61.5 17.5t-56 63.5t-23.5 104q0 65 27 127t74.5 110t109 75t125.5 27q32 0 70 -8.5t62 -23.5q14 -8 21.5 -21.5
t7.5 -27.5q0 -17 -6 -46l-45 -243q-22 -120 -47 -193t-75 -124q-72 -73 -176 -73q-36 0 -77 11.5t-76 30.5q-30 17 -30 31l2 11l18 45q5 15 15 15zM222 74q25 0 54.5 29t55 76.5t41 102t15.5 100.5q0 38 -15 57.5t-43 19.5q-29 0 -57.5 -23.5t-51 -63.5t-35.5 -91t-13 -103
q0 -49 13 -76.5t36 -27.5zM430 779l28 -27q-51 -60 -51 -87q0 -14 14 -27.5t16 -21t2 -11.5q0 -24 -21.5 -41.5t-46.5 -17.5q-12 0 -26.5 8.5t-25.5 27.5t-11 37q0 21 30 62.5t92 97.5z" />
    <glyph glyph-name="Hcircumflex" unicode="&#x124;" horiz-adv-x="772" 
d="M-5 9l2 7l10 17q2 3 6 7.5t20 8.5q28 7 37 20.5t17 59.5l83 447q6 32 6 41q0 11 -4.5 18.5t-33.5 15.5q-19 5 -19 10l3 10l11 19q1 2 5 6t19 4h214q15 0 22 -1t7 -7l-2 -8l-10 -17q-2 -3 -6 -7.5t-20 -8.5q-33 -8 -41 -26.5t-15 -54.5l-29 -152h279l29 158q5 30 5 41
q0 10 -5 18t-15 11l-30 8q-9 3 -9 7q0 5 4 10l12 19q1 2 5 6t20 4h212q14 0 21.5 -1t7.5 -8l-2 -7l-9 -17q-2 -3 -6 -7.5t-21 -8.5q-21 -5 -30.5 -13.5t-14.5 -26t-10 -41.5l-82 -446q-6 -32 -6 -42q0 -11 5 -18t32 -14q5 -1 12.5 -3.5t7.5 -7.5q0 -6 -3 -11l-11 -18
q-6 -10 -26 -10h-211q-14 0 -21.5 1t-7.5 8l2 7l10 17q2 3 5.5 7.5t20.5 8.5q28 7 38 21t18 59l40 223h-278l-43 -228q-5 -24 -5 -42q0 -10 5 -17t33 -15q19 -6 19 -11l-4 -12l-9 -17q-5 -10 -25 -10h-213q-14 0 -21 1t-7 8zM292 758l176 172h76l131 -172h-49l-131 97
l-155 -97h-48z" />
    <glyph glyph-name="hcircumflex" unicode="&#x125;" horiz-adv-x="602" 
d="M40 0l109 592q8 41 8 54q0 11 -6.5 20t-18.5 13l-14 5q-13 5 -13 12l2 7l5 18q1 3 4 7t18 4h144q25 0 25 -14l-1 -11l-60 -323q45 66 92 97t102 31q52 0 80.5 -28.5t28.5 -80.5q0 -19 -10 -74l-29 -159q-9 -51 -9 -59q0 -9 4.5 -15.5t11.5 -6.5l18 2l10 2l13 2
q10 0 11 -12l1 -8l1 -14q0 -2 -1.5 -6.5t-15.5 -9.5l-167 -57q-31 9 -31 36q0 14 5 44l36 193q14 75 14 110q0 60 -43 60q-23 0 -50.5 -21t-50.5 -58q-22 -34 -36 -78t-28 -121l-28 -153h-131zM39 770l176 172h76l131 -172h-49l-131 97l-155 -97h-48z" />
    <glyph glyph-name="Hbar" unicode="&#x126;" horiz-adv-x="772" 
d="M-5 9l2 7l10 17q2 3 6 7.5t20 8.5q28 7 37 20.5t17 59.5l69 373h-95l13 66h94l2 8q6 32 6 41q0 11 -4.5 18.5t-33.5 15.5q-19 5 -19 10l3 10l11 19q1 2 5 6t19 4h214q15 0 22 -1t7 -7l-2 -8l-10 -17q-2 -3 -6 -7.5t-20 -8.5q-22 -5 -34 -15.5t-23 -67.5h278l2 8
q5 30 5 41q0 10 -5 18t-15 11l-30 8q-9 3 -9 7q0 5 4 10l12 19q1 2 5 6t20 4h212q14 0 21.5 -1t7.5 -8l-2 -7l-9 -17q-2 -3 -6 -7.5t-21 -8.5q-21 -5 -33 -15.5t-23 -67.5h96l-13 -66h-95l-69 -378q-6 -32 -6 -42q0 -11 5 -18t32 -14q5 -1 12.5 -3.5t7.5 -7.5q0 -6 -3 -11
l-11 -18q-6 -10 -26 -10h-211q-14 0 -21.5 1t-7.5 8l2 7l10 17q2 3 5.5 7.5t20.5 8.5q28 7 38 21t18 59l40 223h-278l-43 -228q-5 -24 -5 -42q0 -10 5 -17t33 -15q19 -6 19 -11l-4 -12l-9 -17q-5 -10 -25 -10h-213q-14 0 -21 1t-7 8zM277 418h279l15 84h-278z" />
    <glyph glyph-name="hbar" unicode="&#x127;" horiz-adv-x="602" 
d="M40 0l104 565h-92l11 52h90q4 21 4 29q0 11 -6.5 20t-18.5 13l-14 5q-13 5 -13 12l2 7l5 18q1 3 4 7t18 4h144q25 0 25 -14l-1 -11l-17 -90h206l-11 -52h-205l-33 -181q45 66 92 97t102 31q52 0 80.5 -28.5t28.5 -80.5q0 -19 -10 -74l-29 -159q-9 -51 -9 -59
q0 -9 4.5 -15.5t11.5 -6.5l18 2l10 2l13 2q10 0 11 -12l1 -8l1 -14q0 -2 -1.5 -6.5t-15.5 -9.5l-167 -57q-31 9 -31 36q0 14 5 44l36 193q14 75 14 110q0 60 -43 60q-23 0 -50.5 -21t-50.5 -58q-22 -34 -36 -78t-28 -121l-28 -153h-131z" />
    <glyph glyph-name="Itilde" unicode="&#x128;" horiz-adv-x="358" 
d="M-5 9l2 7l10 17q2 3 6 7.5t20 8.5q21 5 32.5 16t21.5 65l83 446q6 36 6 41q0 11 -4.5 18.5t-33.5 15.5q-19 5 -19 10l3 10l11 19q1 2 5 6t20 4h212q15 0 22 -1t7 -8l-2 -7l-10 -17q-2 -3 -6 -7.5t-19 -8.5q-21 -5 -33 -15.5t-23 -65.5l-84 -446q-5 -25 -5 -42
q0 -11 5 -18t33 -14q19 -4 19 -11l-3 -11l-11 -18q-6 -10 -25 -10h-211q-14 0 -21.5 1t-7.5 8zM470 893h11q10 0 10 -5q0 -6 -9 -24q-21 -43 -57 -67t-81 -24q-11 0 -26.5 2t-57.5 20q-44 19 -72 19q-48 0 -82 -38q-3 -3 -9 -3h-12q-8 0 -8 6q0 3 10 22q46 86 130 86
q7 0 22.5 -2t53.5 -18q24 -10 41.5 -15.5t38.5 -5.5q52 0 87 43q3 4 10 4z" />
    <glyph glyph-name="itilde" unicode="&#x129;" horiz-adv-x="283" 
d="M47 24l4 35l56 301q7 40 7 52q0 25 -26 34l-14 5q-3 1 -8 3.5t-5 7.5l2 7l5 20q2 11 22 11h150q20 0 20 -11l-2 -17l-56 -302q-9 -50 -9 -59t4.5 -15.5t11.5 -6.5l15 2l16 3l10 1q10 0 11 -12l1 -9l1 -13q0 -10 -17 -16l-167 -57q-18 5 -25 13.5t-7 22.5zM381 693h11
q10 0 10 -5q0 -6 -9 -24q-21 -43 -57 -67t-81 -24q-11 0 -26.5 2t-57.5 20q-44 19 -72 19q-48 0 -82 -38q-3 -3 -9 -3h-12q-8 0 -8 6q0 3 10 22q46 86 130 86q7 0 22.5 -2t53.5 -18q24 -10 41.5 -15.5t38.5 -5.5q52 0 87 43q3 4 10 4z" />
    <glyph glyph-name="Imacron" unicode="&#x12a;" horiz-adv-x="358" 
d="M-5 9l2 7l10 17q2 3 6 7.5t20 8.5q21 5 32.5 16t21.5 65l83 446q6 36 6 41q0 11 -4.5 18.5t-33.5 15.5q-19 5 -19 10l3 10l11 19q1 2 5 6t20 4h212q15 0 22 -1t7 -8l-2 -7l-10 -17q-2 -3 -6 -7.5t-19 -8.5q-21 -5 -33 -15.5t-23 -65.5l-84 -446q-5 -25 -5 -42
q0 -11 5 -18t33 -14q19 -4 19 -11l-3 -11l-11 -18q-6 -10 -25 -10h-211q-14 0 -21.5 1t-7.5 8zM119 797l10 68h320l-10 -68h-320z" />
    <glyph glyph-name="imacron" unicode="&#x12b;" horiz-adv-x="283" 
d="M47 24l4 35l56 301q7 40 7 52q0 25 -26 34l-14 5q-3 1 -8 3.5t-5 7.5l2 7l5 20q2 11 22 11h150q20 0 20 -11l-2 -17l-56 -302q-9 -50 -9 -59t4.5 -15.5t11.5 -6.5l15 2l16 3l10 1q10 0 11 -12l1 -9l1 -13q0 -10 -17 -16l-167 -57q-18 5 -25 13.5t-7 22.5zM30 597l10 68
h320l-10 -68h-320z" />
    <glyph glyph-name="Ibreve" unicode="&#x12c;" horiz-adv-x="358" 
d="M-5 9l2 7l10 17q2 3 6 7.5t20 8.5q21 5 32.5 16t21.5 65l83 446q6 36 6 41q0 11 -4.5 18.5t-33.5 15.5q-19 5 -19 10l3 10l11 19q1 2 5 6t20 4h212q15 0 22 -1t7 -8l-2 -7l-10 -17q-2 -3 -6 -7.5t-19 -8.5q-21 -5 -33 -15.5t-23 -65.5l-84 -446q-5 -25 -5 -42
q0 -11 5 -18t33 -14q19 -4 19 -11l-3 -11l-11 -18q-6 -10 -25 -10h-211q-14 0 -21.5 1t-7.5 8zM277 751q-23 0 -49 8.5t-49 28.5t-39 52t-16 74q0 3 1 7.5t12 4.5h9q2 0 5.5 -1t7.5 -13q6 -17 21.5 -36t44 -31.5t62.5 -12.5q47 0 89.5 23.5t62.5 60.5q2 3 4 6.5t9 3.5h10
q10 0 10 -6t-5.5 -21.5t-11.5 -27.5q-30 -55 -78 -87.5t-100 -32.5z" />
    <glyph glyph-name="ibreve" unicode="&#x12d;" horiz-adv-x="283" 
d="M47 24l4 35l56 301q7 40 7 52q0 25 -26 34l-14 5q-3 1 -8 3.5t-5 7.5l2 7l5 20q2 11 22 11h150q20 0 20 -11l-2 -17l-56 -302q-9 -50 -9 -59t4.5 -15.5t11.5 -6.5l15 2l16 3l10 1q10 0 11 -12l1 -9l1 -13q0 -10 -17 -16l-167 -57q-18 5 -25 13.5t-7 22.5zM188 551
q-23 0 -49 8.5t-49 28.5t-39 52t-16 74q0 3 1 7.5t12 4.5h9q2 0 5.5 -1t7.5 -13q6 -17 21.5 -36t44 -31.5t62.5 -12.5q47 0 89.5 23.5t62.5 60.5q2 3 4 6.5t9 3.5h10q10 0 10 -6t-5.5 -21.5t-11.5 -27.5q-30 -55 -78 -87.5t-100 -32.5z" />
    <glyph glyph-name="Iogonek" unicode="&#x12e;" horiz-adv-x="358" 
d="M-5 9l2 7l10 17q2 3 6 7.5t20 8.5q21 5 32.5 16t21.5 65l83 446q6 36 6 41q0 11 -4.5 18.5t-33.5 15.5q-19 5 -19 10l3 10l11 19q1 2 5 6t20 4h212q15 0 22 -1t7 -8l-2 -7l-10 -17q-2 -3 -6 -7.5t-19 -8.5q-21 -5 -33 -15.5t-23 -65.5l-84 -446q-5 -25 -5 -42
q0 -11 5 -18t33 -14q19 -4 19 -11l-3 -11l-11 -18q-6 -10 -25 -10h-42q-37 -21 -57.5 -49.5t-20.5 -58.5q0 -27 16.5 -41t47.5 -14q21 0 48 7l10 3q4 0 7 -10l4 -13l1 -5q0 -5 -16 -12.5t-49 -15t-57 -7.5q-44 0 -71.5 21.5t-27.5 55.5q0 27 14 54.5t39 47.5q15 12 57 37
h-114q-14 0 -21.5 1t-7.5 8z" />
    <glyph glyph-name="iogonek" unicode="&#x12f;" horiz-adv-x="283" 
d="M19 -139q0 20 10.5 45.5t36 51.5t59.5 46q-38 -13 -54 -13q-11 0 -17.5 6t-6.5 27l4 35l56 301q7 40 7 52q0 25 -26 34l-14 5q-3 1 -8 3.5t-5 7.5l2 7l5 20q2 11 22 11h150q20 0 20 -11l-2 -17l-56 -302q-9 -50 -9 -59t4.5 -15.5t11.5 -6.5l15 2l16 3l10 1q10 0 11 -12
l1 -9l1 -13q0 -10 -17 -16q-30 -11 -63.5 -35.5t-55 -59t-21.5 -58.5q0 -27 16.5 -41t47.5 -14q22 0 49 8l9 2q4 0 7 -10l4 -13l1 -5q0 -5 -16 -12.5t-49 -15t-57 -7.5q-44 0 -71.5 21.5t-27.5 55.5zM201 574q-29 0 -48.5 19.5t-19.5 48.5q0 16 8 35.5t29 33t46 13.5
q29 0 48 -18.5t19 -46.5q0 -35 -24 -60t-58 -25z" />
    <glyph glyph-name="Idotaccent" unicode="&#x130;" horiz-adv-x="358" 
d="M-5 9l2 7l10 17q2 3 6 7.5t20 8.5q21 5 32.5 16t21.5 65l83 446q6 36 6 41q0 11 -4.5 18.5t-33.5 15.5q-19 5 -19 10l3 10l11 19q1 2 5 6t20 4h212q15 0 22 -1t7 -8l-2 -7l-10 -17q-2 -3 -6 -7.5t-19 -8.5q-21 -5 -33 -15.5t-23 -65.5l-84 -446q-5 -25 -5 -42
q0 -11 5 -18t33 -14q19 -4 19 -11l-3 -11l-11 -18q-6 -10 -25 -10h-211q-14 0 -21.5 1t-7.5 8zM273 774q-21 0 -36 14.5t-15 35.5q0 27 22.5 49.5t49.5 22.5q21 0 35.5 -14.5t14.5 -35.5q0 -29 -21 -50.5t-50 -21.5z" />
    <glyph glyph-name="dotlessi" unicode="&#x131;" horiz-adv-x="283" 
d="M47 24l4 35l56 301q7 40 7 52q0 25 -26 34l-14 5q-3 1 -8 3.5t-5 7.5l2 7l5 20q2 11 22 11h150q20 0 20 -11l-2 -17l-56 -302q-9 -50 -9 -59t4.5 -15.5t11.5 -6.5l15 2l16 3l10 1q10 0 11 -12l1 -9l1 -13q0 -10 -17 -16l-167 -57q-18 5 -25 13.5t-7 22.5z" />
    <glyph glyph-name="Jcircumflex" unicode="&#x134;" horiz-adv-x="358" 
d="M84 91l90 485q6 30 6 41q0 21 -17 28l-32 9q-8 3 -8 8l3 9l11 19q6 10 25 10h212q14 0 21 -1t7 -8l-2 -7l-10 -17q-2 -3 -5.5 -7.5t-19.5 -8.5q-21 -5 -33.5 -16t-22.5 -65l-89 -481q-24 -132 -88 -204.5t-162 -74.5l11 61q40 21 61.5 66.5t41.5 153.5zM79 758l176 172
h76l131 -172h-49l-131 97l-155 -97h-48z" />
    <glyph glyph-name="jcircumflex" unicode="&#x135;" horiz-adv-x="301" 
d="M-6 558l176 172h76l131 -172h-49l-131 97l-155 -97h-48zM47 0l66 360q8 42 8 54q0 11 -7 19.5t-20 12.5l-14 5q-12 4 -12 11l1 7l6 20q3 11 23 11h148q5 0 12.5 -1t7.5 -11l-3 -25l-81 -434q-23 -123 -82 -194.5t-152 -83.5l10 56q36 25 54.5 64.5t34.5 128.5z" />
    <glyph glyph-name="uni0136" unicode="&#x136;" horiz-adv-x="641" 
d="M-5 8l2 8l10 17q2 3 6 7.5t20 8.5q21 5 32.5 16t21.5 65l83 446q6 30 6 42q0 11 -4.5 18t-33.5 15q-5 1 -12 3.5t-7 7.5l3 9l11 19q1 2 5 6t20 4h213q15 0 22 -1t7 -8l-2 -7l-10 -17q-2 -3 -6 -7.5t-20 -8.5q-33 -8 -41 -26.5t-15 -54.5l-37 -193l299 323h116l-9 -36
q-2 -8 -8.5 -16t-36.5 -25q-75 -42 -140 -113l-105 -115l153 -263q17 -30 29 -48t36 -42l-8 -42h-83q-31 0 -45.5 6.5t-26 24t-27.5 48.5l-147 281l-44 -236q-5 -26 -5 -42q0 -11 5 -18t33 -14q7 -2 13.5 -4t6.5 -7l-3 -11l-11 -18q-6 -10 -26 -10h-212q-14 0 -21 1t-7 7z
M229 -115q0 24 21.5 41.5t46.5 17.5q12 0 26.5 -8.5t25.5 -27.5t11 -37q0 -17 -16.5 -44.5t-49.5 -62.5t-65 -63l-31 23q36 42 49.5 64.5t13.5 36.5t-14 27.5t-16 21t-2 11.5z" />
    <glyph glyph-name="uni0137" unicode="&#x137;" horiz-adv-x="526" 
d="M337 312l69 -120q4 -8 15.5 -27.5t36 -60.5t49.5 -71l-16 -33h-76q-19 0 -32.5 3.5t-27.5 25t-54 97.5l-79 153l-52 -279h-130l109 592q8 43 8 55q0 10 -6.5 19t-18.5 13l-14 5q-3 1 -8 3t-5 8l2 9l5 17q1 3 4 7t18 4h148q21 0 21 -16l-3 -16l-72 -391q37 29 91.5 86.5
t89.5 104.5h132l-8 -42q-25 -9 -46.5 -21.5t-72.5 -57.5zM176 -115q0 24 21.5 41.5t46.5 17.5q12 0 26.5 -8.5t25.5 -27.5t11 -37q0 -17 -16.5 -44.5t-49.5 -62.5t-65 -63l-31 23q36 42 49.5 64.5t13.5 36.5t-14 27.5t-16 21t-2 11.5z" />
    <glyph glyph-name="kgreenlandic" unicode="&#x138;" horiz-adv-x="526" 
d="M337 312l69 -120q4 -8 15.5 -27.5t36 -60.5t49.5 -71l-16 -33h-76q-19 0 -32.5 3.5t-27.5 25t-54 97.5l-79 153l-52 -279h-130l70 360q8 43 8 55q0 10 -6.5 19t-18.5 13l-14 5q-3 1 -8 3t-5 8l2 9l5 17q1 3 4 7t18 4h148q21 0 21 -16l-3 -16l-33 -159q37 29 91.5 86.5
t89.5 104.5h132l-8 -42q-25 -9 -46.5 -21.5t-72.5 -57.5z" />
    <glyph glyph-name="Lacute" unicode="&#x139;" horiz-adv-x="528" 
d="M-5 9l2 7l10 17q2 3 5.5 7.5t20.5 8.5q21 5 32.5 16t21.5 65l83 446q6 31 6 41q0 11 -5 19t-32 15q-20 5 -20 11l3 9l11 19q1 2 5 6t20 4h213q15 0 22 -1t7 -7l-2 -8l-10 -17q-2 -3 -5.5 -7.5t-19.5 -8.5q-22 -5 -34.5 -16t-22.5 -65l-75 -406q-9 -48 -9 -63
q0 -27 13 -37.5t47 -10.5h66q35 0 60 17.5t50 58.5q8 14 17 14l8 -1l20 -7q2 -1 7.5 -3.5t5.5 -7.5l-4 -22l-10 -57q-5 -28 -21 -36.5t-64 -8.5h-394q-13 0 -20.5 1.5t-7.5 7.5zM166 748l196 174q22 20 35 20q9 0 18 -9l36 -32q5 -5 5 -11q0 -8 -7.5 -14.5t-31.5 -19.5
l-203 -108h-48z" />
    <glyph glyph-name="lacute" unicode="&#x13a;" horiz-adv-x="301" 
d="M47 23q0 19 4 38l98 531q8 44 8 54q0 11 -6.5 20t-18.5 13l-14 5q-3 1 -8 3.5t-5 7.5l1 7l6 19q1 3 4 7t18 4h144q25 0 25 -16l-2 -15l-99 -531q-9 -49 -9 -58q0 -10 4.5 -16.5t11.5 -6.5l12 1l15 3l13 2q10 0 11 -12l1 -9l1 -13q0 -3 -1 -7t-16 -9l-166 -57
q-32 10 -32 35zM116 780l196 174q22 20 35 20q9 0 18 -9l36 -32q5 -5 5 -11q0 -8 -7.5 -14.5t-31.5 -19.5l-203 -108h-48z" />
    <glyph glyph-name="uni013B" unicode="&#x13b;" horiz-adv-x="528" 
d="M-5 9l2 7l10 17q2 3 5.5 7.5t20.5 8.5q21 5 32.5 16t21.5 65l83 446q6 31 6 41q0 11 -5 19t-32 15q-20 5 -20 11l3 9l11 19q1 2 5 6t20 4h213q15 0 22 -1t7 -7l-2 -8l-10 -17q-2 -3 -5.5 -7.5t-19.5 -8.5q-22 -5 -34.5 -16t-22.5 -65l-75 -406q-9 -48 -9 -63
q0 -27 13 -37.5t47 -10.5h66q35 0 60 17.5t50 58.5q8 14 17 14l8 -1l20 -7q2 -1 7.5 -3.5t5.5 -7.5l-4 -22l-10 -57q-5 -28 -21 -36.5t-64 -8.5h-394q-13 0 -20.5 1.5t-7.5 7.5zM160 -115q0 24 21.5 41.5t46.5 17.5q12 0 26.5 -8.5t25.5 -27.5t11 -37q0 -17 -16.5 -44.5
t-49.5 -62.5t-65 -63l-31 23q36 42 49.5 64.5t13.5 36.5t-14 27.5t-16 21t-2 11.5z" />
    <glyph glyph-name="uni013C" unicode="&#x13c;" horiz-adv-x="301" 
d="M47 23q0 19 4 38l98 531q8 44 8 54q0 11 -6.5 20t-18.5 13l-14 5q-3 1 -8 3.5t-5 7.5l1 7l6 19q1 3 4 7t18 4h144q25 0 25 -16l-2 -15l-99 -531q-9 -49 -9 -58q0 -10 4.5 -16.5t11.5 -6.5l12 1l15 3l13 2q10 0 11 -12l1 -9l1 -13q0 -3 -1 -7t-16 -9l-166 -57
q-32 10 -32 35zM36 -115q0 24 21.5 41.5t46.5 17.5q12 0 26.5 -8.5t25.5 -27.5t11 -37q0 -17 -16.5 -44.5t-49.5 -62.5t-65 -63l-31 23q36 42 49.5 64.5t13.5 36.5t-14 27.5t-16 21t-2 11.5z" />
    <glyph glyph-name="Lcaron" unicode="&#x13d;" horiz-adv-x="528" 
d="M-5 9l2 7l10 17q2 3 5.5 7.5t20.5 8.5q21 5 32.5 16t21.5 65l83 446q6 31 6 41q0 11 -5 19t-32 15q-20 5 -20 11l3 9l11 19q1 2 5 6t20 4h213q15 0 22 -1t7 -7l-2 -8l-10 -17q-2 -3 -5.5 -7.5t-19.5 -8.5q-22 -5 -34.5 -16t-22.5 -65l-75 -406q-9 -48 -9 -63
q0 -27 13 -37.5t47 -10.5h66q35 0 60 17.5t50 58.5q8 14 17 14l8 -1l20 -7q2 -1 7.5 -3.5t5.5 -7.5l-4 -22l-10 -57q-5 -28 -21 -36.5t-64 -8.5h-394q-13 0 -20.5 1.5t-7.5 7.5zM465 483l-28 27q51 60 51 87q0 14 -14 27.5t-16 21t-2 11.5q0 24 21.5 41.5t46.5 17.5
q12 0 26.5 -8.5t25.5 -27.5t11 -37q0 -21 -30 -62.5t-92 -97.5z" />
    <glyph glyph-name="lcaron" unicode="&#x13e;" horiz-adv-x="301" 
d="M47 23q0 19 4 38l98 531q8 44 8 54q0 11 -6.5 20t-18.5 13l-14 5q-3 1 -8 3.5t-5 7.5l1 7l6 19q1 3 4 7t18 4h144q25 0 25 -16l-2 -15l-99 -531q-9 -49 -9 -58q0 -10 4.5 -16.5t11.5 -6.5l12 1l15 3l13 2q10 0 11 -12l1 -9l1 -13q0 -3 -1 -7t-16 -9l-166 -57
q-32 10 -32 35zM359 518l-28 27q51 60 51 87q0 14 -14 27.5t-16 21t-2 11.5q0 24 21.5 41.5t46.5 17.5q12 0 26.5 -8.5t25.5 -27.5t11 -37q0 -21 -30 -62.5t-92 -97.5z" />
    <glyph glyph-name="Ldot" unicode="&#x13f;" horiz-adv-x="528" 
d="M-5 9l2 7l10 17q2 3 5.5 7.5t20.5 8.5q21 5 32.5 16t21.5 65l83 446q6 31 6 41q0 11 -5 19t-32 15q-20 5 -20 11l3 9l11 19q1 2 5 6t20 4h213q15 0 22 -1t7 -7l-2 -8l-10 -17q-2 -3 -5.5 -7.5t-19.5 -8.5q-22 -5 -34.5 -16t-22.5 -65l-75 -406q-9 -48 -9 -63
q0 -27 13 -37.5t47 -10.5h66q35 0 60 17.5t50 58.5q8 14 17 14l8 -1l20 -7q2 -1 7.5 -3.5t5.5 -7.5l-4 -22l-10 -57q-5 -28 -21 -36.5t-64 -8.5h-394q-13 0 -20.5 1.5t-7.5 7.5zM452 319q-21 0 -36 14.5t-15 35.5q0 27 22.5 49.5t49.5 22.5q21 0 35.5 -14.5t14.5 -35.5
q0 -29 -21 -50.5t-50 -21.5z" />
    <glyph glyph-name="ldot" unicode="&#x140;" horiz-adv-x="410" 
d="M47 23q0 19 4 38l98 531q8 44 8 54q0 11 -6.5 20t-18.5 13l-14 5q-3 1 -8 3.5t-5 7.5l1 7l6 19q1 3 4 7t18 4h144q25 0 25 -16l-2 -15l-99 -531q-9 -49 -9 -58q0 -10 4.5 -16.5t11.5 -6.5l12 1l15 3l13 2q10 0 11 -12l1 -9l1 -13q0 -3 -1 -7t-16 -9l-166 -57
q-32 10 -32 35zM371 319q-21 0 -36 14.5t-15 35.5q0 27 22.5 49.5t49.5 22.5q21 0 35.5 -14.5t14.5 -35.5q0 -29 -21 -50.5t-50 -21.5z" />
    <glyph glyph-name="Lslash" unicode="&#x141;" horiz-adv-x="528" 
d="M-5 9l2 7l10 17q2 3 6 7.5t20 8.5q27 6 36 20t18 61l32 168l-94 -52l-22 41l127 72l40 217q6 32 6 41q0 11 -5 19t-32 15q-20 5 -20 11l3 9l11 19q1 2 5 6t20 4h213q15 0 22 -1t7 -8l-2 -7l-10 -17q-2 -3 -6 -7.5t-20 -8.5q-33 -8 -41 -26.5t-15 -54.5l-28 -143l119 64
l23 -41l-152 -83l-37 -203q-9 -54 -9 -62q0 -28 13 -38.5t47 -10.5h66q35 0 60 17.5t50 58.5q8 14 17 14l8 -1l20 -7q5 -1 8.5 -4.5t3.5 -6.5l-1 -10l-12 -69q-5 -28 -21 -36.5t-64 -8.5h-394q-13 0 -20.5 1.5t-7.5 7.5z" />
    <glyph glyph-name="lslash" unicode="&#x142;" horiz-adv-x="301" 
d="M45 23q0 11 5 38l53 283l-93 -58l-24 41l128 78l34 187q9 48 9 54q0 24 -26 33l-14 5q-13 5 -13 11l1 7l6 19q1 3 4 7t18 4h146q24 0 24 -16l-2 -15l-41 -219l91 55l23 -39l-125 -78l-47 -250q-9 -50 -9 -59t4.5 -15.5t11.5 -6.5l18 2l10 2l13 2q10 0 11 -12l1 -11l1 -11
q0 -10 -17 -16l-168 -57q-33 10 -33 35z" />
    <glyph glyph-name="Nacute" unicode="&#x143;" horiz-adv-x="735" 
d="M569 0h-56q-12 0 -23 6t-23 31l-246 519l-80 -432q-5 -26 -5 -42q0 -10 5 -17t33 -15q7 -2 13 -4t6 -8q0 -5 -3 -10l-11 -18q-6 -10 -26 -10h-142q-14 0 -21 1t-7 7l2 8l10 17q2 3 5.5 7.5t19.5 8.5q21 5 33 16t22 65l88 472q-23 38 -61 50q-14 4 -14 11l2 11l9 13
q2 3 6.5 8t19.5 5h148q17 0 29 -6t27 -38l233 -498l77 418q6 32 6 42q0 11 -4.5 18t-33.5 15q-7 2 -13.5 4t-6.5 6l3 10l11 19q6 10 26 10h140q15 0 22 -1t7 -8l-2 -7l-10 -17q-2 -3 -5.5 -7.5t-19.5 -8.5q-28 -7 -37 -20.5t-18 -60.5l-98 -528q-4 -22 -9 -32t-28 -10z
M348 748l196 174q22 20 35 20q9 0 18 -9l36 -32q5 -5 5 -11q0 -8 -7.5 -14.5t-31.5 -19.5l-203 -108h-48z" />
    <glyph glyph-name="nacute" unicode="&#x144;" horiz-adv-x="602" 
d="M40 0l67 360q7 36 7 53q0 24 -26 33l-14 5q-12 4 -12 11l1 7l6 20q1 3 4 7t18 4h145q24 0 24 -11l-2 -15l-16 -88q18 25 34.5 44.5t39.5 37.5q25 18 58 31t66 13q48 0 76 -29t28 -78q0 -17 -1.5 -31t-9.5 -56l-27 -148q-9 -49 -9 -58q0 -10 4 -16.5t11 -6.5l19 2l9 2
l14 2q10 0 11 -12l1 -9l1 -12q0 -3 -1.5 -7.5t-15.5 -9.5l-166 -57q-13 5 -22.5 13t-9.5 26q0 14 3 29l43 234q11 56 11 82q0 27 -11.5 43t-31.5 16q-51 0 -104 -84q-18 -29 -33 -68.5t-37 -158.5l-22 -120h-130zM244 548l196 174q22 20 35 20q9 0 18 -9l36 -32q5 -5 5 -11
q0 -8 -7.5 -14.5t-31.5 -19.5l-203 -108h-48z" />
    <glyph glyph-name="uni0145" unicode="&#x145;" horiz-adv-x="735" 
d="M569 0h-56q-12 0 -23 6t-23 31l-246 519l-80 -432q-5 -26 -5 -42q0 -10 5 -17t33 -15q7 -2 13 -4t6 -8q0 -5 -3 -10l-11 -18q-6 -10 -26 -10h-142q-14 0 -21 1t-7 7l2 8l10 17q2 3 5.5 7.5t19.5 8.5q21 5 33 16t22 65l88 472q-23 38 -61 50q-14 4 -14 11l2 11l9 13
q2 3 6.5 8t19.5 5h148q17 0 29 -6t27 -38l233 -498l77 418q6 32 6 42q0 11 -4.5 18t-33.5 15q-7 2 -13.5 4t-6.5 6l3 10l11 19q6 10 26 10h140q15 0 22 -1t7 -8l-2 -7l-10 -17q-2 -3 -5.5 -7.5t-19.5 -8.5q-28 -7 -37 -20.5t-18 -60.5l-98 -528q-4 -22 -9 -32t-28 -10z
M236 -115q0 24 21.5 41.5t46.5 17.5q12 0 26.5 -8.5t25.5 -27.5t11 -37q0 -17 -16.5 -44.5t-49.5 -62.5t-65 -63l-31 23q36 42 49.5 64.5t13.5 36.5t-14 27.5t-16 21t-2 11.5z" />
    <glyph glyph-name="uni0146" unicode="&#x146;" horiz-adv-x="602" 
d="M40 0l67 360q7 36 7 53q0 24 -26 33l-14 5q-12 4 -12 11l1 7l6 20q1 3 4 7t18 4h145q24 0 24 -11l-2 -15l-16 -88q18 25 34.5 44.5t39.5 37.5q25 18 58 31t66 13q48 0 76 -29t28 -78q0 -17 -1.5 -31t-9.5 -56l-27 -148q-9 -49 -9 -58q0 -10 4 -16.5t11 -6.5l19 2l9 2
l14 2q10 0 11 -12l1 -9l1 -12q0 -3 -1.5 -7.5t-15.5 -9.5l-166 -57q-13 5 -22.5 13t-9.5 26q0 14 3 29l43 234q11 56 11 82q0 27 -11.5 43t-31.5 16q-51 0 -104 -84q-18 -29 -33 -68.5t-37 -158.5l-22 -120h-130zM187 -115q0 24 21.5 41.5t46.5 17.5q12 0 26.5 -8.5
t25.5 -27.5t11 -37q0 -17 -16.5 -44.5t-49.5 -62.5t-65 -63l-31 23q36 42 49.5 64.5t13.5 36.5t-14 27.5t-16 21t-2 11.5z" />
    <glyph glyph-name="Ncaron" unicode="&#x147;" horiz-adv-x="735" 
d="M569 0h-56q-12 0 -23 6t-23 31l-246 519l-80 -432q-5 -26 -5 -42q0 -10 5 -17t33 -15q7 -2 13 -4t6 -8q0 -5 -3 -10l-11 -18q-6 -10 -26 -10h-142q-14 0 -21 1t-7 7l2 8l10 17q2 3 5.5 7.5t19.5 8.5q21 5 33 16t22 65l88 472q-23 38 -61 50q-14 4 -14 11l2 11l9 13
q2 3 6.5 8t19.5 5h148q17 0 29 -6t27 -38l233 -498l77 418q6 32 6 42q0 11 -4.5 18t-33.5 15q-7 2 -13.5 4t-6.5 6l3 10l11 19q6 10 26 10h140q15 0 22 -1t7 -8l-2 -7l-10 -17q-2 -3 -5.5 -7.5t-19.5 -8.5q-28 -7 -37 -20.5t-18 -60.5l-98 -528q-4 -22 -9 -32t-28 -10z
M424 758l-131 172h49l130 -96l157 96h47l-175 -172h-77z" />
    <glyph glyph-name="ncaron" unicode="&#x148;" horiz-adv-x="602" 
d="M40 0l67 360q7 36 7 53q0 24 -26 33l-14 5q-12 4 -12 11l1 7l6 20q1 3 4 7t18 4h145q24 0 24 -11l-2 -15l-16 -88q18 25 34.5 44.5t39.5 37.5q25 18 58 31t66 13q48 0 76 -29t28 -78q0 -17 -1.5 -31t-9.5 -56l-27 -148q-9 -49 -9 -58q0 -10 4 -16.5t11 -6.5l19 2l9 2
l14 2q10 0 11 -12l1 -9l1 -12q0 -3 -1.5 -7.5t-15.5 -9.5l-166 -57q-13 5 -22.5 13t-9.5 26q0 14 3 29l43 234q11 56 11 82q0 27 -11.5 43t-31.5 16q-51 0 -104 -84q-18 -29 -33 -68.5t-37 -158.5l-22 -120h-130zM320 558l-131 172h49l130 -96l157 96h47l-175 -172h-77z" />
    <glyph glyph-name="Eng" unicode="&#x14a;" horiz-adv-x="735" 
d="M354 -249l11 61q18 0 41 8t47 28t46 57.5t33 94.5h-19q-12 0 -23 6t-23 31l-246 519l-80 -432q-5 -26 -5 -42q0 -10 5 -17t33 -15q7 -2 13 -4t6 -8q0 -5 -3 -10l-11 -18q-6 -10 -26 -10h-142q-14 0 -21 1t-7 7l2 8l10 17q2 3 5.5 7.5t19.5 8.5q21 5 33 16t22 65l88 472
q-23 38 -61 50q-14 4 -14 11l2 11l9 13q2 3 6.5 8t19.5 5h148q17 0 29 -6t27 -38l233 -498l77 418q6 32 6 42q0 11 -4.5 18t-33.5 15q-7 2 -13.5 4t-6.5 6l3 10l11 19q6 10 26 10h140q15 0 22 -1t7 -8l-2 -7l-10 -17q-2 -3 -5.5 -7.5t-19.5 -8.5q-28 -7 -37 -20.5t-18 -60.5
l-100 -540q-24 -132 -88 -204.5t-162 -74.5z" />
    <glyph glyph-name="eng" unicode="&#x14b;" horiz-adv-x="592" 
d="M40 0l67 360q7 36 7 53q0 24 -26 33l-14 5q-12 4 -12 11l1 7l6 20q1 3 4 7t18 4h145q24 0 24 -11l-2 -15l-16 -88q18 25 34.5 44.5t39.5 37.5q25 18 58 31t66 13q48 0 76 -29t28 -78q0 -17 -1.5 -31t-9.5 -56l-54 -289q-23 -123 -82 -194.5t-152 -83.5l10 56q32 12 52 56
t37 137l54 290q11 56 11 82q0 27 -11.5 43t-31.5 16q-51 0 -104 -84q-18 -29 -33 -68.5t-37 -158.5l-22 -120h-130z" />
    <glyph glyph-name="Omacron" unicode="&#x14c;" horiz-adv-x="754" 
d="M54 279q0 89 31.5 168.5t80 131.5t101.5 81.5t104.5 40.5t91.5 11q129 0 202 -77t73 -212q0 -111 -50 -211t-144.5 -162t-207.5 -62q-64 0 -116.5 20.5t-89.5 58.5t-56.5 92t-19.5 120zM205 267q0 -105 37.5 -162.5t106.5 -57.5q45 0 85.5 24.5t70.5 71.5q35 55 58.5 143
t23.5 165q0 99 -36.5 150.5t-107.5 51.5q-50 0 -89.5 -24t-72.5 -75q-34 -53 -55 -132.5t-21 -154.5zM321 797l10 68h320l-10 -68h-320z" />
    <glyph glyph-name="omacron" unicode="&#x14d;" horiz-adv-x="565" 
d="M30 200q0 51 18.5 103t47 88.5t53.5 56.5q79 64 183 64q91 0 146.5 -57.5t55.5 -151.5q0 -63 -23 -121t-64 -101.5t-96 -68t-114 -24.5q-92 0 -149.5 59t-57.5 153zM172 191q0 -32 7 -66t27 -55.5t48 -21.5q33 0 60.5 26.5t46.5 74.5q15 37 24 88t9 91q0 44 -11.5 74
t-30 40.5t-36.5 10.5q-61 0 -104 -85q-20 -41 -30 -88.5t-10 -88.5zM179 597l10 68h320l-10 -68h-320z" />
    <glyph glyph-name="Obreve" unicode="&#x14e;" horiz-adv-x="754" 
d="M54 279q0 89 31.5 168.5t80 131.5t101.5 81.5t104.5 40.5t91.5 11q129 0 202 -77t73 -212q0 -111 -50 -211t-144.5 -162t-207.5 -62q-64 0 -116.5 20.5t-89.5 58.5t-56.5 92t-19.5 120zM205 267q0 -105 37.5 -162.5t106.5 -57.5q45 0 85.5 24.5t70.5 71.5q35 55 58.5 143
t23.5 165q0 99 -36.5 150.5t-107.5 51.5q-50 0 -89.5 -24t-72.5 -75q-34 -53 -55 -132.5t-21 -154.5zM479 751q-23 0 -49 8.5t-49 28.5t-39 52t-16 74q0 3 1 7.5t12 4.5h9q2 0 5.5 -1t7.5 -13q6 -17 21.5 -36t44 -31.5t62.5 -12.5q47 0 89.5 23.5t62.5 60.5q2 3 4 6.5t9 3.5
h10q10 0 10 -6t-5.5 -21.5t-11.5 -27.5q-30 -55 -78 -87.5t-100 -32.5z" />
    <glyph glyph-name="obreve" unicode="&#x14f;" horiz-adv-x="565" 
d="M30 200q0 51 18.5 103t47 88.5t53.5 56.5q79 64 183 64q91 0 146.5 -57.5t55.5 -151.5q0 -63 -23 -121t-64 -101.5t-96 -68t-114 -24.5q-92 0 -149.5 59t-57.5 153zM172 191q0 -32 7 -66t27 -55.5t48 -21.5q33 0 60.5 26.5t46.5 74.5q15 37 24 88t9 91q0 44 -11.5 74
t-30 40.5t-36.5 10.5q-61 0 -104 -85q-20 -41 -30 -88.5t-10 -88.5zM337 551q-23 0 -49 8.5t-49 28.5t-39 52t-16 74q0 3 1 7.5t12 4.5h9q2 0 5.5 -1t7.5 -13q6 -17 21.5 -36t44 -31.5t62.5 -12.5q47 0 89.5 23.5t62.5 60.5q2 3 4 6.5t9 3.5h10q10 0 10 -6t-5.5 -21.5
t-11.5 -27.5q-30 -55 -78 -87.5t-100 -32.5z" />
    <glyph glyph-name="Ohungarumlaut" unicode="&#x150;" horiz-adv-x="754" 
d="M54 279q0 89 31.5 168.5t80 131.5t101.5 81.5t104.5 40.5t91.5 11q129 0 202 -77t73 -212q0 -111 -50 -211t-144.5 -162t-207.5 -62q-64 0 -116.5 20.5t-89.5 58.5t-56.5 92t-19.5 120zM205 267q0 -105 37.5 -162.5t106.5 -57.5q45 0 85.5 24.5t70.5 71.5q35 55 58.5 143
t23.5 165q0 99 -36.5 150.5t-107.5 51.5q-50 0 -89.5 -24t-72.5 -75q-34 -53 -55 -132.5t-21 -154.5zM491 748l186 181q8 8 18.5 13.5t16.5 5.5q10 0 17 -6l34 -28q8 -7 8 -13q0 -3 -1.5 -8t-35.5 -26l-199 -119h-44zM299 748l187 181q8 8 18.5 13.5t16.5 5.5q9 0 16 -6
l34 -28q8 -7 8 -13q0 -7 -3.5 -12t-32.5 -22l-200 -119h-44z" />
    <glyph glyph-name="ohungarumlaut" unicode="&#x151;" horiz-adv-x="565" 
d="M30 200q0 51 18.5 103t47 88.5t53.5 56.5q79 64 183 64q91 0 146.5 -57.5t55.5 -151.5q0 -63 -23 -121t-64 -101.5t-96 -68t-114 -24.5q-92 0 -149.5 59t-57.5 153zM172 191q0 -32 7 -66t27 -55.5t48 -21.5q33 0 60.5 26.5t46.5 74.5q15 37 24 88t9 91q0 44 -11.5 74
t-30 40.5t-36.5 10.5q-61 0 -104 -85q-20 -41 -30 -88.5t-10 -88.5zM349 548l186 181q8 8 18.5 13.5t16.5 5.5q10 0 17 -6l34 -28q8 -7 8 -13q0 -3 -1.5 -8t-35.5 -26l-199 -119h-44zM157 548l187 181q8 8 18.5 13.5t16.5 5.5q9 0 16 -6l34 -28q8 -7 8 -13q0 -7 -3.5 -12
t-32.5 -22l-200 -119h-44z" />
    <glyph glyph-name="OE" unicode="&#x152;" horiz-adv-x="968" 
d="M54 281q0 124 56.5 225t149.5 153.5t199 52.5q11 0 88 -7l41 -4l69 -1h282q17 0 27.5 -2t10.5 -13l-3 -22l-11 -56q-1 -5 -2.5 -11.5t-9.5 -11.5l-21 -14l-9 -3q-2 0 -5 1t-12 26q-12 33 -26.5 43t-48.5 10h-107l-43 -236h196q5 0 13.5 -0.5t8.5 -6.5l-2 -8l-15 -30
q-2 -5 -8 -12.5t-31 -7.5h-174l-36 -197q-6 -33 -6 -48q0 -27 15 -37.5t53 -10.5h57q24 0 50 13t58 62q10 15 19 15l6 -1l19 -6q12 -4 12 -13l-4 -24l-11 -58q-3 -18 -14.5 -29.5t-53.5 -11.5h-292q-60 0 -104 -5q-63 -7 -97 -7q-135 0 -209.5 77t-74.5 216zM203 264
q0 -107 40.5 -162t117.5 -55q38 0 67 11t43 30q9 13 15 30t12 50l72 390q4 20 4 31q0 13 -11 28t-39 25.5t-64 10.5q-93 0 -158 -77q-45 -53 -72 -137.5t-27 -174.5z" />
    <glyph glyph-name="oe" unicode="&#x153;" horiz-adv-x="814" 
d="M30 194q0 31 10 74.5t37 91t65 82.5q37 34 84.5 52t97.5 18q53 0 88.5 -19.5t63.5 -63.5q84 83 197 83q30 0 63.5 -10t56.5 -36.5t23 -65.5q0 -36 -21.5 -66.5t-61.5 -52.5t-96.5 -34.5t-123.5 -13.5l-2 -33q0 -61 30.5 -98.5t79.5 -37.5q25 0 50.5 8.5t59.5 30.5l9 5
l6 -4l7 -7q3 -1 3 -9l-3 -17l-3 -14q-4 -18 -21 -28q-32 -19 -76 -30t-86 -11q-56 0 -91 19.5t-59 65.5q-76 -85 -186 -85q-53 0 -101.5 26t-74 75.5t-25.5 104.5zM520 293q87 0 139.5 29t52.5 77q0 25 -15 40.5t-39 15.5q-23 0 -49 -14.5t-50.5 -53t-38.5 -94.5zM251 48
q59 0 99 82q19 39 31 94t12 103q0 28 -6.5 58t-25.5 49t-47 19q-54 0 -95 -69q-22 -37 -35 -90t-13 -102q0 -32 7 -66.5t26 -56t47 -21.5z" />
    <glyph glyph-name="Racute" unicode="&#x154;" horiz-adv-x="641" 
d="M-5 8l2 8l10 17q2 3 6 8t20 9q21 4 32.5 15t21.5 65l83 446l4 29q0 19 -10.5 30.5t-37.5 18.5q-10 3 -10 9l3 8l11 19q1 2 5 6t20 4h263q102 0 150 -38t48 -119q0 -153 -166 -219l46 -98q5 -11 18 -38.5t37 -76.5t51 -78v-33h-111q-22 0 -34.5 5t-24.5 39l-97 266h-78
l-35 -186q-5 -25 -5 -41q0 -11 5.5 -19t32.5 -14q19 -5 19 -12l-4 -10l-11 -18q-1 -2 -5 -6t-19 -4h-212q-13 0 -20.5 1t-7.5 7zM267 364h37q69 0 109 33q28 24 45.5 62.5t17.5 77.5q0 35 -13 62t-35 40q-21 12 -68 12h-40zM265 748l196 174q22 20 35 20q9 0 18 -9l36 -32
q5 -5 5 -11q0 -8 -7.5 -14.5t-31.5 -19.5l-203 -108h-48z" />
    <glyph glyph-name="racute" unicode="&#x155;" horiz-adv-x="413" 
d="M40 0l67 360q7 38 7 52q0 25 -26 34l-14 5q-12 4 -12 11l1 7l6 20q3 11 22 11h148q20 0 20 -12l-2 -12l-16 -88q37 57 78 90.5t75 33.5q13 0 22.5 -6.5t14.5 -25.5l10 -34q5 -15 5 -19q0 -8 -9 -17l-28 -28q-7 -7 -11 -7q-6 0 -18 7q-23 13 -50 13q-25 0 -47 -14t-35 -38
t-22.5 -56.5t-21.5 -100.5l-34 -186h-130zM169 548l196 174q22 20 35 20q9 0 18 -9l36 -32q5 -5 5 -11q0 -8 -7.5 -14.5t-31.5 -19.5l-203 -108h-48z" />
    <glyph glyph-name="uni0156" unicode="&#x156;" horiz-adv-x="641" 
d="M-5 8l2 8l10 17q2 3 6 8t20 9q21 4 32.5 15t21.5 65l83 446l4 29q0 19 -10.5 30.5t-37.5 18.5q-10 3 -10 9l3 8l11 19q1 2 5 6t20 4h263q102 0 150 -38t48 -119q0 -153 -166 -219l46 -98q5 -11 18 -38.5t37 -76.5t51 -78v-33h-111q-22 0 -34.5 5t-24.5 39l-97 266h-78
l-35 -186q-5 -25 -5 -41q0 -11 5.5 -19t32.5 -14q19 -5 19 -12l-4 -10l-11 -18q-1 -2 -5 -6t-19 -4h-212q-13 0 -20.5 1t-7.5 7zM267 364h37q69 0 109 33q28 24 45.5 62.5t17.5 77.5q0 35 -13 62t-35 40q-21 12 -68 12h-40zM206 -115q0 24 21.5 41.5t46.5 17.5
q12 0 26.5 -8.5t25.5 -27.5t11 -37q0 -17 -16.5 -44.5t-49.5 -62.5t-65 -63l-31 23q36 42 49.5 64.5t13.5 36.5t-14 27.5t-16 21t-2 11.5z" />
    <glyph glyph-name="uni0157" unicode="&#x157;" horiz-adv-x="413" 
d="M40 0l67 360q7 38 7 52q0 25 -26 34l-14 5q-12 4 -12 11l1 7l6 20q3 11 22 11h148q20 0 20 -12l-2 -12l-16 -88q37 57 78 90.5t75 33.5q13 0 22.5 -6.5t14.5 -25.5l10 -34q5 -15 5 -19q0 -8 -9 -17l-28 -28q-7 -7 -11 -7q-6 0 -18 7q-23 13 -50 13q-25 0 -47 -14t-35 -38
t-22.5 -56.5t-21.5 -100.5l-34 -186h-130zM31 -115q0 24 21.5 41.5t46.5 17.5q12 0 26.5 -8.5t25.5 -27.5t11 -37q0 -17 -16.5 -44.5t-49.5 -62.5t-65 -63l-31 23q36 42 49.5 64.5t13.5 36.5t-14 27.5t-16 21t-2 11.5z" />
    <glyph glyph-name="Rcaron" unicode="&#x158;" horiz-adv-x="641" 
d="M-5 8l2 8l10 17q2 3 6 8t20 9q21 4 32.5 15t21.5 65l83 446l4 29q0 19 -10.5 30.5t-37.5 18.5q-10 3 -10 9l3 8l11 19q1 2 5 6t20 4h263q102 0 150 -38t48 -119q0 -153 -166 -219l46 -98q5 -11 18 -38.5t37 -76.5t51 -78v-33h-111q-22 0 -34.5 5t-24.5 39l-97 266h-78
l-35 -186q-5 -25 -5 -41q0 -11 5.5 -19t32.5 -14q19 -5 19 -12l-4 -10l-11 -18q-1 -2 -5 -6t-19 -4h-212q-13 0 -20.5 1t-7.5 7zM267 364h37q69 0 109 33q28 24 45.5 62.5t17.5 77.5q0 35 -13 62t-35 40q-21 12 -68 12h-40zM341 758l-131 172h49l130 -96l157 96h47
l-175 -172h-77z" />
    <glyph glyph-name="rcaron" unicode="&#x159;" horiz-adv-x="413" 
d="M40 0l67 360q7 38 7 52q0 25 -26 34l-14 5q-12 4 -12 11l1 7l6 20q3 11 22 11h148q20 0 20 -12l-2 -12l-16 -88q37 57 78 90.5t75 33.5q13 0 22.5 -6.5t14.5 -25.5l10 -34q5 -15 5 -19q0 -8 -9 -17l-28 -28q-7 -7 -11 -7q-6 0 -18 7q-23 13 -50 13q-25 0 -47 -14t-35 -38
t-22.5 -56.5t-21.5 -100.5l-34 -186h-130zM245 558l-131 172h49l130 -96l157 96h47l-175 -172h-77z" />
    <glyph glyph-name="Sacute" unicode="&#x15a;" horiz-adv-x="528" 
d="M37 15q-27 10 -27 28l1 10l15 115q1 5 2.5 12t9.5 10l19 6l9 1q8 0 12 -12q21 -80 48.5 -107t77.5 -27q38 0 67.5 18.5t40.5 45.5t11 51q0 46 -31 96q-13 21 -23.5 35.5t-75.5 87.5q-45 51 -64 89.5t-19 77.5q0 72 68.5 116t181.5 44q70 0 121 -15t51 -35l-2 -12l-12 -69
q-1 -5 -3 -12.5t-13 -13.5l-17 -10q-6 -4 -10 -4q-2 0 -6 2t-17 36q-16 43 -38.5 61t-59.5 18q-20 0 -43.5 -8.5t-39 -31t-15.5 -52.5q0 -38 24 -72q6 -10 9.5 -14.5t79.5 -96.5q55 -67 78 -113.5t23 -92.5q0 -31 -12.5 -64t-43 -60.5t-82 -46t-124.5 -18.5q-42 0 -90.5 7
t-80.5 20zM254 748l196 174q22 20 35 20q9 0 18 -9l36 -32q5 -5 5 -11q0 -8 -7.5 -14.5t-31.5 -19.5l-203 -108h-48z" />
    <glyph glyph-name="sacute" unicode="&#x15b;" horiz-adv-x="433" 
d="M16 18l-11 66l-2 20q0 7 9 13l28 17q11 6 13 6q5 0 11 -10l23 -39q7 -12 18.5 -24t27 -19t32.5 -7q34 0 57 23.5t23 56.5q0 19 -10.5 40.5t-59.5 65.5q-44 38 -64.5 62.5t-26 44t-5.5 37.5q0 39 23.5 69.5t71 51t116.5 20.5q26 0 59 -4t52 -11q21 -7 21 -20l-2 -13
l-17 -63q-1 -4 -4 -10.5t-14 -6.5h-21q-14 0 -17 14q-13 66 -72 66q-29 0 -48 -16.5t-19 -42.5q0 -25 25 -50q16 -16 58 -54q87 -78 87 -153q0 -33 -15.5 -64t-41.5 -49q-29 -21 -74.5 -34t-90.5 -13q-69 0 -140 30zM181 548l196 174q22 20 35 20q9 0 18 -9l36 -32
q5 -5 5 -11q0 -8 -7.5 -14.5t-31.5 -19.5l-203 -108h-48z" />
    <glyph glyph-name="Scircumflex" unicode="&#x15c;" horiz-adv-x="528" 
d="M37 15q-27 10 -27 28l1 10l15 115q1 5 2.5 12t9.5 10l19 6l9 1q8 0 12 -12q21 -80 48.5 -107t77.5 -27q38 0 67.5 18.5t40.5 45.5t11 51q0 46 -31 96q-13 21 -23.5 35.5t-75.5 87.5q-45 51 -64 89.5t-19 77.5q0 72 68.5 116t181.5 44q70 0 121 -15t51 -35l-2 -12l-12 -69
q-1 -5 -3 -12.5t-13 -13.5l-17 -10q-6 -4 -10 -4q-2 0 -6 2t-17 36q-16 43 -38.5 61t-59.5 18q-20 0 -43.5 -8.5t-39 -31t-15.5 -52.5q0 -38 24 -72q6 -10 9.5 -14.5t79.5 -96.5q55 -67 78 -113.5t23 -92.5q0 -31 -12.5 -64t-43 -60.5t-82 -46t-124.5 -18.5q-42 0 -90.5 7
t-80.5 20zM176 758l176 172h76l131 -172h-49l-131 97l-155 -97h-48z" />
    <glyph glyph-name="scircumflex" unicode="&#x15d;" horiz-adv-x="433" 
d="M16 18l-11 66l-2 20q0 7 9 13l28 17q11 6 13 6q5 0 11 -10l23 -39q7 -12 18.5 -24t27 -19t32.5 -7q34 0 57 23.5t23 56.5q0 19 -10.5 40.5t-59.5 65.5q-44 38 -64.5 62.5t-26 44t-5.5 37.5q0 39 23.5 69.5t71 51t116.5 20.5q26 0 59 -4t52 -11q21 -7 21 -20l-2 -13
l-17 -63q-1 -4 -4 -10.5t-14 -6.5h-21q-14 0 -17 14q-13 66 -72 66q-29 0 -48 -16.5t-19 -42.5q0 -25 25 -50q16 -16 58 -54q87 -78 87 -153q0 -33 -15.5 -64t-41.5 -49q-29 -21 -74.5 -34t-90.5 -13q-69 0 -140 30zM103 558l176 172h76l131 -172h-49l-131 97l-155 -97h-48z
" />
    <glyph glyph-name="Scedilla" unicode="&#x15e;" horiz-adv-x="528" 
d="M37 15q-27 10 -27 28l1 10l15 115q1 5 2.5 12t9.5 10l19 6l9 1q8 0 12 -12q21 -80 48.5 -107t77.5 -27q38 0 67.5 18.5t40.5 45.5t11 51q0 46 -31 96q-13 21 -23.5 35.5t-75.5 87.5q-45 51 -64 89.5t-19 77.5q0 72 68.5 116t181.5 44q70 0 121 -15t51 -35l-2 -12l-12 -69
q-1 -5 -3 -12.5t-13 -13.5l-17 -10q-6 -4 -10 -4q-2 0 -6 2t-17 36q-16 43 -38.5 61t-59.5 18q-20 0 -43.5 -8.5t-39 -31t-15.5 -52.5q0 -38 24 -72q6 -10 9.5 -14.5t79.5 -96.5q55 -67 78 -113.5t23 -92.5q0 -40 -15 -70t-40 -53.5t-72.5 -42.5t-115.5 -22l-30 -58
q12 2 28 2q37 0 58.5 -16t21.5 -44q0 -32 -27 -57.5t-61.5 -36t-62.5 -10.5q-13 0 -32 3t-35.5 9.5t-16.5 11.5l2 6l10 16q4 6 8 6l5 -1q30 -9 51 -9q30 0 47.5 13.5t17.5 36.5q0 32 -40 32l-34 -4l-7 5l53 95q-37 1 -78 8t-68 18z" />
    <glyph glyph-name="scedilla" unicode="&#x15f;" horiz-adv-x="433" 
d="M16 18l-11 66l-2 20q0 7 9 13l28 17q11 6 13 6q5 0 11 -10l23 -39q7 -12 18.5 -24t27 -19t32.5 -7q34 0 57 23.5t23 56.5q0 19 -10.5 40.5t-59.5 65.5q-44 38 -64.5 62.5t-26 44t-5.5 37.5q0 39 23.5 69.5t71 51t116.5 20.5q26 0 59 -4t52 -11q21 -7 21 -20l-2 -13
l-17 -63q-1 -4 -4 -10.5t-14 -6.5h-21q-14 0 -17 14q-13 66 -72 66q-29 0 -48 -16.5t-19 -42.5q0 -25 25 -50q16 -16 58 -54q87 -78 87 -153q0 -33 -15.5 -64t-41.5 -49q-25 -18 -62.5 -30t-72.5 -15l-31 -59q12 2 28 2q37 0 58.5 -16t21.5 -44q0 -32 -27 -57.5t-61.5 -36
t-62.5 -10.5q-13 0 -32 3t-35.5 9.5t-16.5 11.5l2 6l10 16q4 6 8 6l5 -1q30 -9 51 -9q30 0 47.5 13.5t17.5 36.5q0 32 -40 32l-34 -4l-7 5l53 94q-61 3 -125 30z" />
    <glyph glyph-name="Scaron" unicode="&#x160;" horiz-adv-x="528" 
d="M37 15q-27 10 -27 28l1 10l15 115q1 5 2.5 12t9.5 10l19 6l9 1q8 0 12 -12q21 -80 48.5 -107t77.5 -27q38 0 67.5 18.5t40.5 45.5t11 51q0 46 -31 96q-13 21 -23.5 35.5t-75.5 87.5q-45 51 -64 89.5t-19 77.5q0 72 68.5 116t181.5 44q70 0 121 -15t51 -35l-2 -12l-12 -69
q-1 -5 -3 -12.5t-13 -13.5l-17 -10q-6 -4 -10 -4q-2 0 -6 2t-17 36q-16 43 -38.5 61t-59.5 18q-20 0 -43.5 -8.5t-39 -31t-15.5 -52.5q0 -38 24 -72q6 -10 9.5 -14.5t79.5 -96.5q55 -67 78 -113.5t23 -92.5q0 -31 -12.5 -64t-43 -60.5t-82 -46t-124.5 -18.5q-42 0 -90.5 7
t-80.5 20zM330 758l-131 172h49l130 -96l157 96h47l-175 -172h-77z" />
    <glyph glyph-name="scaron" unicode="&#x161;" horiz-adv-x="433" 
d="M16 18l-11 66l-2 20q0 7 9 13l28 17q11 6 13 6q5 0 11 -10l23 -39q7 -12 18.5 -24t27 -19t32.5 -7q34 0 57 23.5t23 56.5q0 19 -10.5 40.5t-59.5 65.5q-44 38 -64.5 62.5t-26 44t-5.5 37.5q0 39 23.5 69.5t71 51t116.5 20.5q26 0 59 -4t52 -11q21 -7 21 -20l-2 -13
l-17 -63q-1 -4 -4 -10.5t-14 -6.5h-21q-14 0 -17 14q-13 66 -72 66q-29 0 -48 -16.5t-19 -42.5q0 -25 25 -50q16 -16 58 -54q87 -78 87 -153q0 -33 -15.5 -64t-41.5 -49q-29 -21 -74.5 -34t-90.5 -13q-69 0 -140 30zM257 558l-131 172h49l130 -96l157 96h47l-175 -172h-77z
" />
    <glyph glyph-name="uni0162" unicode="&#x162;" horiz-adv-x="546" 
d="M88 8q0 6 3 10l10 15q2 3 5.5 7.5t19.5 8.5q21 5 33 16t22 65l94 508h-181q-35 0 -35 11q0 5 5 12l39 61q1 2 3.5 5.5t6.5 3.5q6 0 14 -7q15 -11 30 -16t40 -6.5t59 -1.5h363q8 0 15 -0.5t7 -7.5q0 -5 -3 -8l-21 -30q-4 -6 -10 -11t-38 -5h-157l-96 -514q-5 -25 -5 -42
q0 -11 4.5 -18t32.5 -14q21 -5 21 -11q0 -4 -4 -11l-11 -18q-6 -10 -26 -10h-211q-13 0 -21 1t-8 7zM144 -115q0 24 21.5 41.5t46.5 17.5q12 0 26.5 -8.5t25.5 -27.5t11 -37q0 -17 -16.5 -44.5t-49.5 -62.5t-65 -63l-31 23q36 42 49.5 64.5t13.5 36.5t-14 27.5t-16 21
t-2 11.5z" />
    <glyph glyph-name="uni0163" unicode="&#x163;" horiz-adv-x="358" 
d="M69 88q0 6 0.5 19t11.5 72l50 271h-73l9 50h73l18 100l65 30q42 19 56 19q7 0 11.5 -4.5t4.5 -11.5q0 -10 -7 -45l-17 -88h125l-5 -29l-22 -21h-107l-51 -273q-9 -46 -9 -62q0 -47 44 -47q26 0 58 14l9 2q7 0 9 -7l7 -20l1 -8q0 -7 -22.5 -20.5t-69 -27t-77.5 -13.5
q-43 0 -67.5 26.5t-24.5 73.5zM80 -115q0 24 21.5 41.5t46.5 17.5q12 0 26.5 -8.5t25.5 -27.5t11 -37q0 -17 -16.5 -44.5t-49.5 -62.5t-65 -63l-31 23q36 42 49.5 64.5t13.5 36.5t-14 27.5t-16 21t-2 11.5z" />
    <glyph glyph-name="Tcaron" unicode="&#x164;" horiz-adv-x="546" 
d="M88 8q0 6 3 10l10 15q2 3 5.5 7.5t19.5 8.5q21 5 33 16t22 65l94 508h-181q-35 0 -35 11q0 5 5 12l39 61q1 2 3.5 5.5t6.5 3.5q6 0 14 -7q15 -11 30 -16t40 -6.5t59 -1.5h363q8 0 15 -0.5t7 -7.5q0 -5 -3 -8l-21 -30q-4 -6 -10 -11t-38 -5h-157l-96 -514q-5 -25 -5 -42
q0 -11 4.5 -18t32.5 -14q21 -5 21 -11q0 -4 -4 -11l-11 -18q-6 -10 -26 -10h-211q-13 0 -21 1t-8 7zM326 758l-131 172h49l130 -96l157 96h47l-175 -172h-77z" />
    <glyph glyph-name="tcaron" unicode="&#x165;" horiz-adv-x="358" 
d="M69 88q0 6 0.5 19t11.5 72l50 271h-73l9 50h73l18 100l65 30q42 19 56 19q7 0 11.5 -4.5t4.5 -11.5q0 -10 -7 -45l-17 -88h125l-5 -29l-22 -21h-107l-51 -273q-9 -46 -9 -62q0 -47 44 -47q26 0 58 14l9 2q7 0 9 -7l7 -20l1 -8q0 -7 -22.5 -20.5t-69 -27t-77.5 -13.5
q-43 0 -67.5 26.5t-24.5 73.5zM365 528l-28 27q51 60 51 87q0 14 -14 27.5t-16 21t-2 11.5q0 24 21.5 41.5t46.5 17.5q12 0 26.5 -8.5t25.5 -27.5t11 -37q0 -21 -30 -62.5t-92 -97.5z" />
    <glyph glyph-name="Tbar" unicode="&#x166;" horiz-adv-x="546" 
d="M88 8q0 6 3 10l10 15q2 3 5.5 7.5t19.5 8.5q21 5 33 16t22 65l41 222h-140l14 66h138l41 220h-181q-35 0 -35 11q0 5 5 12l39 61q1 2 3.5 5.5t6.5 3.5q6 0 14 -7q15 -11 30 -16t40 -6.5t59 -1.5h363q8 0 15 -0.5t7 -7.5q0 -5 -3 -8l-21 -30q-4 -6 -10 -11t-38 -5h-157
l-41 -220h142l-15 -66h-140l-42 -228q-5 -25 -5 -42q0 -11 4.5 -18t32.5 -14q21 -5 21 -11q0 -4 -4 -11l-11 -18q-6 -10 -26 -10h-211q-13 0 -21 1t-8 7z" />
    <glyph glyph-name="tbar" unicode="&#x167;" horiz-adv-x="358" 
d="M69 88q0 6 0.5 19t11.5 72l17 95h-74l11 52h73l23 124h-73l9 50h73l18 100l65 30q42 19 56 19q7 0 11.5 -4.5t4.5 -11.5q0 -10 -7 -45l-17 -88h125l-5 -29l-22 -21h-107l-24 -124h125l-11 -52h-123l-18 -97q-9 -46 -9 -62q0 -47 44 -47q26 0 58 14l9 2q7 0 9 -7l7 -20
l1 -8q0 -7 -22.5 -20.5t-69 -27t-77.5 -13.5q-43 0 -67.5 26.5t-24.5 73.5z" />
    <glyph glyph-name="Utilde" unicode="&#x168;" horiz-adv-x="697" 
d="M101 192q0 45 14 120l49 264q6 33 6 42q0 11 -4.5 18t-33.5 15q-7 2 -13.5 4t-6.5 7l4 9l10 19q5 10 25 10h214q15 0 22 -1t7 -8l-3 -7l-9 -17q-2 -3 -5.5 -7.5t-21.5 -8.5q-33 -8 -41 -26.5t-15 -54.5l-49 -265q-14 -76 -14 -114q0 -58 32 -90.5t90 -32.5q82 0 130 69
q13 19 26 53.5t28 113.5l50 272q5 27 5 41q0 12 -4.5 19.5t-32.5 14.5q-8 2 -14.5 4.5t-6.5 5.5q0 5 4 10l12 19q1 2 5 6t20 4h144q14 0 21.5 -1t7.5 -8l-2 -7l-9 -17q-2 -3 -5.5 -8t-21.5 -8q-21 -4 -33 -15t-22 -66l-49 -269q-18 -101 -42 -156t-65 -93q-34 -31 -83 -47.5
t-105 -16.5q-104 0 -159.5 52.5t-55.5 151.5zM658 893h11q10 0 10 -5q0 -6 -9 -24q-21 -43 -57 -67t-81 -24q-11 0 -26.5 2t-57.5 20q-44 19 -72 19q-48 0 -82 -38q-3 -3 -9 -3h-12q-8 0 -8 6q0 3 10 22q46 86 130 86q7 0 22.5 -2t53.5 -18q24 -10 41.5 -15.5t38.5 -5.5
q52 0 87 43q3 4 10 4z" />
    <glyph glyph-name="utilde" unicode="&#x169;" horiz-adv-x="602" 
d="M60 107q0 14 1.5 30t14.5 85l26 138q7 35 7 53q0 22 -26 33l-13 5q-3 1 -8 3.5t-5 7.5l1 7l6 20q3 11 22 11h146q22 0 22 -15l-2 -18l-44 -237q-11 -60 -11 -90q0 -26 12 -40.5t33 -14.5q23 0 49.5 21.5t48.5 58.5q42 68 69 208l25 127h130l-61 -330q-9 -46 -9 -59
q0 -9 4.5 -15.5t11.5 -6.5l16 2l10 2l15 2q10 0 11 -12l1 -9l1 -13q0 -2 -1.5 -6.5t-15.5 -9.5l-165 -57q-35 9 -35 36q0 7 6 37l13 72q-17 -28 -34 -50.5t-46 -45.5q-28 -23 -61 -36t-64 -13q-21 0 -45 10.5t-40 39.5t-16 69zM538 693h11q10 0 10 -5q0 -6 -9 -24
q-21 -43 -57 -67t-81 -24q-11 0 -26.5 2t-57.5 20q-44 19 -72 19q-48 0 -82 -38q-3 -3 -9 -3h-12q-8 0 -8 6q0 3 10 22q46 86 130 86q7 0 22.5 -2t53.5 -18q24 -10 41.5 -15.5t38.5 -5.5q52 0 87 43q3 4 10 4z" />
    <glyph glyph-name="Umacron" unicode="&#x16a;" horiz-adv-x="697" 
d="M101 192q0 45 14 120l49 264q6 33 6 42q0 11 -4.5 18t-33.5 15q-7 2 -13.5 4t-6.5 7l4 9l10 19q5 10 25 10h214q15 0 22 -1t7 -8l-3 -7l-9 -17q-2 -3 -5.5 -7.5t-21.5 -8.5q-33 -8 -41 -26.5t-15 -54.5l-49 -265q-14 -76 -14 -114q0 -58 32 -90.5t90 -32.5q82 0 130 69
q13 19 26 53.5t28 113.5l50 272q5 27 5 41q0 12 -4.5 19.5t-32.5 14.5q-8 2 -14.5 4.5t-6.5 5.5q0 5 4 10l12 19q1 2 5 6t20 4h144q14 0 21.5 -1t7.5 -8l-2 -7l-9 -17q-2 -3 -5.5 -8t-21.5 -8q-21 -4 -33 -15t-22 -66l-49 -269q-18 -101 -42 -156t-65 -93q-34 -31 -83 -47.5
t-105 -16.5q-104 0 -159.5 52.5t-55.5 151.5zM307 797l10 68h320l-10 -68h-320z" />
    <glyph glyph-name="umacron" unicode="&#x16b;" horiz-adv-x="602" 
d="M60 107q0 14 1.5 30t14.5 85l26 138q7 35 7 53q0 22 -26 33l-13 5q-3 1 -8 3.5t-5 7.5l1 7l6 20q3 11 22 11h146q22 0 22 -15l-2 -18l-44 -237q-11 -60 -11 -90q0 -26 12 -40.5t33 -14.5q23 0 49.5 21.5t48.5 58.5q42 68 69 208l25 127h130l-61 -330q-9 -46 -9 -59
q0 -9 4.5 -15.5t11.5 -6.5l16 2l10 2l15 2q10 0 11 -12l1 -9l1 -13q0 -2 -1.5 -6.5t-15.5 -9.5l-165 -57q-35 9 -35 36q0 7 6 37l13 72q-17 -28 -34 -50.5t-46 -45.5q-28 -23 -61 -36t-64 -13q-21 0 -45 10.5t-40 39.5t-16 69zM187 597l10 68h320l-10 -68h-320z" />
    <glyph glyph-name="Ubreve" unicode="&#x16c;" horiz-adv-x="697" 
d="M101 192q0 45 14 120l49 264q6 33 6 42q0 11 -4.5 18t-33.5 15q-7 2 -13.5 4t-6.5 7l4 9l10 19q5 10 25 10h214q15 0 22 -1t7 -8l-3 -7l-9 -17q-2 -3 -5.5 -7.5t-21.5 -8.5q-33 -8 -41 -26.5t-15 -54.5l-49 -265q-14 -76 -14 -114q0 -58 32 -90.5t90 -32.5q82 0 130 69
q13 19 26 53.5t28 113.5l50 272q5 27 5 41q0 12 -4.5 19.5t-32.5 14.5q-8 2 -14.5 4.5t-6.5 5.5q0 5 4 10l12 19q1 2 5 6t20 4h144q14 0 21.5 -1t7.5 -8l-2 -7l-9 -17q-2 -3 -5.5 -8t-21.5 -8q-21 -4 -33 -15t-22 -66l-49 -269q-18 -101 -42 -156t-65 -93q-34 -31 -83 -47.5
t-105 -16.5q-104 0 -159.5 52.5t-55.5 151.5zM465 751q-23 0 -49 8.5t-49 28.5t-39 52t-16 74q0 3 1 7.5t12 4.5h9q2 0 5.5 -1t7.5 -13q6 -17 21.5 -36t44 -31.5t62.5 -12.5q47 0 89.5 23.5t62.5 60.5q2 3 4 6.5t9 3.5h10q10 0 10 -6t-5.5 -21.5t-11.5 -27.5
q-30 -55 -78 -87.5t-100 -32.5z" />
    <glyph glyph-name="ubreve" unicode="&#x16d;" horiz-adv-x="602" 
d="M60 107q0 14 1.5 30t14.5 85l26 138q7 35 7 53q0 22 -26 33l-13 5q-3 1 -8 3.5t-5 7.5l1 7l6 20q3 11 22 11h146q22 0 22 -15l-2 -18l-44 -237q-11 -60 -11 -90q0 -26 12 -40.5t33 -14.5q23 0 49.5 21.5t48.5 58.5q42 68 69 208l25 127h130l-61 -330q-9 -46 -9 -59
q0 -9 4.5 -15.5t11.5 -6.5l16 2l10 2l15 2q10 0 11 -12l1 -9l1 -13q0 -2 -1.5 -6.5t-15.5 -9.5l-165 -57q-35 9 -35 36q0 7 6 37l13 72q-17 -28 -34 -50.5t-46 -45.5q-28 -23 -61 -36t-64 -13q-21 0 -45 10.5t-40 39.5t-16 69zM345 551q-23 0 -49 8.5t-49 28.5t-39 52
t-16 74q0 3 1 7.5t12 4.5h9q2 0 5.5 -1t7.5 -13q6 -17 21.5 -36t44 -31.5t62.5 -12.5q47 0 89.5 23.5t62.5 60.5q2 3 4 6.5t9 3.5h10q10 0 10 -6t-5.5 -21.5t-11.5 -27.5q-30 -55 -78 -87.5t-100 -32.5z" />
    <glyph glyph-name="Uring" unicode="&#x16e;" horiz-adv-x="697" 
d="M101 192q0 45 14 120l49 264q6 33 6 42q0 11 -4.5 18t-33.5 15q-7 2 -13.5 4t-6.5 7l4 9l10 19q5 10 25 10h214q15 0 22 -1t7 -8l-3 -7l-9 -17q-2 -3 -5.5 -7.5t-21.5 -8.5q-33 -8 -41 -26.5t-15 -54.5l-49 -265q-14 -76 -14 -114q0 -58 32 -90.5t90 -32.5q82 0 130 69
q13 19 26 53.5t28 113.5l50 272q5 27 5 41q0 12 -4.5 19.5t-32.5 14.5q-8 2 -14.5 4.5t-6.5 5.5q0 5 4 10l12 19q1 2 5 6t20 4h144q14 0 21.5 -1t7.5 -8l-2 -7l-9 -17q-2 -3 -5.5 -8t-21.5 -8q-21 -4 -33 -15t-22 -66l-49 -269q-18 -101 -42 -156t-65 -93q-34 -31 -83 -47.5
t-105 -16.5q-104 0 -159.5 52.5t-55.5 151.5zM460 737q-18 0 -40 8.5t-37.5 30.5t-15.5 50q0 22 12 48.5t42 47t65 20.5q40 0 66.5 -26.5t26.5 -65.5q0 -47 -35 -80t-84 -33zM467 785q22 0 38.5 18t16.5 43q0 20 -12.5 33.5t-30.5 13.5q-23 0 -39.5 -17.5t-16.5 -42.5
q0 -21 12.5 -34.5t31.5 -13.5z" />
    <glyph glyph-name="uring" unicode="&#x16f;" horiz-adv-x="602" 
d="M60 107q0 14 1.5 30t14.5 85l26 138q7 35 7 53q0 22 -26 33l-13 5q-3 1 -8 3.5t-5 7.5l1 7l6 20q3 11 22 11h146q22 0 22 -15l-2 -18l-44 -237q-11 -60 -11 -90q0 -26 12 -40.5t33 -14.5q23 0 49.5 21.5t48.5 58.5q42 68 69 208l25 127h130l-61 -330q-9 -46 -9 -59
q0 -9 4.5 -15.5t11.5 -6.5l16 2l10 2l15 2q10 0 11 -12l1 -9l1 -13q0 -2 -1.5 -6.5t-15.5 -9.5l-165 -57q-35 9 -35 36q0 7 6 37l13 72q-17 -28 -34 -50.5t-46 -45.5q-28 -23 -61 -36t-64 -13q-21 0 -45 10.5t-40 39.5t-16 69zM340 537q-18 0 -40 8.5t-37.5 30.5t-15.5 50
q0 22 12 48.5t42 47t65 20.5q40 0 66.5 -26.5t26.5 -65.5q0 -47 -35 -80t-84 -33zM347 585q22 0 38.5 18t16.5 43q0 20 -12.5 33.5t-30.5 13.5q-23 0 -39.5 -17.5t-16.5 -42.5q0 -21 12.5 -34.5t31.5 -13.5z" />
    <glyph glyph-name="Uhungarumlaut" unicode="&#x170;" horiz-adv-x="697" 
d="M101 192q0 45 14 120l49 264q6 33 6 42q0 11 -4.5 18t-33.5 15q-7 2 -13.5 4t-6.5 7l4 9l10 19q5 10 25 10h214q15 0 22 -1t7 -8l-3 -7l-9 -17q-2 -3 -5.5 -7.5t-21.5 -8.5q-33 -8 -41 -26.5t-15 -54.5l-49 -265q-14 -76 -14 -114q0 -58 32 -90.5t90 -32.5q82 0 130 69
q13 19 26 53.5t28 113.5l50 272q5 27 5 41q0 12 -4.5 19.5t-32.5 14.5q-8 2 -14.5 4.5t-6.5 5.5q0 5 4 10l12 19q1 2 5 6t20 4h144q14 0 21.5 -1t7.5 -8l-2 -7l-9 -17q-2 -3 -5.5 -8t-21.5 -8q-21 -4 -33 -15t-22 -66l-49 -269q-18 -101 -42 -156t-65 -93q-34 -31 -83 -47.5
t-105 -16.5q-104 0 -159.5 52.5t-55.5 151.5zM477 748l186 181q8 8 18.5 13.5t16.5 5.5q10 0 17 -6l34 -28q8 -7 8 -13q0 -3 -1.5 -8t-35.5 -26l-199 -119h-44zM285 748l187 181q8 8 18.5 13.5t16.5 5.5q9 0 16 -6l34 -28q8 -7 8 -13q0 -7 -3.5 -12t-32.5 -22l-200 -119h-44
z" />
    <glyph glyph-name="uhungarumlaut" unicode="&#x171;" horiz-adv-x="602" 
d="M60 107q0 14 1.5 30t14.5 85l26 138q7 35 7 53q0 22 -26 33l-13 5q-3 1 -8 3.5t-5 7.5l1 7l6 20q3 11 22 11h146q22 0 22 -15l-2 -18l-44 -237q-11 -60 -11 -90q0 -26 12 -40.5t33 -14.5q23 0 49.5 21.5t48.5 58.5q42 68 69 208l25 127h130l-61 -330q-9 -46 -9 -59
q0 -9 4.5 -15.5t11.5 -6.5l16 2l10 2l15 2q10 0 11 -12l1 -9l1 -13q0 -2 -1.5 -6.5t-15.5 -9.5l-165 -57q-35 9 -35 36q0 7 6 37l13 72q-17 -28 -34 -50.5t-46 -45.5q-28 -23 -61 -36t-64 -13q-21 0 -45 10.5t-40 39.5t-16 69zM357 548l186 181q8 8 18.5 13.5t16.5 5.5
q10 0 17 -6l34 -28q8 -7 8 -13q0 -3 -1.5 -8t-35.5 -26l-199 -119h-44zM165 548l187 181q8 8 18.5 13.5t16.5 5.5q9 0 16 -6l34 -28q8 -7 8 -13q0 -7 -3.5 -12t-32.5 -22l-200 -119h-44z" />
    <glyph glyph-name="Uogonek" unicode="&#x172;" horiz-adv-x="697" 
d="M101 192q0 45 14 120l49 264q6 33 6 42q0 11 -4.5 18t-33.5 15q-7 2 -13.5 4t-6.5 7l4 9l10 19q5 10 25 10h214q15 0 22 -1t7 -8l-3 -7l-9 -17q-2 -3 -5.5 -7.5t-21.5 -8.5q-33 -8 -41 -26.5t-15 -54.5l-49 -265q-14 -76 -14 -114q0 -58 32 -90.5t90 -32.5q82 0 130 69
q13 19 26 53.5t28 113.5l50 272q5 27 5 41q0 12 -4.5 19.5t-32.5 14.5q-8 2 -14.5 4.5t-6.5 5.5q0 5 4 10l12 19q1 2 5 6t20 4h144q14 0 21.5 -1t7.5 -8l-2 -7l-9 -17q-2 -3 -5.5 -8t-21.5 -8q-21 -4 -33 -15t-22 -66l-49 -269q-18 -101 -42 -156t-65 -93q-45 -40 -107 -55
q-35 -21 -54 -48.5t-19 -56.5q0 -27 16.5 -41t47.5 -14q22 0 49 8l9 2q4 0 7 -10l4 -13l1 -5q0 -5 -16 -12.5t-49 -15t-57 -7.5q-44 0 -71.5 21.5t-27.5 55.5q0 27 14 54.5t39 47.5q11 9 36 25h-10q-104 0 -159.5 52.5t-55.5 151.5z" />
    <glyph glyph-name="uogonek" unicode="&#x173;" horiz-adv-x="602" 
d="M352 55l14 78q-17 -28 -34 -50.5t-46 -45.5q-28 -23 -61 -36t-64 -13q-21 0 -45 10.5t-40 39.5t-16 69q0 14 1.5 30t14.5 85l26 138q7 35 7 53q0 22 -26 33l-13 5q-3 1 -8 3.5t-5 7.5l1 7l6 20q3 11 22 11h146q22 0 22 -15l-2 -18l-44 -237q-11 -60 -11 -90
q0 -26 12 -40.5t33 -14.5q23 0 49.5 21.5t48.5 58.5q42 68 69 208l25 127h130l-61 -330q-9 -46 -9 -59q0 -9 4.5 -15.5t11.5 -6.5l16 2l10 2l15 2q10 0 11 -12l1 -9l1 -13q0 -2 -1.5 -6.5t-15.5 -9.5q-33 -12 -65 -36t-53 -58.5t-21 -58.5q0 -27 16.5 -41t47.5 -14
q22 0 49 8l9 2q4 0 7 -10l4 -13l1 -5q0 -5 -16 -12.5t-49 -15t-57 -7.5q-44 0 -71.5 21.5t-27.5 55.5q0 20 10.5 45.5t36 51.5t59.5 46q-34 -8 -47 -8t-22 5.5t-9 26.5z" />
    <glyph glyph-name="Wcircumflex" unicode="&#x174;" horiz-adv-x="998" 
d="M212 43l-56 511q-6 54 -14 71.5t-33 26.5q-8 4 -8 9q0 7 4 12l9 15q2 3 6 7.5t22 4.5h188q18 0 18 -8l-2 -8l-9 -17q-3 -7 -12 -12l-20 -10q-9 -5 -15 -16.5t-6 -26.5l2 -34l36 -399l240 499q7 15 13.5 23.5t23.5 8.5h30q5 0 13.5 -2.5t10.5 -21.5l43 -507l199 415
q16 32 16 45q0 9 -4.5 13.5t-22.5 12.5q-7 3 -7 9q0 7 4 12l8 14q2 3 5 6.5t20 3.5h136q5 0 13.5 -0.5t8.5 -6.5l-4 -8l-9 -17q-4 -8 -13 -12l-19 -7q-24 -9 -36 -27t-30 -55l-265 -536q-7 -13 -15.5 -22t-25.5 -9h-37q-12 0 -20 5.5t-12 38.5l-43 450l-219 -458
q-10 -21 -20.5 -28.5t-24.5 -7.5h-35q-11 0 -19.5 6.5t-12.5 36.5zM434 758l176 172h76l131 -172h-49l-131 97l-155 -97h-48z" />
    <glyph glyph-name="wcircumflex" unicode="&#x175;" horiz-adv-x="715" 
d="M130 0l-31 333q-6 61 -15.5 80.5t-40.5 31.5q-3 1 -5.5 4t-2.5 5l3 10l13 23q2 4 6 8.5t21 4.5h136l18 -333q71 131 106.5 205t53.5 128h92l32 -333l82 145q16 28 26.5 53t10.5 55l-3 56v9q0 3 1.5 7.5t14.5 7.5l31 8l12 2q9 0 15 -13l16 -35q6 -13 6 -23
q0 -12 -10.5 -37t-56.5 -104l-176 -298h-74l-28 335l-177 -335h-76zM252 558l176 172h76l131 -172h-49l-131 97l-155 -97h-48z" />
    <glyph glyph-name="Ycircumflex" unicode="&#x176;" 
d="M101 9l2 7l10 17q2 3 5.5 7.5t19.5 8.5q21 5 33 16t22 65l27 149l-65 292q-10 44 -18.5 58.5t-31.5 24.5q-6 3 -6 8l4 12l9 16q2 3 5 6.5t20 3.5h193q20 0 20 -8l-3 -8l-9 -17q-6 -9 -12 -12l-11 -5q-28 -13 -28 -35q0 -15 5 -38l41 -238l166 247q18 27 18 40
q0 16 -26 28q-9 5 -9 11l2 6l10 18q2 3 5.5 7t21.5 4h139q4 0 10.5 -0.5t6.5 -6.5l-3 -8l-8 -14q-7 -12 -16 -16l-15 -7q-20 -10 -34.5 -23.5t-42.5 -54.5l-172 -251q-19 -28 -28.5 -45.5t-17.5 -58.5l-16 -90q-6 -34 -6 -43q0 -11 5 -18t33 -14q8 -2 14.5 -4.5t6.5 -7.5
l-4 -10l-11 -18q-6 -10 -26 -10h-207q-14 0 -21 1t-7 8zM222 758l176 172h76l131 -172h-49l-131 97l-155 -97h-48z" />
    <glyph glyph-name="ycircumflex" unicode="&#x177;" horiz-adv-x="470" 
d="M83 -98l63 100l-57 336q-10 58 -18 75t-35 30q-12 6 -12 11q0 6 3 10l14 23q2 4 6 8.5t21 4.5h142l39 -364l97 158q19 30 33 60.5t14 59.5l-3 60v6q0 4 2 10.5t16 9.5l35 8l13 2q8 0 14 -12l18 -38q7 -14 7 -25q0 -12 -6.5 -28t-54.5 -89l-315 -481q-36 -55 -54 -70.5
t-45 -15.5h-49q-12 0 -18 3t-8 11l-8 32l-2 11q0 9 17 13l41 9q24 5 43 16.5t47 55.5zM111 558l176 172h76l131 -172h-49l-131 97l-155 -97h-48z" />
    <glyph glyph-name="Ydieresis" unicode="&#x178;" 
d="M101 9l2 7l10 17q2 3 5.5 7.5t19.5 8.5q21 5 33 16t22 65l27 149l-65 292q-10 44 -18.5 58.5t-31.5 24.5q-6 3 -6 8l4 12l9 16q2 3 5 6.5t20 3.5h193q20 0 20 -8l-3 -8l-9 -17q-6 -9 -12 -12l-11 -5q-28 -13 -28 -35q0 -15 5 -38l41 -238l166 247q18 27 18 40
q0 16 -26 28q-9 5 -9 11l2 6l10 18q2 3 5.5 7t21.5 4h139q4 0 10.5 -0.5t6.5 -6.5l-3 -8l-8 -14q-7 -12 -16 -16l-15 -7q-20 -10 -34.5 -23.5t-42.5 -54.5l-172 -251q-19 -28 -28.5 -45.5t-17.5 -58.5l-16 -90q-6 -34 -6 -43q0 -11 5 -18t33 -14q8 -2 14.5 -4.5t6.5 -7.5
l-4 -10l-11 -18q-6 -10 -26 -10h-207q-14 0 -21 1t-7 8zM517 773q-21 0 -35 14t-14 35q0 27 20.5 48.5t47.5 21.5q22 0 36.5 -14t14.5 -35q0 -28 -21 -49t-49 -21zM314 772q-21 0 -35.5 14t-14.5 35q0 26 22 48t49 22q21 0 34.5 -13.5t13.5 -35.5q0 -29 -20.5 -49.5
t-48.5 -20.5z" />
    <glyph glyph-name="Zacute" unicode="&#x179;" 
d="M-4 0l-17 44l478 599h-151q-51 0 -77 -16.5t-53 -67.5q-7 -14 -14 -14l-10 5l-13 10q-5 5 -5 11l2 12l14 81q3 18 9 27t34 9h439l-7 -39l-483 -602h234q26 0 44 2.5t37 15.5q13 9 27.5 25.5t23.5 32.5q8 15 16 15l5 -1l17 -8q7 -4 7 -11l-1 -10l-17 -87
q-3 -16 -9.5 -24.5t-38.5 -8.5h-491zM273 748l196 174q22 20 35 20q9 0 18 -9l36 -32q5 -5 5 -11q0 -8 -7.5 -14.5t-31.5 -19.5l-203 -108h-48z" />
    <glyph glyph-name="zacute" unicode="&#x17a;" horiz-adv-x="451" 
d="M-15 0l-6 39l335 408h-79q-34 0 -58.5 -8.5t-70.5 -66.5q-6 -9 -13 -9q-6 1 -8 4l-8 9q-4 4 -4 10l4 23l12 64q2 12 7 19.5t24 7.5h346l-8 -48l-322 -393h116q58 0 84 20.5t45 50.5q8 12 14 12l7 -2l10 -5q7 -3 7 -8l-1 -11l-17 -83q-4 -18 -16.5 -25.5t-39.5 -7.5h-360z
M168 548l196 174q22 20 35 20q9 0 18 -9l36 -32q5 -5 5 -11q0 -8 -7.5 -14.5t-31.5 -19.5l-203 -108h-48z" />
    <glyph glyph-name="Zdotaccent" unicode="&#x17b;" 
d="M-4 0l-17 44l478 599h-151q-51 0 -77 -16.5t-53 -67.5q-7 -14 -14 -14l-10 5l-13 10q-5 5 -5 11l2 12l14 81q3 18 9 27t34 9h439l-7 -39l-483 -602h234q26 0 44 2.5t37 15.5q13 9 27.5 25.5t23.5 32.5q8 15 16 15l5 -1l17 -8q7 -4 7 -11l-1 -10l-17 -87
q-3 -16 -9.5 -24.5t-38.5 -8.5h-491zM389 774q-21 0 -36 14.5t-15 35.5q0 27 22.5 49.5t49.5 22.5q21 0 35.5 -14.5t14.5 -35.5q0 -29 -21 -50.5t-50 -21.5z" />
    <glyph glyph-name="zdotaccent" unicode="&#x17c;" horiz-adv-x="451" 
d="M-15 0l-6 39l335 408h-79q-34 0 -58.5 -8.5t-70.5 -66.5q-6 -9 -13 -9q-6 1 -8 4l-8 9q-4 4 -4 10l4 23l12 64q2 12 7 19.5t24 7.5h346l-8 -48l-322 -393h116q58 0 84 20.5t45 50.5q8 12 14 12l7 -2l10 -5q7 -3 7 -8l-1 -11l-17 -83q-4 -18 -16.5 -25.5t-39.5 -7.5h-360z
M284 574q-21 0 -36 14.5t-15 35.5q0 27 22.5 49.5t49.5 22.5q21 0 35.5 -14.5t14.5 -35.5q0 -29 -21 -50.5t-50 -21.5z" />
    <glyph glyph-name="Zcaron" unicode="&#x17d;" 
d="M-4 0l-17 44l478 599h-151q-51 0 -77 -16.5t-53 -67.5q-7 -14 -14 -14l-10 5l-13 10q-5 5 -5 11l2 12l14 81q3 18 9 27t34 9h439l-7 -39l-483 -602h234q26 0 44 2.5t37 15.5q13 9 27.5 25.5t23.5 32.5q8 15 16 15l5 -1l17 -8q7 -4 7 -11l-1 -10l-17 -87
q-3 -16 -9.5 -24.5t-38.5 -8.5h-491zM349 758l-131 172h49l130 -96l157 96h47l-175 -172h-77z" />
    <glyph glyph-name="zcaron" unicode="&#x17e;" horiz-adv-x="451" 
d="M-15 0l-6 39l335 408h-79q-34 0 -58.5 -8.5t-70.5 -66.5q-6 -9 -13 -9q-6 1 -8 4l-8 9q-4 4 -4 10l4 23l12 64q2 12 7 19.5t24 7.5h346l-8 -48l-322 -393h116q58 0 84 20.5t45 50.5q8 12 14 12l7 -2l10 -5q7 -3 7 -8l-1 -11l-17 -83q-4 -18 -16.5 -25.5t-39.5 -7.5h-360z
M244 558l-131 172h49l130 -96l157 96h47l-175 -172h-77z" />
    <glyph glyph-name="florin" unicode="&#x192;" 
d="M87 -91q22 33 55 127.5t61 197.5l50 183h-102l13 51h103q18 56 42 106t66 89q40 36 87.5 53t107.5 17q55 0 105 -19l-18 -90l-39 -12q-12 38 -27.5 54t-40.5 16q-42 0 -74 -43t-60 -135l-11 -36h145l-8 -28l-24 -23h-127l-43 -157q-83 -302 -199 -398
q-38 -31 -89.5 -52.5t-88.5 -21.5q-5 0 -14.5 2t-24.5 17l-40 40q-9 9 -9 15q0 3 5 10l12 17q8 9 14 9t17 -5l43 -18q30 -13 47 -13q35 0 66 47z" />
    <glyph glyph-name="AEacute" unicode="&#x1fc;" horiz-adv-x="854" 
d="M-60 0q-15 0 -15 9q0 5 3 9l9 16q4 7 10 9l17 6q14 5 30 17.5t51 61.5l299 417q23 32 32.5 49.5t9.5 29.5q0 8 -6.5 15t-32.5 14q-12 3 -18.5 6t-6.5 8l2 8l8 13q2 3 6.5 7.5t23.5 4.5h463q18 0 28 -2t10 -14l-1 -10l-12 -68q-1 -5 -3 -11t-12 -13l-19 -12l-7 -3
q-10 0 -15 15q-14 34 -24 47t-26 15.5t-38 2.5h-99l-43 -236h194q12 0 18 -1t6 -7q0 -5 -3 -10l-14 -28q-3 -5 -8 -12t-33 -7h-172l-32 -169q-9 -48 -9 -80q0 -24 13.5 -34t46.5 -10h62q68 0 111 74q9 16 17 16l7 -1l21 -7q13 -5 13 -11l-1 -7l-15 -75q-5 -27 -20 -34.5
t-62 -7.5h-293q-20 0 -34.5 6.5t-14.5 31.5q0 16 5 43l22 121h-221l-65 -93q-20 -28 -20 -40q0 -11 23 -23q3 -2 6 -4.5t3 -4.5q0 -7 -4 -12l-9 -14q-2 -3 -6 -7t-22 -4h-134zM213 267h187l68 364zM472 748l196 174q22 20 35 20q9 0 18 -9l36 -32q5 -5 5 -11
q0 -8 -7.5 -14.5t-31.5 -19.5l-203 -108h-48z" />
    <glyph glyph-name="aeacute" unicode="&#x1fd;" horiz-adv-x="811" 
d="M25 168q0 66 28 129t77.5 111.5t113.5 76t132 27.5q36 0 70.5 -8t50.5 -20q9 -8 18 -27q43 30 77.5 42.5t76.5 12.5q65 0 104.5 -30.5t39.5 -80.5q0 -77 -104 -128q-81 -39 -196 -40l-2 -33q0 -29 10 -61t36.5 -53.5t61.5 -21.5q24 0 53.5 10t49.5 25q9 7 16 7l5 -3l8 -5
q4 -3 4 -9l-2 -10l-6 -24q-4 -16 -21 -27q-32 -19 -78 -29.5t-83 -10.5q-84 0 -135 53q-17 18 -28.5 39.5t-20.5 58.5q-54 -74 -107.5 -112.5t-101.5 -38.5q-37 0 -72.5 24t-55 67.5t-19.5 88.5zM225 74q20 0 47.5 19.5t60 68t51.5 109.5t19 108q0 38 -16.5 59t-47.5 21
q-30 0 -56 -16.5t-50 -51.5q-28 -41 -46 -98.5t-18 -108.5t15 -80.5t41 -29.5zM521 293q85 0 136.5 29t51.5 77q0 24 -15 40t-37 16q-45 0 -80.5 -42.5t-55.5 -119.5zM395 548l196 174q22 20 35 20q9 0 18 -9l36 -32q5 -5 5 -11q0 -8 -7.5 -14.5t-31.5 -19.5l-203 -108h-48z
" />
    <glyph glyph-name="Oslashacute" unicode="&#x1fe;" horiz-adv-x="754" 
d="M3 9l97 95q-18 29 -31.5 68t-13.5 107q0 89 31 169t86.5 139t131 92t159.5 33q63 0 107 -16t86 -54l79 76l39 -39l-82 -79q18 -30 31.5 -70t13.5 -108q0 -110 -49.5 -210t-142.5 -162t-203 -62q-60 0 -108.5 17t-98.5 57l-94 -91zM216 197l348 371q-20 45 -49 65t-74 20
q-49 0 -90.5 -25t-70.5 -73q-34 -57 -53 -126.5t-19 -139.5q0 -41 8 -92zM231 141q36 -94 119 -94q68 0 122 55.5t85 159.5q11 38 19 91.5t8 91.5q0 24 -4 68zM372 748l196 174q22 20 35 20q9 0 18 -9l36 -32q5 -5 5 -11q0 -8 -7.5 -14.5t-31.5 -19.5l-203 -108h-48z" />
    <glyph glyph-name="oslashacute" unicode="&#x1ff;" horiz-adv-x="565" 
d="M6 -23l-31 34l81 73q-26 55 -26 114q0 66 30 131.5t81 112.5q17 16 46.5 32.5t68.5 27t72 10.5q47 0 83 -13t66 -41l69 60l31 -34l-70 -63q27 -51 27 -114q0 -65 -23 -123.5t-64 -102.5t-95 -68.5t-113 -24.5q-34 0 -73 10.5t-83 49.5zM170 180l217 207q-8 35 -25 50.5
t-46 15.5q-36 0 -68 -32.5t-54.5 -95t-23.5 -145.5zM178 122q10 -39 28 -56.5t48 -17.5q58 0 95.5 73.5t46.5 206.5zM238 548l196 174q22 20 35 20q9 0 18 -9l36 -32q5 -5 5 -11q0 -8 -7.5 -14.5t-31.5 -19.5l-203 -108h-48z" />
    <glyph glyph-name="uni0218" unicode="&#x218;" horiz-adv-x="528" 
d="M37 15q-27 10 -27 28l1 10l15 115q1 5 2.5 12t9.5 10l19 6l9 1q8 0 12 -12q21 -80 48.5 -107t77.5 -27q38 0 67.5 18.5t40.5 45.5t11 51q0 46 -31 96q-13 21 -23.5 35.5t-75.5 87.5q-45 51 -64 89.5t-19 77.5q0 72 68.5 116t181.5 44q70 0 121 -15t51 -35l-2 -12l-12 -69
q-1 -5 -3 -12.5t-13 -13.5l-17 -10q-6 -4 -10 -4q-2 0 -6 2t-17 36q-16 43 -38.5 61t-59.5 18q-20 0 -43.5 -8.5t-39 -31t-15.5 -52.5q0 -38 24 -72q6 -10 9.5 -14.5t79.5 -96.5q55 -67 78 -113.5t23 -92.5q0 -31 -12.5 -64t-43 -60.5t-82 -46t-124.5 -18.5q-42 0 -90.5 7
t-80.5 20zM150 -115q0 24 21.5 41.5t46.5 17.5q12 0 26.5 -8.5t25.5 -27.5t11 -37q0 -17 -16.5 -44.5t-49.5 -62.5t-65 -63l-31 23q36 42 49.5 64.5t13.5 36.5t-14 27.5t-16 21t-2 11.5z" />
    <glyph glyph-name="uni0219" unicode="&#x219;" horiz-adv-x="433" 
d="M16 18l-11 66l-2 20q0 7 9 13l28 17q11 6 13 6q5 0 11 -10l23 -39q7 -12 18.5 -24t27 -19t32.5 -7q34 0 57 23.5t23 56.5q0 19 -10.5 40.5t-59.5 65.5q-44 38 -64.5 62.5t-26 44t-5.5 37.5q0 39 23.5 69.5t71 51t116.5 20.5q26 0 59 -4t52 -11q21 -7 21 -20l-2 -13
l-17 -63q-1 -4 -4 -10.5t-14 -6.5h-21q-14 0 -17 14q-13 66 -72 66q-29 0 -48 -16.5t-19 -42.5q0 -25 25 -50q16 -16 58 -54q87 -78 87 -153q0 -33 -15.5 -64t-41.5 -49q-29 -21 -74.5 -34t-90.5 -13q-69 0 -140 30zM68 -115q0 24 21.5 41.5t46.5 17.5q12 0 26.5 -8.5
t25.5 -27.5t11 -37q0 -17 -16.5 -44.5t-49.5 -62.5t-65 -63l-31 23q36 42 49.5 64.5t13.5 36.5t-14 27.5t-16 21t-2 11.5z" />
    <glyph glyph-name="uni021A" unicode="&#x21a;" horiz-adv-x="546" 
d="M88 8q0 6 3 10l10 15q2 3 5.5 7.5t19.5 8.5q21 5 33 16t22 65l94 508h-181q-35 0 -35 11q0 5 5 12l39 61q1 2 3.5 5.5t6.5 3.5q6 0 14 -7q15 -11 30 -16t40 -6.5t59 -1.5h363q8 0 15 -0.5t7 -7.5q0 -5 -3 -8l-21 -30q-4 -6 -10 -11t-38 -5h-157l-96 -514q-5 -25 -5 -42
q0 -11 4.5 -18t32.5 -14q21 -5 21 -11q0 -4 -4 -11l-11 -18q-6 -10 -26 -10h-211q-13 0 -21 1t-8 7zM159 -115q0 24 21.5 41.5t46.5 17.5q12 0 26.5 -8.5t25.5 -27.5t11 -37q0 -17 -16.5 -44.5t-49.5 -62.5t-65 -63l-31 23q36 42 49.5 64.5t13.5 36.5t-14 27.5t-16 21
t-2 11.5z" />
    <glyph glyph-name="uni021B" unicode="&#x21b;" horiz-adv-x="358" 
d="M69 88q0 6 0.5 19t11.5 72l50 271h-73l9 50h73l18 100l65 30q42 19 56 19q7 0 11.5 -4.5t4.5 -11.5q0 -10 -7 -45l-17 -88h125l-5 -29l-22 -21h-107l-51 -273q-9 -46 -9 -62q0 -47 44 -47q26 0 58 14l9 2q7 0 9 -7l7 -20l1 -8q0 -7 -22.5 -20.5t-69 -27t-77.5 -13.5
q-43 0 -67.5 26.5t-24.5 73.5zM80 -115q0 24 21.5 41.5t46.5 17.5q12 0 26.5 -8.5t25.5 -27.5t11 -37q0 -17 -16.5 -44.5t-49.5 -62.5t-65 -63l-31 23q36 42 49.5 64.5t13.5 36.5t-14 27.5t-16 21t-2 11.5z" />
    <glyph glyph-name="circumflex" unicode="&#x2c6;" horiz-adv-x="524" 
d="M127 558l176 172h76l131 -172h-49l-131 97l-155 -97h-48z" />
    <glyph glyph-name="caron" unicode="&#x2c7;" horiz-adv-x="524" 
d="M281 558l-131 172h49l130 -96l157 96h47l-175 -172h-77z" />
    <glyph glyph-name="uni02C9" unicode="&#x2c9;" horiz-adv-x="524" 
d="M137 597l10 68h380l-10 -68h-380z" />
    <glyph glyph-name="breve" unicode="&#x2d8;" horiz-adv-x="524" 
d="M325 551q-23 0 -49 8.5t-49 28.5t-39 52t-16 74q0 3 1 7.5t12 4.5h9q2 0 5.5 -1t7.5 -13q6 -17 21.5 -36t44 -31.5t62.5 -12.5q47 0 89.5 23.5t62.5 60.5q2 3 4 6.5t9 3.5h10q10 0 10 -6t-5.5 -21.5t-11.5 -27.5q-30 -55 -78 -87.5t-100 -32.5z" />
    <glyph glyph-name="dotaccent" unicode="&#x2d9;" horiz-adv-x="524" 
d="M321 574q-21 0 -36 14.5t-15 35.5q0 27 22.5 49.5t49.5 22.5q21 0 35.5 -14.5t14.5 -35.5q0 -29 -21 -50.5t-50 -21.5z" />
    <glyph glyph-name="ring" unicode="&#x2da;" horiz-adv-x="524" 
d="M320 537q-18 0 -40 8.5t-37.5 30.5t-15.5 50q0 22 12 48.5t42 47t65 20.5q40 0 66.5 -26.5t26.5 -65.5q0 -47 -35 -80t-84 -33zM327 585q22 0 38.5 18t16.5 43q0 20 -12.5 33.5t-30.5 13.5q-23 0 -39.5 -17.5t-16.5 -42.5q0 -21 12.5 -34.5t31.5 -13.5z" />
    <glyph glyph-name="ogonek" unicode="&#x2db;" horiz-adv-x="524" 
d="M218 -139q0 27 14 54.5t39 47.5q15 12 57 37h55q-37 -21 -57.5 -49.5t-20.5 -58.5q0 -27 16.5 -41t47.5 -14q22 0 49 8l9 2q4 0 7 -10l4 -13l1 -5q0 -5 -16 -12.5t-49 -15t-57 -7.5q-44 0 -71.5 21.5t-27.5 55.5z" />
    <glyph glyph-name="tilde" unicode="&#x2dc;" horiz-adv-x="524" 
d="M518 693h11q10 0 10 -5q0 -6 -9 -24q-21 -43 -57 -67t-81 -24q-11 0 -26.5 2t-57.5 20q-44 19 -72 19q-48 0 -82 -38q-3 -3 -9 -3h-12q-8 0 -8 6q0 3 10 22q46 86 130 86q7 0 22.5 -2t53.5 -18q24 -10 41.5 -15.5t38.5 -5.5q52 0 87 43q3 4 10 4z" />
    <glyph glyph-name="hungarumlaut" unicode="&#x2dd;" horiz-adv-x="524" 
d="M337 548l186 181q8 8 18.5 13.5t16.5 5.5q10 0 17 -6l34 -28q8 -7 8 -13q0 -3 -1.5 -8t-35.5 -26l-199 -119h-44zM145 548l187 181q8 8 18.5 13.5t16.5 5.5q9 0 16 -6l34 -28q8 -7 8 -13q0 -7 -3.5 -12t-32.5 -22l-200 -119h-44z" />
    <glyph glyph-name="uni03A9" unicode="&#x3a9;" horiz-adv-x="787" 
d="M44 0v116h168q-83 51 -126 123.5t-43 164.5q0 65 25 122t71.5 98.5t112 64.5t141.5 23q83 0 148.5 -24t108.5 -65.5t64.5 -97.5t21.5 -118q0 -56 -18.5 -110t-58.5 -101t-97 -80h172v-116h-285v116q66 56 99 119.5t33 141.5q0 43 -12.5 81.5t-36.5 67.5t-59.5 45
t-79.5 16q-41 0 -77 -15t-62.5 -43.5t-41.5 -68.5t-15 -88q0 -146 133 -256v-116h-286z" />
    <glyph glyph-name="uni03BC" unicode="&#x3bc;" horiz-adv-x="602" 
d="M103 14q-11 -82 -14.5 -112.5t-5.5 -67.5q-1 -21 -10.5 -32t-67.5 -11q-60 0 -60 19q0 2 0.5 3.5t12.5 30.5q33 77 70.5 199.5t48.5 178.5l26 138q7 34 7 53q0 24 -26 33l-14 5q-3 1 -7.5 3t-4.5 8l1 7l5 20q3 11 22 11h147q22 0 22 -15l-2 -18l-44 -237q-11 -61 -11 -90
q0 -26 12 -40.5t33 -14.5q23 0 49.5 21.5t48.5 58.5q43 71 69 208l24 127h131l-62 -330q-8 -44 -8 -59q0 -9 4.5 -15.5t11.5 -6.5l16 2l14 3l10 1q10 0 11 -12l1 -9l1 -13q0 -3 -1.5 -7t-15.5 -9l-165 -57q-34 9 -34 36q0 14 5 37l13 72q-35 -61 -79 -96q-62 -49 -126 -49
q-40 0 -58 26z" />
    <glyph glyph-name="pi" unicode="&#x3c0;" horiz-adv-x="777" 
d="M697 103l24 -90q-18 -10 -45.5 -16.5t-58.5 -6.5q-50 0 -84 19t-52 55.5t-18 89.5v243h-140v-246q0 -97 -21 -151h-146q11 31 17 75.5t6 86.5v235q-21 0 -52.5 -7.5t-49.5 -17.5l-39 90q26 15 72.5 26.5t99.5 11.5h505v-103h-108v-223q0 -81 53 -81q17 0 37 10z" />
    <glyph glyph-name="Wgrave" unicode="&#x1e80;" horiz-adv-x="998" 
d="M212 43l-56 511q-6 54 -14 71.5t-33 26.5q-8 4 -8 9q0 7 4 12l9 15q2 3 6 7.5t22 4.5h188q18 0 18 -8l-2 -8l-9 -17q-3 -7 -12 -12l-20 -10q-9 -5 -15 -16.5t-6 -26.5l2 -34l36 -399l240 499q7 15 13.5 23.5t23.5 8.5h30q5 0 13.5 -2.5t10.5 -21.5l43 -507l199 415
q16 32 16 45q0 9 -4.5 13.5t-22.5 12.5q-7 3 -7 9q0 7 4 12l8 14q2 3 5 6.5t20 3.5h136q5 0 13.5 -0.5t8.5 -6.5l-4 -8l-9 -17q-4 -8 -13 -12l-19 -7q-24 -9 -36 -27t-30 -55l-265 -536q-7 -13 -15.5 -22t-25.5 -9h-37q-12 0 -20 5.5t-12 38.5l-43 450l-219 -458
q-10 -21 -20.5 -28.5t-24.5 -7.5h-35q-11 0 -19.5 6.5t-12.5 36.5zM666 748l-173 108q-18 11 -25.5 16.5t-7.5 13.5t10 15l45 32q12 9 20 9q13 0 30 -20l149 -174h-48z" />
    <glyph glyph-name="wgrave" unicode="&#x1e81;" horiz-adv-x="715" 
d="M130 0l-31 333q-6 61 -15.5 80.5t-40.5 31.5q-3 1 -5.5 4t-2.5 5l3 10l13 23q2 4 6 8.5t21 4.5h136l18 -333q71 131 106.5 205t53.5 128h92l32 -333l82 145q16 28 26.5 53t10.5 55l-3 56v9q0 3 1.5 7.5t14.5 7.5l31 8l12 2q9 0 15 -13l16 -35q6 -13 6 -23
q0 -12 -10.5 -37t-56.5 -104l-176 -298h-74l-28 335l-177 -335h-76zM484 548l-173 108q-18 11 -25.5 16.5t-7.5 13.5t10 15l45 32q12 9 20 9q13 0 30 -20l149 -174h-48z" />
    <glyph glyph-name="Wacute" unicode="&#x1e82;" horiz-adv-x="998" 
d="M212 43l-56 511q-6 54 -14 71.5t-33 26.5q-8 4 -8 9q0 7 4 12l9 15q2 3 6 7.5t22 4.5h188q18 0 18 -8l-2 -8l-9 -17q-3 -7 -12 -12l-20 -10q-9 -5 -15 -16.5t-6 -26.5l2 -34l36 -399l240 499q7 15 13.5 23.5t23.5 8.5h30q5 0 13.5 -2.5t10.5 -21.5l43 -507l199 415
q16 32 16 45q0 9 -4.5 13.5t-22.5 12.5q-7 3 -7 9q0 7 4 12l8 14q2 3 5 6.5t20 3.5h136q5 0 13.5 -0.5t8.5 -6.5l-4 -8l-9 -17q-4 -8 -13 -12l-19 -7q-24 -9 -36 -27t-30 -55l-265 -536q-7 -13 -15.5 -22t-25.5 -9h-37q-12 0 -20 5.5t-12 38.5l-43 450l-219 -458
q-10 -21 -20.5 -28.5t-24.5 -7.5h-35q-11 0 -19.5 6.5t-12.5 36.5zM512 748l196 174q22 20 35 20q9 0 18 -9l36 -32q5 -5 5 -11q0 -8 -7.5 -14.5t-31.5 -19.5l-203 -108h-48z" />
    <glyph glyph-name="wacute" unicode="&#x1e83;" horiz-adv-x="715" 
d="M130 0l-31 333q-6 61 -15.5 80.5t-40.5 31.5q-3 1 -5.5 4t-2.5 5l3 10l13 23q2 4 6 8.5t21 4.5h136l18 -333q71 131 106.5 205t53.5 128h92l32 -333l82 145q16 28 26.5 53t10.5 55l-3 56v9q0 3 1.5 7.5t14.5 7.5l31 8l12 2q9 0 15 -13l16 -35q6 -13 6 -23
q0 -12 -10.5 -37t-56.5 -104l-176 -298h-74l-28 335l-177 -335h-76zM330 548l196 174q22 20 35 20q9 0 18 -9l36 -32q5 -5 5 -11q0 -8 -7.5 -14.5t-31.5 -19.5l-203 -108h-48z" />
    <glyph glyph-name="Wdieresis" unicode="&#x1e84;" horiz-adv-x="998" 
d="M212 43l-56 511q-6 54 -14 71.5t-33 26.5q-8 4 -8 9q0 7 4 12l9 15q2 3 6 7.5t22 4.5h188q18 0 18 -8l-2 -8l-9 -17q-3 -7 -12 -12l-20 -10q-9 -5 -15 -16.5t-6 -26.5l2 -34l36 -399l240 499q7 15 13.5 23.5t23.5 8.5h30q5 0 13.5 -2.5t10.5 -21.5l43 -507l199 415
q16 32 16 45q0 9 -4.5 13.5t-22.5 12.5q-7 3 -7 9q0 7 4 12l8 14q2 3 5 6.5t20 3.5h136q5 0 13.5 -0.5t8.5 -6.5l-4 -8l-9 -17q-4 -8 -13 -12l-19 -7q-24 -9 -36 -27t-30 -55l-265 -536q-7 -13 -15.5 -22t-25.5 -9h-37q-12 0 -20 5.5t-12 38.5l-43 450l-219 -458
q-10 -21 -20.5 -28.5t-24.5 -7.5h-35q-11 0 -19.5 6.5t-12.5 36.5zM729 773q-21 0 -35 14t-14 35q0 27 20.5 48.5t47.5 21.5q22 0 36.5 -14t14.5 -35q0 -28 -21 -49t-49 -21zM526 772q-21 0 -35.5 14t-14.5 35q0 26 22 48t49 22q21 0 34.5 -13.5t13.5 -35.5
q0 -29 -20.5 -49.5t-48.5 -20.5z" />
    <glyph glyph-name="wdieresis" unicode="&#x1e85;" horiz-adv-x="715" 
d="M130 0l-31 333q-6 61 -15.5 80.5t-40.5 31.5q-3 1 -5.5 4t-2.5 5l3 10l13 23q2 4 6 8.5t21 4.5h136l18 -333q71 131 106.5 205t53.5 128h92l32 -333l82 145q16 28 26.5 53t10.5 55l-3 56v9q0 3 1.5 7.5t14.5 7.5l31 8l12 2q9 0 15 -13l16 -35q6 -13 6 -23
q0 -12 -10.5 -37t-56.5 -104l-176 -298h-74l-28 335l-177 -335h-76zM547 573q-21 0 -35 14t-14 35q0 27 20.5 48.5t47.5 21.5q22 0 36.5 -14t14.5 -35q0 -28 -21 -49t-49 -21zM344 572q-21 0 -35.5 14t-14.5 35q0 26 22 48t49 22q21 0 34.5 -13.5t13.5 -35.5
q0 -29 -20.5 -49.5t-48.5 -20.5z" />
    <glyph glyph-name="Ygrave" unicode="&#x1ef2;" 
d="M101 9l2 7l10 17q2 3 5.5 7.5t19.5 8.5q21 5 33 16t22 65l27 149l-65 292q-10 44 -18.5 58.5t-31.5 24.5q-6 3 -6 8l4 12l9 16q2 3 5 6.5t20 3.5h193q20 0 20 -8l-3 -8l-9 -17q-6 -9 -12 -12l-11 -5q-28 -13 -28 -35q0 -15 5 -38l41 -238l166 247q18 27 18 40
q0 16 -26 28q-9 5 -9 11l2 6l10 18q2 3 5.5 7t21.5 4h139q4 0 10.5 -0.5t6.5 -6.5l-3 -8l-8 -14q-7 -12 -16 -16l-15 -7q-20 -10 -34.5 -23.5t-42.5 -54.5l-172 -251q-19 -28 -28.5 -45.5t-17.5 -58.5l-16 -90q-6 -34 -6 -43q0 -11 5 -18t33 -14q8 -2 14.5 -4.5t6.5 -7.5
l-4 -10l-11 -18q-6 -10 -26 -10h-207q-14 0 -21 1t-7 8zM454 748l-173 108q-18 11 -25.5 16.5t-7.5 13.5t10 15l45 32q12 9 20 9q13 0 30 -20l149 -174h-48z" />
    <glyph glyph-name="ygrave" unicode="&#x1ef3;" horiz-adv-x="470" 
d="M83 -98l63 100l-57 336q-10 58 -18 75t-35 30q-12 6 -12 11q0 6 3 10l14 23q2 4 6 8.5t21 4.5h142l39 -364l97 158q19 30 33 60.5t14 59.5l-3 60v6q0 4 2 10.5t16 9.5l35 8l13 2q8 0 14 -12l18 -38q7 -14 7 -25q0 -12 -6.5 -28t-54.5 -89l-315 -481q-36 -55 -54 -70.5
t-45 -15.5h-49q-12 0 -18 3t-8 11l-8 32l-2 11q0 9 17 13l41 9q24 5 43 16.5t47 55.5zM343 548l-173 108q-18 11 -25.5 16.5t-7.5 13.5t10 15l45 32q12 9 20 9q13 0 30 -20l149 -174h-48z" />
    <glyph glyph-name="endash" unicode="&#x2013;" horiz-adv-x="489" 
d="M27 217l14 74h421l-14 -74h-421z" />
    <glyph glyph-name="emdash" unicode="&#x2014;" horiz-adv-x="809" 
d="M35 217l13 74h727l-14 -74h-726z" />
    <glyph glyph-name="quoteleft" unicode="&#x2018;" horiz-adv-x="263" 
d="M130 408q-5 0 -15 9.5t-19 29.5t-9 35q0 10 8 23t19.5 28t33.5 42t28 35q5 6 18.5 23t42.5 51.5t42 34.5q7 0 17.5 -9.5t10.5 -16.5q0 -8 -17 -27q-27 -31 -48.5 -69.5t-26.5 -98.5q-2 -21 -4.5 -32.5t-13.5 -20.5q-16 -12 -37.5 -24.5t-29.5 -12.5z" />
    <glyph glyph-name="quoteright" unicode="&#x2019;" horiz-adv-x="263" 
d="M70 400q-7 0 -17 10t-10 17q0 5 17 26q28 33 48.5 71t25.5 99q2 20 4.5 31t13.5 21q15 12 36.5 24t30.5 12q5 0 15 -9.5t19 -29t9 -34.5q0 -10 -6.5 -21t-17.5 -25.5t-33.5 -43t-30.5 -38.5q-5 -6 -18.5 -23t-43 -52t-42.5 -35z" />
    <glyph glyph-name="quotesinglbase" unicode="&#x201a;" horiz-adv-x="263" 
d="M56 57q2 20 4.5 31t13.5 21q15 12 36.5 24t30.5 12q5 0 15 -9.5t19 -29t9 -34.5q0 -10 -8.5 -23.5t-40 -53.5t-40.5 -51q-47 -59 -70 -84.5t-33 -25.5q-7 0 -17.5 10t-10.5 17q0 3 3 7.5t15 18.5q28 33 48.5 71t25.5 99z" />
    <glyph glyph-name="quotedblleft" unicode="&#x201c;" horiz-adv-x="468" 
d="M334 408q-5 0 -14.5 9.5t-18.5 30t-9 34.5q0 10 7.5 22.5t18.5 26.5t32 41t30 38q47 59 69.5 84t33.5 25q7 0 17 -9.5t10 -15.5q0 -9 -17 -28q-36 -42 -53 -80.5t-21 -87.5q-2 -21 -4.5 -32t-13.5 -21q-6 -5 -23 -16.5t-28.5 -16t-15.5 -4.5zM130 408q-5 0 -15 9.5
t-19 30t-9 34.5q0 10 7 21.5t18 25.5l33 42t31 39q47 60 69.5 84.5t32.5 24.5q7 0 17.5 -9.5t10.5 -15.5q0 -9 -17 -28q-27 -31 -48.5 -70t-26.5 -98q-2 -21 -4 -32.5t-13 -20.5q-6 -5 -23 -16.5t-28.5 -16t-15.5 -4.5z" />
    <glyph glyph-name="quotedblright" unicode="&#x201d;" horiz-adv-x="468" 
d="M275 400q-7 0 -17.5 10t-10.5 17q0 5 18 26q28 33 48.5 70.5t25.5 99.5q2 20 4.5 31t13.5 21q15 12 36.5 24t30.5 12q5 0 15 -9.5t19 -29t9 -33.5q0 -13 -12.5 -30.5t-39 -51t-37.5 -47.5q-5 -7 -18.5 -24t-42.5 -51.5t-42 -34.5zM71 400q-7 0 -17.5 10t-10.5 17t17 26
q28 32 49 70.5t26 99.5q2 20 4.5 31t13.5 21q15 12 36.5 24t30.5 12q5 0 15 -9.5t19 -29t9 -33.5q0 -13 -11.5 -29.5t-38 -50t-39.5 -49.5q-5 -7 -18.5 -23.5t-42.5 -51.5t-42 -35z" />
    <glyph glyph-name="quotedblbase" unicode="&#x201e;" horiz-adv-x="468" 
d="M187 -113q37 43 53.5 81.5t20.5 88.5q2 20 4.5 31t13.5 21q14 12 36 24t31 12q5 0 15 -9.5t19 -29t9 -33.5q0 -12 -9 -25.5t-37.5 -50t-41.5 -53.5q-5 -7 -18.5 -23.5t-42.5 -51.5t-43 -35q-7 0 -17 10t-10 17t17 26zM57 57q2 20 4.5 31t13.5 21q14 12 36 24t31 12
q5 0 15 -9.5t19 -29t9 -33.5q0 -3 -0.5 -9.5t-10 -22t-77.5 -97.5q-60 -72 -77.5 -91t-25.5 -19t-18.5 10t-10.5 17q0 5 18 26q28 33 48.5 71t25.5 99z" />
    <glyph glyph-name="dagger" unicode="&#x2020;" 
d="M242 -171h-57l32 177q14 75 14 117q0 18 -3 46.5t-25 77.5l-8 18q94 60 112 183q-28 -2 -45.5 -6t-79.5 -35q-33 -17 -61 -17q-30 0 -30 34q0 23 6.5 51.5t16.5 43.5q13 20 38 20q24 0 54 -17q35 -19 54 -27.5t53 -9.5l3 35q0 20 -4.5 39.5t-21.5 69.5q-7 18 -7 30
q0 28 23.5 41t73.5 13q42 0 56.5 -6.5t14.5 -25.5q0 -13 -4.5 -23.5t-45.5 -63.5q-10 -14 -22.5 -34t-25.5 -75q27 1 50.5 6t80.5 34q28 14 51 14q20 0 27.5 -8t7.5 -30q0 -19 -5 -42t-13 -37q-16 -30 -47 -30q-13 0 -24 3.5t-55 30.5q-11 7 -24.5 13t-56.5 9q-7 -44 -7 -65
q0 -33 13 -61t42 -57q-49 -56 -76.5 -119t-45.5 -160z" />
    <glyph glyph-name="daggerdbl" unicode="&#x2021;" 
d="M21 35q0 21 6 47.5t14 41.5q14 27 43 27q11 0 22.5 -3.5t64.5 -35.5q28 -16 72 -19q9 42 9 75q0 37 -11.5 59t-42.5 43q50 36 76 78t34 99q-36 -2 -54 -8t-71 -32q-36 -18 -60 -18q-12 0 -21.5 6t-9.5 29q0 22 6.5 50t16.5 43q14 21 39 21q23 0 53 -17q53 -29 68.5 -32.5
t39.5 -4.5l3 37q0 20 -4.5 40.5t-22.5 67.5q-7 16 -7 30q0 27 23 40t72 13q32 0 51.5 -4.5t19.5 -26.5q0 -13 -5.5 -25.5t-44.5 -62.5q-20 -24 -28 -45.5t-18 -63.5q34 1 58 8t72 32q28 14 51 14q19 0 27 -8t8 -26q0 -21 -5 -46t-13 -38q-16 -29 -47 -29q-13 0 -24 3.5
t-55 30.5q-11 7 -26 13.5t-54 8.5q-6 -45 -6 -64q0 -36 11.5 -61t40.5 -52q-37 -24 -59.5 -51t-34 -60t-17.5 -66q31 2 48 6t74 33q33 17 59 17q19 0 27.5 -7.5t8.5 -25.5q0 -28 -9.5 -59t-21.5 -42q-13 -13 -33 -13q-12 0 -22 3t-51 28q-39 23 -87 24q-4 -31 -4 -45
q0 -20 2.5 -34.5t23.5 -63.5q8 -19 8 -34q0 -11 -6.5 -23t-14.5 -18q-16 -10 -73 -10q-30 0 -51 5.5t-21 26.5q0 5 2 14.5t32 48.5q22 29 37.5 56t26.5 77q-26 -1 -43.5 -5t-78.5 -33q-39 -18 -62 -18q-31 0 -31 34z" />
    <glyph glyph-name="bullet" unicode="&#x2022;" horiz-adv-x="500" 
d="M268 210q-29 0 -62.5 14.5t-58.5 51t-25 80.5q0 60 43.5 102.5t104.5 42.5q58 0 100.5 -43.5t42.5 -101.5q0 -46 -25.5 -82t-58 -50t-61.5 -14z" />
    <glyph glyph-name="ellipsis" unicode="&#x2026;" horiz-adv-x="847" 
d="M592 52q0 28 15 49.5t36.5 30t39.5 8.5q28 0 46 -18t18 -47q0 -38 -26 -63.5t-64 -25.5q-29 0 -47 18.5t-18 47.5zM310 52q0 38 26 63t64 25q28 0 46 -18t18 -47q0 -38 -25.5 -63.5t-63.5 -25.5q-29 0 -47 18.5t-18 47.5zM27 52q0 28 15 49.5t36.5 30t39.5 8.5
q28 0 46 -18t18 -47q0 -38 -26 -63.5t-64 -25.5q-29 0 -47 18.5t-18 47.5z" />
    <glyph glyph-name="perthousand" unicode="&#x2030;" horiz-adv-x="1318" 
d="M204 272q-66 0 -104 45.5t-38 123.5q0 52 18.5 101t50.5 86t74.5 58t87.5 21q59 0 97.5 -42t38.5 -106q0 -57 -24.5 -119.5t-62.5 -104.5q-57 -63 -138 -63zM180 0l510 700h80l-510 -700h-80zM211 317q19 0 36.5 17t30.5 48q17 41 30 98t13 100q0 40 -11 60.5t-31 20.5
t-38.5 -15.5t-31.5 -44.5q-19 -41 -30.5 -95t-11.5 -101q0 -88 44 -88zM930 161q0 52 18.5 101t50.5 86.5t74.5 58.5t88.5 21q58 0 96 -43t38 -107q0 -56 -24 -119t-61 -103q-58 -63 -138 -63q-66 0 -104.5 45t-38.5 123zM526 161q0 52 18.5 101t50.5 86.5t74.5 58.5
t88.5 21q57 0 95.5 -43t38.5 -107q0 -56 -24 -119t-61 -103q-58 -63 -139 -63q-66 0 -104 45t-38 123zM1033 126q0 -87 47 -87q19 0 37.5 16.5t30.5 47.5q17 42 30 98t13 100q0 40 -11 60.5t-31 20.5t-38.5 -16t-32.5 -45q-20 -42 -32.5 -95.5t-12.5 -99.5zM630 126
q0 -87 45 -87q20 0 38 16.5t30 47.5q17 41 29.5 97t12.5 101q0 39 -10.5 60t-30.5 21t-38.5 -16t-31.5 -45q-19 -41 -31.5 -95.5t-12.5 -99.5z" />
    <glyph glyph-name="guilsinglleft" unicode="&#x2039;" horiz-adv-x="282" 
d="M167 78l-137 160l202 159q25 19 34 19q4 0 7 -3t3 -7q0 -11 -43.5 -68.5t-83.5 -99.5q21 -47 38 -97.5t17 -65.5q0 -6 -3.5 -10.5t-9.5 -4.5q-9 0 -24 18z" />
    <glyph glyph-name="guilsinglright" unicode="&#x203a;" horiz-adv-x="282" 
d="M9 60q-4 0 -6.5 2.5t-2.5 6.5q0 11 44 69t83 100q-23 53 -39.5 100t-16.5 62q0 6 4 11t9 5q9 0 25 -19l137 -159l-202 -160q-9 -6 -20 -12t-15 -6z" />
    <glyph glyph-name="fraction" unicode="&#x2044;" horiz-adv-x="189" 
d="M-100 0h-80l509 699h80z" />
    <glyph glyph-name="uni2070" unicode="&#x2070;" horiz-adv-x="398" 
d="M234 437q-68 0 -106.5 44t-38.5 122q0 54 19 104.5t53 89t78 60.5t91 22q60 0 98 -42t38 -108q0 -56 -25.5 -121t-63.5 -107q-58 -64 -143 -64zM239 482q20 0 39 17.5t32 48.5q19 45 34 107.5t15 100.5q0 77 -42 77t-73 -61q-21 -42 -35.5 -100.5t-14.5 -104.5
q0 -85 45 -85z" />
    <glyph glyph-name="uni2074" unicode="&#x2074;" horiz-adv-x="398" 
d="M162 453l3 7l5 6q8 10 13 13t16 4q27 2 38.5 11.5t17.5 34.5l8 36h-152q-17 0 -26.5 2t-12.5 15l-3 14q168 182 259 276h94l-50 -248h31q25 0 25 -11l-4 -9l-22 -39h-40l-10 -42l-3 -17q0 -8 5.5 -12.5t40.5 -12.5q13 -4 13 -10l-3 -6l-5 -10q-5 -11 -27 -11h-183
q-28 0 -28 9zM170 624h106l31 150q-56 -57 -137 -150z" />
    <glyph glyph-name="uni2075" unicode="&#x2075;" horiz-adv-x="398" 
d="M97 474l-15 44l-3 13q0 6 10 13l17 12q10 6 14 6q10 0 18 -10l25 -29q15 -17 27.5 -27.5t33.5 -10.5q33 0 56 24.5t23 60.5q0 28 -14 48t-45.5 34t-95.5 18l103 202h181q28 0 28 -11q0 -5 -6 -15l-28 -46h-139l-30 -65q46 -5 86 -29t56 -56t16 -62q0 -33 -17.5 -63
t-49.5 -51q-25 -17 -61 -27t-68 -10q-69 0 -122 37z" />
    <glyph glyph-name="uni2076" unicode="&#x2076;" horiz-adv-x="398" 
d="M254 437q-66 0 -109.5 39.5t-43.5 99.5q0 25 10.5 60t38 74t71.5 77.5t103.5 65t111.5 26.5q19 0 19 -10q0 -4 -5 -14l-11 -23q-29 -5 -65 -19t-71.5 -45t-59.5 -71q30 17 67 17q39 0 69 -19t41.5 -47t11.5 -52q0 -68 -51 -113.5t-127 -45.5zM260 481q29 0 47 28.5
t18 74.5q0 36 -13.5 58t-35.5 22q-14 0 -30 -10t-27 -35.5t-11 -57.5q0 -36 14.5 -58t37.5 -22z" />
    <glyph glyph-name="uni2077" unicode="&#x2077;" horiz-adv-x="398" 
d="M223 444h-110q163 222 196 269t59 89h-95q-32 0 -45.5 -4.5t-25.5 -20.5l-9 -12q-8 -10 -17 -10l-10 2l-10 5q-3 2 -6.5 5.5t-3.5 6.5l2 15l12 59q2 12 6.5 18t30.5 6h291l-10 -41q-35 -42 -83 -118z" />
    <glyph glyph-name="uni2078" unicode="&#x2078;" horiz-adv-x="398" 
d="M247 437q-30 0 -64.5 10t-59.5 36t-25 62q0 20 10.5 43t25.5 39q21 21 74 48q-25 21 -40 39.5t-15 48.5q0 38 25.5 66t64 39t70.5 11q29 0 60 -8t51.5 -30.5t20.5 -52.5q0 -33 -22.5 -59.5t-73.5 -49.5q32 -23 54 -47.5t22 -61.5q0 -56 -51.5 -94.5t-126.5 -38.5z
M302 711q29 15 42.5 32.5t13.5 40.5q0 22 -13 35.5t-34 13.5q-25 0 -41.5 -16t-16.5 -40q0 -19 10.5 -33t38.5 -33zM256 483q28 0 47.5 20.5t19.5 49.5q0 13 -9 32.5t-56 54.5q-62 -32 -62 -90q0 -30 16.5 -48.5t43.5 -18.5z" />
    <glyph glyph-name="uni2079" unicode="&#x2079;" horiz-adv-x="398" 
d="M114 437q-18 0 -18 10l4 11l15 28q55 6 108 42t85 89q-27 -15 -65 -15q-25 0 -53 11t-47.5 41t-19.5 68q0 48 30 87t71 54.5t77 15.5q68 0 109.5 -37.5t41.5 -100.5q0 -48 -29 -102t-78.5 -100t-110.5 -74t-120 -28zM278 652q20 0 38 17.5t25 41t7 42.5q0 36 -15 59
t-39 23q-29 0 -48 -28.5t-19 -72.5q0 -37 14 -59.5t37 -22.5z" />
    <glyph glyph-name="uni2080" unicode="&#x2080;" horiz-adv-x="398" 
d="M-30 -13q0 54 19 104.5t53 89t78 60.5t91 22q60 0 98 -42t38 -108q0 -56 -25.5 -121t-63.5 -107q-58 -64 -143 -64q-68 0 -106.5 44t-38.5 122zM75 -49q0 -85 45 -85q20 0 39 17.5t32 48.5q19 45 34 107.5t15 100.5q0 77 -42 77t-73 -61q-21 -42 -35.5 -100.5
t-14.5 -104.5z" />
    <glyph glyph-name="uni2081" unicode="&#x2081;" horiz-adv-x="398" 
d="M90 -87l46 228l4 23q0 2 -1.5 8t-7.5 6q-10 0 -21 -4l-26 -9l-11 -2q-15 0 -16 13l-1 7l-2 14q0 9 19 15l194 55l-72 -360l-3 -16q0 -16 11 -19l40 -7q18 -2 18 -10l-4 -9l-6 -10q-4 -8 -24 -8h-201q-13 0 -20.5 1.5t-7.5 7.5l2 7l7 12q1 2 5 5.5t22 5.5q21 2 35.5 9.5
t20.5 36.5z" />
    <glyph glyph-name="uni2082" unicode="&#x2082;" horiz-adv-x="398" 
d="M68 -102h83q21 0 33 3.5t38 33.5l14 16q11 11 18 11q6 0 12 -3l18 -9q8 -3 8 -10q0 -4 -7 -15l-37 -67q-9 -17 -16 -23.5t-42 -6.5h-249l11 53q81 63 125.5 102.5t76.5 75.5q51 57 51 104q0 20 -10.5 32t-28.5 12q-17 0 -31.5 -10.5t-30.5 -33.5l-17 -25q-6 -9 -17 -9
l-12 3l-14 6q-11 6 -11 13l2 15l6 29q2 14 22 28q56 40 130 40q56 0 92.5 -27t36.5 -68q0 -49 -58 -107q-13 -13 -44 -37l-55 -45z" />
    <glyph glyph-name="uni2083" unicode="&#x2083;" horiz-adv-x="398" 
d="M14 -60q9 0 15 -13l13 -25q8 -16 22.5 -25.5t31.5 -9.5q31 0 53.5 23.5t22.5 56.5q0 68 -109 78l7 40q62 10 97 37t35 65q0 20 -11.5 32t-29.5 12q-31 0 -58 -38l-11 -15q-7 -11 -17 -11q-8 0 -14 3l-10 5q-13 6 -13 12l2 15l4 21q3 15 25 29q23 14 54.5 22.5t61.5 8.5
q44 0 74.5 -13.5t41.5 -35t11 -41.5q0 -23 -13 -46t-42.5 -42t-67.5 -32q29 -8 53 -24t34 -36.5t10 -38.5q0 -57 -54.5 -95t-136.5 -38q-69 0 -121 32l-6 41l-2 17q0 8 11 13l21 11q10 5 16 5z" />
    <glyph glyph-name="uni2084" unicode="&#x2084;" horiz-adv-x="398" 
d="M-8 -51q-17 0 -26.5 2t-12.5 15l-3 14q168 182 259 276h94l-50 -248h31q25 0 25 -11l-4 -9l-22 -39h-40l-10 -42l-3 -17q0 -8 5.5 -12.5t40.5 -12.5q13 -4 13 -10l-3 -6l-5 -10q-5 -11 -27 -11h-183q-28 0 -28 9l3 7l5 6q8 10 13 13t16 4q27 2 38.5 11.5t17.5 34.5l8 36
h-152zM51 8h106l31 150q-56 -57 -137 -150z" />
    <glyph glyph-name="uni2085" unicode="&#x2085;" horiz-adv-x="398" 
d="M1 -54q10 0 18 -10l25 -29q15 -17 27.5 -27.5t33.5 -10.5q33 0 56 24.5t23 60.5q0 28 -14 48t-45.5 34t-95.5 18l103 202h181q28 0 28 -11q0 -5 -6 -15l-28 -46h-139l-30 -65q46 -5 86 -29t56 -56t16 -62q0 -33 -17.5 -63t-49.5 -51q-25 -17 -61 -27t-68 -10
q-69 0 -122 37l-15 44l-3 13q0 6 10 13l17 12q10 6 14 6z" />
    <glyph glyph-name="uni2086" unicode="&#x2086;" horiz-adv-x="398" 
d="M-18 -40q0 25 10.5 60t38 74t71.5 77.5t103.5 65t111.5 26.5q19 0 19 -10q0 -4 -5 -14l-11 -23q-29 -5 -65 -19t-71.5 -45t-59.5 -71q30 17 67 17q39 0 69 -19t41.5 -47t11.5 -52q0 -68 -51 -113.5t-127 -45.5q-66 0 -109.5 39.5t-43.5 99.5zM89 -55q0 -36 14.5 -58
t37.5 -22q29 0 47 28.5t18 74.5q0 36 -13.5 58t-35.5 22q-14 0 -30 -10t-27 -35.5t-11 -57.5z" />
    <glyph glyph-name="uni2087" unicode="&#x2087;" horiz-adv-x="398" 
d="M47 141l-10 5q-3 2 -6.5 5.5t-3.5 6.5l2 15l12 59q2 12 6.5 18t30.5 6h291l-10 -41q-35 -42 -83 -118l-172 -269h-110q163 222 196 269t59 89h-95q-32 0 -45.5 -4.5t-25.5 -20.5l-9 -12q-8 -10 -17 -10z" />
    <glyph glyph-name="uni2088" unicode="&#x2088;" horiz-adv-x="398" 
d="M15 11q21 21 74 48q-25 21 -40 39.5t-15 48.5q0 38 25.5 66t64 39t70.5 11q29 0 60 -8t51.5 -30.5t20.5 -52.5q0 -33 -22.5 -59.5t-73.5 -49.5q32 -23 54 -47.5t22 -61.5q0 -56 -51.5 -94.5t-126.5 -38.5q-30 0 -64.5 10t-59.5 36t-25 62q0 20 10.5 43t25.5 39zM183 95
q29 15 42.5 32.5t13.5 40.5q0 22 -13 35.5t-34 13.5q-25 0 -41.5 -16t-16.5 -40q0 -19 10.5 -33t38.5 -33zM77 -66q0 -30 16.5 -48.5t43.5 -18.5q28 0 47.5 20.5t19.5 49.5q0 13 -9 32.5t-56 54.5q-62 -32 -62 -90z" />
    <glyph glyph-name="uni2089" unicode="&#x2089;" horiz-adv-x="398" 
d="M4 106q0 48 30 87t71 54.5t77 15.5q68 0 109.5 -37.5t41.5 -100.5q0 -48 -29 -102t-78.5 -100t-110.5 -74t-120 -28q-18 0 -18 10l4 11l15 28q55 6 108 42t85 89q-27 -15 -65 -15q-25 0 -53 11t-47.5 41t-19.5 68zM108 118q0 -37 14 -59.5t37 -22.5q20 0 38 17.5t25 41
t7 42.5q0 36 -15 59t-39 23q-29 0 -48 -28.5t-19 -72.5z" />
    <glyph glyph-name="Euro" unicode="&#x20ac;" 
d="M13 270l9 53h85q3 32 13 74h-84l9 53h91q26 68 66 119t86.5 83.5t95 46t91.5 13.5q56 0 111.5 -21.5t55.5 -41.5l-4 -30l-11 -55q-1 -5 -3 -12.5t-10 -11.5l-11 -5q-8 -4 -11 -4q-15 0 -32 48q-12 34 -39.5 54.5t-58.5 20.5q-40 0 -75.5 -25.5t-65 -72t-49.5 -106.5h210
l-9 -53h-216q-9 -39 -12 -74h214l-9 -53h-207q2 -70 21 -119t47 -73.5t64 -24.5q21 0 41.5 7t36 23.5t35.5 46.5q13 19 27 19q8 0 27 -13q11 -7 11 -18q0 -9 -6 -19l-29 -57q-14 -25 -30 -33q-21 -10 -57 -15.5t-66 -5.5q-63 0 -112 21t-80.5 58.5t-48 89.5t-18.5 113h-93z
" />
    <glyph glyph-name="uni2113" unicode="&#x2113;" horiz-adv-x="550" 
d="M94 161l-51 58q77 66 109 96v193q0 49 10.5 90t32 70t52.5 44.5t71 15.5q31 0 60.5 -13.5t46.5 -45.5t17 -67q0 -43 -12.5 -79.5t-44 -83.5t-105.5 -131v-130q0 -96 65 -96q39 0 83 41l41 -73q-22 -18 -51 -34.5t-59.5 -24t-53.5 -7.5q-69 0 -110 41q-16 17 -29.5 51
t-13.5 82v57zM280 412l20 24q28 35 44 75t16 72q0 21 -8.5 34t-25.5 13q-22 0 -34 -25t-12 -67v-126z" />
    <glyph glyph-name="trademark" unicode="&#x2122;" horiz-adv-x="523" 
d="M337 500v200h72l49 -130l47 130h69v-200h-48v101l1 41l-15 -42l-40 -100h-33l-40 100l-14 42v-41v-101h-48zM193 500v159h-64v41h178v-41h-65v-159h-49z" />
    <glyph glyph-name="Omega" unicode="&#x2126;" horiz-adv-x="787" 
d="M44 0v116h168q-83 51 -126 123.5t-43 164.5q0 65 25 122t71.5 98.5t112 64.5t141.5 23q83 0 148.5 -24t108.5 -65.5t64.5 -97.5t21.5 -118q0 -56 -18.5 -110t-58.5 -101t-97 -80h172v-116h-285v116q66 56 99 119.5t33 141.5q0 43 -12.5 81.5t-36.5 67.5t-59.5 45
t-79.5 16q-41 0 -77 -15t-62.5 -43.5t-41.5 -68.5t-15 -88q0 -146 133 -256v-116h-286z" />
    <glyph glyph-name="estimated" unicode="&#x212e;" horiz-adv-x="706" 
d="M172 97q73 -70 172 -70q72 0 128.5 32.5t105.5 110.5l38 -23q-58 -88 -123 -123.5t-149 -35.5q-67 0 -124.5 25.5t-98 70.5t-62 105t-21.5 126q0 67 21.5 127t62 105t98.5 70t127 25t127 -25.5t98.5 -70.5t62 -105t22.5 -126h-485v-218zM172 354h348v179
q-34 32 -80.5 51.5t-93.5 19.5q-50 0 -95 -18t-79 -52v-180z" />
    <glyph glyph-name="onethird" unicode="&#x2153;" horiz-adv-x="955" 
d="M84 281l2 7l7 12q1 2 5 5.5t22 5.5q21 2 35.5 9.5t20.5 36.5l46 228l4 23q0 2 -1.5 8t-7.5 6q-10 0 -21 -4l-26 -9l-11 -2q-15 0 -16 13l-1 7l-2 14q0 9 19 15l194 55l-72 -360l-3 -16q0 -16 11 -19l40 -7q18 -2 18 -10l-4 -9l-6 -10q-4 -8 -24 -8h-201q-13 0 -20.5 1.5
t-7.5 7.5zM278 0h-80l509 699h80zM564 25l-6 41l-2 17q0 8 11 13l21 11q10 5 16 5q9 0 15 -13l13 -25q8 -16 22.5 -25.5t31.5 -9.5q31 0 53.5 23.5t22.5 56.5q0 68 -109 78l7 40q62 10 97 37t35 65q0 20 -11.5 32t-29.5 12q-31 0 -58 -38l-11 -15q-7 -11 -17 -11q-8 0 -14 3
l-10 5q-13 6 -13 12l2 15l4 21q3 15 25 29q23 14 54.5 22.5t61.5 8.5q44 0 74.5 -13.5t41.5 -35t11 -41.5q0 -23 -13 -46t-42.5 -42t-67.5 -32q29 -8 53 -24t34 -36.5t10 -38.5q0 -57 -54.5 -95t-136.5 -38q-69 0 -121 32z" />
    </font>
</defs>
</svg>
